<?xml version="1.0" encoding="UTF-8" standalone="no"?>
<!-- Created with Inkscape (http://www.inkscape.org/) -->

<svg
   xmlns:dc="http://purl.org/dc/elements/1.1/"
   xmlns:cc="http://creativecommons.org/ns#"
   xmlns:rdf="http://www.w3.org/1999/02/22-rdf-syntax-ns#"
   xmlns:svg="http://www.w3.org/2000/svg"
   xmlns="http://www.w3.org/2000/svg"
   xmlns:sodipodi="http://sodipodi.sourceforge.net/DTD/sodipodi-0.dtd"
   xmlns:inkscape="http://www.inkscape.org/namespaces/inkscape"
   width="157.16249mm"
   height="88.053329mm"
   viewBox="0 0 157.16249 88.053329"
   version="1.1"
   id="svg844"
   inkscape:version="0.92.2 2405546, 2018-03-11"
   sodipodi:docname="release_and_donate.svg">
  <defs
     id="defs838">
		
		
		
	
			
		</defs>
  <sodipodi:namedview
     id="base"
     pagecolor="#ffffff"
     bordercolor="#666666"
     borderopacity="1.0"
     inkscape:pageopacity="0.0"
     inkscape:pageshadow="2"
     inkscape:zoom="0.98994949"
     inkscape:cx="229.37094"
     inkscape:cy="228.10767"
     inkscape:document-units="mm"
     inkscape:current-layer="g1877"
     showgrid="false"
     showguides="false"
     fit-margin-top="0"
     fit-margin-left="0"
     fit-margin-right="0"
     fit-margin-bottom="0"
     inkscape:window-width="1920"
     inkscape:window-height="1118"
     inkscape:window-x="0"
     inkscape:window-y="49"
     inkscape:window-maximized="1" />
  <metadata
     id="metadata841">
    <rdf:RDF>
      <cc:Work
         rdf:about="">
        <dc:format>image/svg+xml</dc:format>
        <dc:type
           rdf:resource="http://purl.org/dc/dcmitype/StillImage" />
        <dc:title></dc:title>
      </cc:Work>
    </rdf:RDF>
  </metadata>
  <g
     inkscape:label="Layer 1"
     inkscape:groupmode="layer"
     id="layer1"
     transform="translate(-25.119328,-94.749774)">
    <g
       id="g1877"
       transform="matrix(0.26458333,0,0,0.26458333,24.325578,93.770816)">
	<g
   id="g1697">
		<path
   id="path1691"
   d="m 158.9,167.9 c 0,3 -0.9,5.3 -2.6,6.9 -1.7,1.6 -4.2,2.4 -7.4,2.4 h -5.2 v -18.3 h 5.8 c 3,0 5.3,0.8 7,2.4 1.6,1.6 2.4,3.8 2.4,6.6 z m -4,0.1 c 0,-3.9 -1.7,-5.9 -5.2,-5.9 h -2.1 V 174 h 1.7 c 3.7,0 5.6,-2 5.6,-6 z"
   class="st0"
   inkscape:connector-curvature="0"
   style="fill:#353535" />

		<path
   id="path1693"
   d="m 175.2,177.2 h -10.5 v -18.3 h 10.5 v 3.2 h -6.7 v 4 h 6.2 v 3.2 h -6.2 v 4.7 h 6.7 z"
   class="st0"
   inkscape:connector-curvature="0"
   style="fill:#353535" />

		<path
   id="path1695"
   d="m 191.4,158.9 h 3.9 l -6.2,18.3 h -4.2 l -6.2,-18.3 h 3.9 l 3.4,10.9 c 0.2,0.6 0.4,1.4 0.6,2.2 0.2,0.9 0.3,1.5 0.4,1.8 0.1,-0.8 0.4,-2.1 0.9,-4 z"
   class="st0"
   inkscape:connector-curvature="0"
   style="fill:#353535" />

	</g>

	<g
   id="g1705">
		<path
   id="path1699"
   d="m 421.4,168.1 c 0,3 -0.8,5.4 -2.3,7 -1.5,1.6 -3.7,2.4 -6.5,2.4 -2.8,0 -5,-0.8 -6.5,-2.4 -1.5,-1.6 -2.3,-4 -2.3,-7 0,-3 0.8,-5.4 2.3,-7 1.5,-1.6 3.7,-2.4 6.5,-2.4 2.8,0 5,0.8 6.5,2.4 1.5,1.6 2.3,3.9 2.3,7 z m -13.4,0 c 0,2 0.4,3.6 1.2,4.6 0.8,1 1.9,1.6 3.5,1.6 3.1,0 4.6,-2.1 4.6,-6.2 0,-4.1 -1.5,-6.2 -4.6,-6.2 -1.5,0 -2.7,0.5 -3.5,1.6 -0.8,1 -1.2,2.5 -1.2,4.6 z"
   class="st0"
   inkscape:connector-curvature="0"
   style="fill:#353535" />

		<path
   id="path1701"
   d="m 439.8,164.6 c 0,2 -0.6,3.5 -1.8,4.5 -1.2,1 -3,1.6 -5.3,1.6 H 431 v 6.5 h -3.9 v -18.3 h 5.9 c 2.2,0 3.9,0.5 5.1,1.4 1.1,1 1.7,2.4 1.7,4.3 z m -8.8,2.9 h 1.3 c 1.2,0 2.1,-0.2 2.7,-0.7 0.6,-0.5 0.9,-1.2 0.9,-2.1 0,-0.9 -0.2,-1.6 -0.7,-2 -0.5,-0.4 -1.3,-0.7 -2.3,-0.7 H 431 Z"
   class="st0"
   inkscape:connector-curvature="0"
   style="fill:#353535" />

		<path
   id="path1703"
   d="m 456,172.1 c 0,1.7 -0.6,3 -1.8,3.9 -1.2,1 -2.8,1.4 -5,1.4 -2,0 -3.7,-0.4 -5.2,-1.1 v -3.6 c 1.2,0.6 2.3,0.9 3.1,1.2 0.9,0.2 1.6,0.3 2.3,0.3 0.9,0 1.5,-0.2 2,-0.5 0.5,-0.3 0.7,-0.8 0.7,-1.5 0,-0.4 -0.1,-0.7 -0.3,-1 -0.2,-0.3 -0.5,-0.5 -0.9,-0.8 -0.4,-0.3 -1.2,-0.7 -2.4,-1.2 -1.1,-0.5 -2,-1 -2.5,-1.5 -0.5,-0.5 -1,-1 -1.3,-1.7 -0.3,-0.6 -0.5,-1.4 -0.5,-2.3 0,-1.6 0.5,-2.9 1.6,-3.8 1.1,-0.9 2.6,-1.4 4.6,-1.4 1,0 1.9,0.1 2.7,0.3 0.9,0.2 1.8,0.5 2.7,1 l -1.3,3 c -1,-0.4 -1.8,-0.7 -2.4,-0.8 -0.6,-0.2 -1.3,-0.2 -1.9,-0.2 -0.7,0 -1.3,0.2 -1.7,0.5 -0.4,0.3 -0.6,0.8 -0.6,1.3 0,0.3 0.1,0.6 0.2,0.9 0.2,0.3 0.4,0.5 0.8,0.7 0.3,0.2 1.2,0.7 2.5,1.3 1.7,0.8 2.9,1.6 3.5,2.5 0.6,0.9 1.1,2 1.1,3.1 z"
   class="st0"
   inkscape:connector-curvature="0"
   style="fill:#353535" />

	</g>

	<g
   id="g1709">
		<path
   id="path1707"
   d="m 180.2,75.6 c 47.4,5.4 84.2,45.6 84.2,94.4 0,-38.8 13.3,-74.6 35.6,-102.9 C 271.6,31.1 228.7,7.2 180.2,4 l -13.9,35.8 z"
   class="st1"
   inkscape:connector-curvature="0"
   style="fill:#19838e" />

	</g>

	<g
   id="g1713">
		<path
   id="path1711"
   d="m 159.3,264.5 c -47.8,-5 -85,-45.4 -85,-94.5 0,-0.5 0,-1.1 0,-1.6 L 39.1,182.1 3,168.1 c 0,0.6 0,1.3 0,1.9 0,88.6 69.3,161 156.6,166 l 13.7,-35.4 z"
   class="st2"
   inkscape:connector-curvature="0"
   style="fill:#3737aa" />

	</g>

	<g
   id="g1717">
		<path
   id="path1715"
   d="m 336,177 c 0,0 0,0 0,0 0,0 0,0 0,0 z"
   class="st0"
   inkscape:connector-curvature="0"
   style="fill:#353535" />

	</g>

	<g
   id="g1721">
		<path
   id="path1719"
   d="m 335.7,173.5 c 0,-1.2 -0.1,-2.3 -0.1,-3.5 0,1.2 0,2.3 0,3.5 0,0 0,0 0,0 z"
   class="st0"
   inkscape:connector-curvature="0"
   style="fill:#353535" />

	</g>

	<g
   id="g1725">
		<path
   id="path1723"
   d="m 74.7,161.1 c 4.5,-48.3 45.1,-86.2 94.6,-86.2 1.2,0 2.3,0 3.5,0.1 l -13.7,-35.2 14,-36.1 c -1.3,0 -2.6,0 -3.8,0 C 80.5,3.7 7.9,73.3 3.2,161 l 35.9,13.9 z"
   class="st3"
   inkscape:connector-curvature="0"
   style="fill:#8b9b29" />

	</g>

	<g
   id="g1729">
		<polygon
   id="polygon1727"
   points="266,180.3 264.7,180.8 "
   class="st4"
   style="fill:none" />

	</g>

	<g
   id="g1743">
		<g
   id="g1733">
			<path
   id="path1731"
   d="m 264.7,180.8 v 0 c 0,0 0,-0.1 0,-0.1 z"
   class="st5"
   inkscape:connector-curvature="0"
   style="fill:#3fa9f5" />

		</g>

		<g
   id="g1737">
			<path
   id="path1735"
   d="m 335.3,180.5 -34.8,-13.5 -34,13.2 v 0 l -0.5,0.2 -1.3,0.5 c 0,0 0,0 0,0.1 0,0 0,0 0,0 l -1,0.4 c -5.6,47.2 -45.7,83.8 -94.4,83.8 -0.9,0 -1.8,0 -2.7,0 l 13.8,35.7 -13.8,35.6 c 0.9,0 1.8,0 2.7,0 53,0 100.2,-24.8 130.7,-63.4 0,0 0,-0.1 0,-0.1 20.3,-25.9 33.1,-57.8 35.3,-92.5 z"
   class="st5"
   inkscape:connector-curvature="0"
   style="fill:#3fa9f5" />

		</g>

		<g
   id="g1741">
			<path
   id="path1739"
   d="m 264.7,180.7 c 0,0 0,0 0,0 z"
   class="st5"
   inkscape:connector-curvature="0"
   style="fill:#3fa9f5" />

		</g>

	</g>

	<g
   id="g1747">
			<polygon
   style="fill:#f15a24"
   class="st6"
   points=""
   id="polygon1745" />

		</g>
<g
   id="g1751">
			<path
   style="fill:#f15a24"
   inkscape:connector-curvature="0"
   class="st6"
   d="m 264.4,173.9 v 0 c 0,-0.1 0,0 0,0 z"
   id="path1749" />

		</g>
<path
   id="path1753"
   d="m 458.8,6.1 c -9.2,-1.6 -18.6,-2.4 -28.1,-2.4 -53,0 -100.2,24.8 -130.7,63.4 -22.3,28.3 -35.6,64 -35.6,102.9 0,1.3 0,2.6 0,3.8 l 36.1,-14 35.1,13.6 c 0,-1.2 0,-2.3 0,-3.5 0,-52.5 42.6,-95 95,-95 4.3,0 8.5,0.3 12.7,0.8 l 21.1,-31.3 z"
   class="st6"
   inkscape:connector-curvature="0"
   style="fill:#f15a24" />

	<g
   id="g1761">
		<path
   id="path1759"
   d="m 594.5,198.8 c 1.6,-9.4 2.5,-19 2.5,-28.8 C 597,90.2 540.8,23.5 465.7,7.4 l 5.7,38.7 -20.9,31 c 43,9.1 75.2,47.3 75.2,93 0,4.2 -0.3,8.4 -0.8,12.5 l 32.2,21.8 z"
   class="st7"
   inkscape:connector-curvature="0"
   style="fill:#9263ab" />

	</g>

	<g
   id="g1765">
		<path
   id="path1763"
   d="m 523.7,189.7 c -9.1,43 -47.3,75.4 -93,75.4 -4.2,0 -8.3,-0.3 -12.4,-0.8 l -21.9,32.7 5.6,36.9 c 9.3,1.6 18.9,2.5 28.7,2.5 79.6,0 146.1,-55.9 162.5,-130.6 l -37.6,5.5 z"
   class="st8"
   inkscape:connector-curvature="0"
   style="fill:#aa2e2e" />

	</g>

	<g
   id="g1769">
		<path
   id="path1767"
   d="m 411.1,263 c -39.7,-8.3 -70.2,-41.3 -74.9,-82.2 l -0.9,-0.4 c -2.2,34.8 -15,66.7 -35.3,92.4 23.4,29.7 56.8,51.2 95,59.6 l -5.6,-37.1 z"
   class="st1"
   inkscape:connector-curvature="0"
   style="fill:#19838e" />

	</g>

	
	<g
   id="g1795">
		<path
   id="path1787"
   d="m 233.1,56.1 c -0.5,1 -1.2,1.6 -2.1,1.8 -0.9,0.2 -1.9,0 -3,-0.6 l -0.8,-0.4 -1.7,3.2 -1.9,-1 4.7,-9 2.9,1.5 c 1.1,0.6 1.8,1.2 2.1,2 0.3,0.7 0.2,1.6 -0.2,2.5 z m -5.1,-0.8 0.6,0.3 c 0.6,0.3 1.1,0.4 1.5,0.3 0.4,-0.1 0.7,-0.3 1,-0.8 0.2,-0.5 0.3,-0.8 0.2,-1.2 -0.1,-0.3 -0.5,-0.6 -1,-0.9 l -0.9,-0.5 z"
   class="st9"
   inkscape:connector-curvature="0"
   style="fill:#ffffff" />

		<path
   id="path1789"
   d="m 232.2,63.8 5.4,-8.7 1.8,1.1 -4.4,7.1 3.5,2.2 -0.9,1.5 z"
   class="st9"
   inkscape:connector-curvature="0"
   style="fill:#ffffff" />

		<path
   id="path1791"
   d="m 244.8,72.3 0.8,-2.4 -3,-2.2 -2,1.5 -1.9,-1.4 9,-6.1 2.1,1.6 -3.2,10.4 z m 1.5,-4.2 c 0.8,-2.2 1.2,-3.4 1.3,-3.7 0.1,-0.3 0.2,-0.5 0.3,-0.7 -0.5,0.4 -1.7,1.3 -3.7,2.8 z"
   class="st9"
   inkscape:connector-curvature="0"
   style="fill:#ffffff" />

		<path
   id="path1793"
   d="m 255.1,81.1 -2,-1.8 1.8,-8.7 v 0 c -0.8,1.1 -1.5,1.8 -1.8,2.3 l -3.2,3.6 -1.4,-1.3 6.8,-7.6 2,1.8 -1.8,8.6 v 0 c 0.8,-1 1.4,-1.8 1.8,-2.2 l 3.2,-3.6 1.4,1.3 z"
   class="st9"
   inkscape:connector-curvature="0"
   style="fill:#ffffff" />

	</g>

	<g
   id="g1809">
		<path
   id="path1797"
   d="m 55.7,102.8 c -0.4,0.7 -0.5,1.4 -0.2,2.1 0.3,0.7 0.9,1.3 1.9,1.9 2,1.1 3.4,1 4.2,-0.5 0.4,-0.6 0.6,-1.5 0.8,-2.5 l 1.6,0.9 c -0.1,0.9 -0.4,1.8 -1,2.7 -0.7,1.3 -1.7,2 -2.9,2.3 -1.2,0.2 -2.5,-0.1 -3.9,-0.9 -0.9,-0.5 -1.6,-1.2 -2.1,-1.9 -0.5,-0.7 -0.7,-1.5 -0.8,-2.4 0,-0.8 0.2,-1.7 0.7,-2.5 0.5,-0.9 1.2,-1.6 2.1,-2.2 l 1.2,1.5 c -0.3,0.2 -0.7,0.5 -1,0.8 -0.1,0.1 -0.4,0.4 -0.6,0.7 z"
   class="st9"
   inkscape:connector-curvature="0"
   style="fill:#ffffff" />

		<path
   id="path1799"
   d="m 64.1,98.3 3.2,2.2 -1.2,1.8 -8.4,-5.8 1.7,-2.4 C 60.2,93 61,92.3 61.8,92 c 0.8,-0.3 1.6,-0.1 2.5,0.5 0.5,0.3 0.8,0.8 1,1.3 0.2,0.5 0.2,1.1 0.1,1.8 2.8,0.1 4.5,0.1 5.4,0.1 l -1.4,2 -4.6,-0.2 z m -1.4,-1 0.4,-0.6 c 0.4,-0.6 0.6,-1 0.6,-1.4 0,-0.4 -0.2,-0.7 -0.6,-1 C 62.7,94 62.3,94 62,94.1 c -0.4,0.2 -0.7,0.5 -1.1,1.1 l -0.4,0.5 z"
   class="st9"
   inkscape:connector-curvature="0"
   style="fill:#ffffff" />

		<path
   id="path1801"
   d="m 75.8,89.4 -3.7,4.5 -7.9,-6.5 3.7,-4.5 1.4,1.1 -2.3,2.9 1.7,1.4 2.2,-2.7 1.4,1.1 -2.2,2.7 2,1.7 2.3,-2.9 z"
   class="st9"
   inkscape:connector-curvature="0"
   style="fill:#ffffff" />

		<path
   id="path1803"
   d="m 82.1,82.6 -2.3,-1.1 -2.6,2.7 1.2,2.2 -1.6,1.7 -4.8,-9.7 1.8,-1.9 9.9,4.5 z m -3.9,-2 c -2.1,-1 -3.2,-1.6 -3.5,-1.8 -0.3,-0.1 -0.5,-0.3 -0.6,-0.3 0.3,0.5 1.1,1.9 2.3,4 z"
   class="st9"
   inkscape:connector-curvature="0"
   style="fill:#ffffff" />

		<path
   id="path1805"
   d="m 88.3,76.9 -1.6,1.4 -5.6,-6.3 -2.1,1.9 -1.2,-1.3 5.8,-5.1 1.2,1.3 -2.1,1.8 z"
   class="st9"
   inkscape:connector-curvature="0"
   style="fill:#ffffff" />

		<path
   id="path1807"
   d="m 97,70 -4.7,3.6 -6.2,-8.1 4.7,-3.6 1.1,1.4 -3,2.3 1.4,1.8 2.7,-2.1 1.1,1.4 -2.7,2.1 1.6,2.1 3,-2.3 z"
   class="st9"
   inkscape:connector-curvature="0"
   style="fill:#ffffff" />

	</g>

	<g
   id="g1823">
		<path
   id="path1811"
   d="m 68.4,241.5 1.2,1.8 -10.4,2.9 -1.3,-1.9 6.5,-8.6 1.2,1.8 -3.9,5 c -0.2,0.3 -0.5,0.6 -0.8,1 -0.3,0.4 -0.6,0.6 -0.7,0.7 0.4,-0.2 1.1,-0.5 2.2,-0.8 z"
   class="st9"
   inkscape:connector-curvature="0"
   style="fill:#ffffff" />

		<path
   id="path1813"
   d="m 66.6,255.9 -3.7,-4.6 8,-6.4 3.7,4.6 -1.4,1.1 -2.3,-2.9 -1.8,1.4 2.2,2.7 -1.4,1.1 -2.2,-2.7 -2.1,1.6 2.3,2.9 z"
   class="st9"
   inkscape:connector-curvature="0"
   style="fill:#ffffff" />

		<path
   id="path1815"
   d="m 73.3,257.6 -2.9,2.7 -1.5,-1.6 7.5,-6.9 2,2.2 c 0.9,1 1.5,1.9 1.5,2.8 0.1,0.8 -0.3,1.6 -1,2.3 -0.4,0.4 -0.9,0.7 -1.5,0.7 -0.6,0.1 -1.2,0 -1.8,-0.3 -0.6,2.7 -1,4.4 -1.2,5.2 l -1.6,-1.8 1.2,-4.4 z m 1.3,-1.2 0.5,0.5 c 0.5,0.5 0.9,0.8 1.3,0.9 0.4,0.1 0.8,0 1.1,-0.4 0.4,-0.3 0.5,-0.7 0.4,-1.1 -0.1,-0.4 -0.4,-0.8 -0.8,-1.3 l -0.4,-0.5 z"
   class="st9"
   inkscape:connector-curvature="0"
   style="fill:#ffffff" />

		<path
   id="path1817"
   d="m 76.5,266.5 7,-7.4 1.6,1.5 -7,7.4 z"
   class="st9"
   inkscape:connector-curvature="0"
   style="fill:#ffffff" />

		<path
   id="path1819"
   d="m 82.7,272.1 -1.6,-1.4 6.6,-7.8 4.5,3.8 -1.1,1.4 -2.8,-2.4 -1.7,2 2.6,2.2 -1.1,1.3 -2.6,-2.2 z"
   class="st9"
   inkscape:connector-curvature="0"
   style="fill:#ffffff" />

		<path
   id="path1821"
   d="m 94.4,273.6 4.2,-2.2 1.9,1.4 -6.4,3.1 -2.3,3.2 -1.7,-1.3 2.3,-3.2 1,-7.1 1.9,1.4 z"
   class="st9"
   inkscape:connector-curvature="0"
   style="fill:#ffffff" />

	</g>

	<g
   id="g1839">
		<path
   id="path1825"
   d="m 464.4,299.4 -4.5,-7.1 h -0.1 c 0.5,1.5 0.8,2.6 1,3.1 l 1.2,4.6 -1.9,0.5 -2.7,-9.8 2.8,-0.8 4.4,6.9 v 0 l 0.4,-8.2 2.8,-0.8 2.7,9.8 -1.9,0.5 -1.3,-4.7 c -0.1,-0.2 -0.1,-0.5 -0.2,-0.8 -0.1,-0.3 -0.2,-1.1 -0.5,-2.3 h -0.1 l -0.5,8.4 z"
   class="st9"
   inkscape:connector-curvature="0"
   style="fill:#ffffff" />

		<path
   id="path1827"
   d="m 481.6,288.2 c 0.6,1.6 0.7,2.9 0.2,4.1 -0.5,1.1 -1.4,2 -2.9,2.6 -1.5,0.6 -2.7,0.6 -3.8,0 -1.1,-0.5 -2,-1.6 -2.6,-3.2 -0.6,-1.6 -0.7,-2.9 -0.2,-4.1 0.5,-1.1 1.4,-2 2.9,-2.6 1.5,-0.6 2.7,-0.6 3.8,0 1.1,0.6 1.9,1.6 2.6,3.2 z m -7,2.7 c 0.4,1.1 0.9,1.8 1.5,2.2 0.6,0.4 1.3,0.4 2.1,0.1 1.6,-0.6 2,-2 1.2,-4.1 -0.8,-2.1 -2,-2.9 -3.6,-2.3 -0.8,0.3 -1.3,0.8 -1.5,1.5 -0.2,0.6 -0.1,1.5 0.3,2.6 z"
   class="st9"
   inkscape:connector-curvature="0"
   style="fill:#ffffff" />

		<path
   id="path1829"
   d="m 495,287.3 -2.5,1.2 -7.4,-4.9 H 485 c 0.7,1.2 1.2,2 1.4,2.5 l 2.2,4.3 -1.7,0.9 -4.6,-9.1 2.4,-1.2 7.4,4.8 v 0 c -0.7,-1.2 -1.1,-2 -1.4,-2.5 l -2.2,-4.3 1.7,-0.9 z"
   class="st9"
   inkscape:connector-curvature="0"
   style="fill:#ffffff" />

		<path
   id="path1831"
   d="m 498.5,285.3 -5.2,-8.8 1.9,-1.1 5.2,8.8 z"
   class="st9"
   inkscape:connector-curvature="0"
   style="fill:#ffffff" />

		<path
   id="path1833"
   d="m 507,279.8 -1.8,1.2 -4.7,-6.9 -2.3,1.6 -1,-1.5 6.4,-4.3 1,1.5 -2.3,1.6 z"
   class="st9"
   inkscape:connector-curvature="0"
   style="fill:#ffffff" />

		<path
   id="path1835"
   d="m 515.8,266.6 c 1.1,1.3 1.6,2.6 1.5,3.8 -0.1,1.2 -0.7,2.3 -1.9,3.3 -1.2,1 -2.4,1.4 -3.6,1.2 -1.2,-0.2 -2.4,-0.9 -3.4,-2.2 -1.1,-1.3 -1.6,-2.6 -1.5,-3.8 0.1,-1.2 0.7,-2.3 1.9,-3.3 1.2,-1 2.4,-1.4 3.6,-1.2 1.2,0.1 2.3,0.8 3.4,2.2 z m -5.8,4.7 c 0.7,0.9 1.4,1.4 2.1,1.6 0.7,0.2 1.4,0 2,-0.6 1.3,-1.1 1.3,-2.5 -0.2,-4.3 -1.5,-1.8 -2.8,-2.1 -4.2,-1 -0.7,0.5 -1,1.2 -1,1.9 0.2,0.7 0.6,1.5 1.3,2.4 z"
   class="st9"
   inkscape:connector-curvature="0"
   style="fill:#ffffff" />

		<path
   id="path1837"
   d="m 520.6,263.7 2.7,2.8 -1.5,1.5 -7.1,-7.3 2.1,-2.1 c 1,-1 1.9,-1.5 2.7,-1.6 0.8,-0.1 1.6,0.2 2.3,0.9 0.4,0.4 0.7,0.9 0.8,1.5 0.1,0.6 0,1.2 -0.2,1.8 2.7,0.6 4.5,0.9 5.3,1.1 l -1.7,1.7 -4.5,-1.1 z m -1.2,-1.3 0.5,-0.5 c 0.5,-0.5 0.8,-0.9 0.8,-1.3 0.1,-0.4 -0.1,-0.8 -0.4,-1.1 -0.3,-0.3 -0.7,-0.5 -1.1,-0.4 -0.4,0.1 -0.8,0.4 -1.3,0.9 l -0.5,0.5 z"
   class="st9"
   inkscape:connector-curvature="0"
   style="fill:#ffffff" />

	</g>

	<g
   id="g1855">
		<path
   id="path1841"
   d="m 235,279.1 c 0.5,1 0.6,1.9 0.3,2.7 -0.3,0.8 -1.1,1.5 -2.2,2.1 l -0.8,0.4 1.7,3.2 -1.9,1 -4.8,-9 2.9,-1.5 c 1.1,-0.6 2,-0.8 2.9,-0.6 0.7,0.2 1.4,0.7 1.9,1.7 z m -3.6,3.7 0.6,-0.3 c 0.6,-0.3 1,-0.7 1.1,-1 0.2,-0.4 0.1,-0.8 -0.1,-1.2 -0.2,-0.4 -0.5,-0.7 -0.9,-0.8 -0.4,-0.1 -0.8,0 -1.3,0.3 l -0.9,0.5 z"
   class="st9"
   inkscape:connector-curvature="0"
   style="fill:#ffffff" />

		<path
   id="path1843"
   d="m 246.6,280.1 -1.9,-1.6 -3.1,2 0.7,2.4 -2,1.3 -2.6,-10.6 2.2,-1.4 8.6,6.6 z m -3.4,-2.9 c -1.8,-1.5 -2.8,-2.3 -3,-2.5 -0.2,-0.2 -0.4,-0.4 -0.5,-0.5 0.2,0.6 0.6,2.1 1.3,4.4 z"
   class="st9"
   inkscape:connector-curvature="0"
   style="fill:#ffffff" />

		<path
   id="path1845"
   d="m 249,267.7 c -0.6,0.5 -1,1.1 -0.9,1.9 0,0.8 0.4,1.6 1,2.4 1.4,1.8 2.8,2.2 4.1,1.1 0.6,-0.4 1.1,-1.1 1.7,-2 l 1.1,1.4 c -0.4,0.8 -1.1,1.5 -1.9,2.1 -1.2,0.9 -2.3,1.3 -3.5,1 -1.2,-0.2 -2.3,-1 -3.3,-2.3 -0.7,-0.8 -1.1,-1.7 -1.3,-2.6 -0.2,-0.9 -0.1,-1.7 0.2,-2.5 0.3,-0.8 0.8,-1.5 1.6,-2.1 0.8,-0.6 1.7,-1 2.8,-1.3 l 0.5,1.8 c -0.4,0.1 -0.8,0.2 -1.2,0.3 -0.3,0.4 -0.6,0.5 -0.9,0.8 z"
   class="st9"
   inkscape:connector-curvature="0"
   style="fill:#ffffff" />

		<path
   id="path1847"
   d="m 265.2,264.8 -1.8,1.7 -4.9,-1.3 -0.2,1.1 2.5,2.7 -1.6,1.5 -6.9,-7.5 1.6,-1.5 3.2,3.4 -0.2,-1.5 -0.3,-4.4 1.8,-1.6 0.5,5.7 z"
   class="st9"
   inkscape:connector-curvature="0"
   style="fill:#ffffff" />

		<path
   id="path1849"
   d="m 271.4,258 -2.3,-1.1 -2.5,2.8 1.3,2.2 -1.6,1.7 -5.2,-9.5 1.8,-2 10,4.2 z m -4,-1.9 c -2.1,-1 -3.3,-1.5 -3.5,-1.6 -0.3,-0.1 -0.5,-0.2 -0.6,-0.3 0.3,0.5 1.1,1.8 2.4,3.9 z"
   class="st9"
   inkscape:connector-curvature="0"
   style="fill:#ffffff" />

		<path
   id="path1851"
   d="m 272.6,247.5 2.4,-3.2 4.2,3.2 c -0.2,0.7 -0.5,1.2 -0.8,1.8 -0.3,0.5 -0.6,1 -1,1.5 -0.9,1.2 -2,1.9 -3.2,2 -1.2,0.1 -2.5,-0.4 -3.8,-1.4 -1.3,-1 -2.1,-2.1 -2.2,-3.4 -0.2,-1.3 0.2,-2.6 1.2,-4 0.6,-0.8 1.4,-1.5 2.3,-2 l 1,1.6 c -0.7,0.4 -1.4,0.9 -1.8,1.5 -0.6,0.7 -0.8,1.5 -0.6,2.4 0.2,0.8 0.7,1.6 1.5,2.2 0.9,0.7 1.7,1 2.4,1 0.7,0 1.4,-0.4 1.9,-1.1 0.3,-0.4 0.5,-0.8 0.7,-1.2 l -1.7,-1.3 -1.2,1.5 z"
   class="st9"
   inkscape:connector-curvature="0"
   style="fill:#ffffff" />

		<path
   id="path1853"
   d="m 284.9,239.4 -3.1,5 -8.6,-5.4 3.1,-5 1.5,0.9 -2,3.1 1.9,1.2 1.8,-2.9 1.5,0.9 -1.8,2.9 2.2,1.4 2,-3.1 z"
   class="st9"
   inkscape:connector-curvature="0"
   style="fill:#ffffff" />

	</g>

	<g
   id="g1875">
		<path
   id="path1857"
   d="m 516.7,69.9 c -0.6,-0.5 -1.3,-0.7 -2,-0.5 -0.7,0.2 -1.5,0.7 -2.2,1.5 -1.5,1.7 -1.6,3.2 -0.3,4.3 0.5,0.5 1.3,0.9 2.3,1.3 l -1.2,1.4 c -0.9,-0.3 -1.7,-0.7 -2.5,-1.4 -1.1,-1 -1.7,-2 -1.7,-3.2 0,-1.2 0.5,-2.4 1.6,-3.7 0.7,-0.8 1.4,-1.4 2.2,-1.8 0.8,-0.4 1.6,-0.5 2.5,-0.3 0.8,0.1 1.6,0.5 2.4,1.2 0.8,0.6 1.4,1.5 1.8,2.5 l -1.7,0.9 c -0.2,-0.4 -0.4,-0.8 -0.6,-1.1 -0.1,-0.6 -0.3,-0.9 -0.6,-1.1 z"
   class="st9"
   inkscape:connector-curvature="0"
   style="fill:#ffffff" />

		<path
   id="path1859"
   d="m 525.5,83.1 c -1.2,1.2 -2.4,1.8 -3.7,1.8 -1.2,0 -2.4,-0.5 -3.5,-1.6 -1.1,-1.1 -1.6,-2.3 -1.6,-3.5 0.1,-1.2 0.7,-2.4 1.9,-3.6 1.2,-1.2 2.4,-1.8 3.7,-1.8 1.2,0 2.4,0.5 3.5,1.6 1.1,1.1 1.6,2.3 1.6,3.5 0,1.2 -0.7,2.4 -1.9,3.6 z m -5.2,-5.3 c -0.8,0.8 -1.3,1.6 -1.4,2.3 -0.1,0.7 0.1,1.4 0.7,2 1.2,1.2 2.6,1 4.3,-0.6 1.6,-1.6 1.9,-3 0.6,-4.3 -0.6,-0.6 -1.3,-0.9 -2,-0.8 -0.6,0.2 -1.4,0.6 -2.2,1.4 z"
   class="st9"
   inkscape:connector-curvature="0"
   style="fill:#ffffff" />

		<path
   id="path1861"
   d="m 529.5,96 -1.7,-2.2 3.3,-8.3 v 0 c -1,0.9 -1.7,1.6 -2.2,1.9 l -3.8,3 -1.2,-1.5 8,-6.3 1.7,2.1 -3.2,8.2 v 0 c 1,-0.9 1.7,-1.5 2.1,-1.8 l 3.8,-3 1.2,1.5 z"
   class="st9"
   inkscape:connector-curvature="0"
   style="fill:#ffffff" />

		<path
   id="path1863"
   d="m 532.7,100.5 -1.2,-1.8 8.4,-5.7 3.3,4.8 -1.5,1 -2.1,-3.1 -2.2,1.5 1.9,2.9 -1.5,1 -1.9,-2.9 z"
   class="st9"
   inkscape:connector-curvature="0"
   style="fill:#ffffff" />

		<path
   id="path1865"
   d="m 536.3,106.1 8.8,-5.2 1.1,1.9 -8.8,5.2 z"
   class="st9"
   inkscape:connector-curvature="0"
   style="fill:#ffffff" />

		<path
   id="path1867"
   d="m 546,111.8 1.8,3.6 -4.7,2.4 c -0.5,-0.5 -0.9,-1 -1.2,-1.5 -0.3,-0.5 -0.6,-1 -0.9,-1.5 -0.7,-1.4 -0.8,-2.6 -0.4,-3.8 0.4,-1.1 1.4,-2.1 2.9,-2.8 1.5,-0.7 2.8,-0.9 4.1,-0.5 1.2,0.4 2.2,1.4 3,2.9 0.5,0.9 0.7,1.9 0.8,3 l -1.9,0.1 c 0,-0.8 -0.2,-1.6 -0.5,-2.3 -0.4,-0.8 -1,-1.4 -1.9,-1.6 -0.8,-0.2 -1.7,-0.1 -2.6,0.4 -1,0.5 -1.6,1.1 -2,1.8 -0.3,0.7 -0.3,1.4 0.1,2.2 0.2,0.4 0.5,0.8 0.7,1.2 l 1.9,-1 -0.9,-1.7 z"
   class="st9"
   inkscape:connector-curvature="0"
   style="fill:#ffffff" />

		<path
   id="path1869"
   d="m 556.6,125 -6.1,2.4 c -0.7,0.3 -1.4,0.4 -2,0.3 -0.6,-0.1 -1.2,-0.4 -1.7,-0.9 -0.5,-0.5 -0.9,-1.1 -1.2,-1.9 -0.5,-1.2 -0.5,-2.3 -0.2,-3.2 0.4,-0.9 1.1,-1.6 2.2,-2 l 6.1,-2.4 0.8,2 -5.8,2.3 c -0.7,0.3 -1.2,0.6 -1.4,1.1 -0.2,0.4 -0.2,1 0.1,1.7 0.3,0.7 0.6,1.1 1.1,1.2 0.5,0.2 1.1,0.1 1.8,-0.2 l 5.8,-2.3 z"
   class="st9"
   inkscape:connector-curvature="0"
   style="fill:#ffffff" />

		<path
   id="path1871"
   d="m 552.5,132.9 -3.8,1.1 -0.6,-2.1 9.8,-2.9 0.8,2.9 c 0.4,1.3 0.4,2.4 0.1,3.2 -0.3,0.8 -0.9,1.3 -1.9,1.6 -0.6,0.2 -1.1,0.2 -1.7,0 -0.5,-0.2 -1,-0.5 -1.4,-1 -1.8,2.1 -2.9,3.5 -3.4,4.1 l -0.7,-2.3 3.1,-3.4 z m 1.7,-0.5 0.2,0.7 c 0.2,0.7 0.4,1.1 0.8,1.4 0.3,0.2 0.7,0.3 1.2,0.2 0.5,-0.1 0.7,-0.4 0.8,-0.8 0.1,-0.4 0.1,-0.9 -0.1,-1.6 l -0.2,-0.6 z"
   class="st9"
   inkscape:connector-curvature="0"
   style="fill:#ffffff" />

		<path
   id="path1873"
   d="m 552.1,147.6 -1.2,-5.7 10,-2.1 1.2,5.7 -1.7,0.4 -0.8,-3.6 -2.2,0.5 0.7,3.4 -1.7,0.4 -0.7,-3.4 -2.6,0.5 0.8,3.6 z"
   class="st9"
   inkscape:connector-curvature="0"
   style="fill:#ffffff" />

	</g>

<g
   aria-label="RELEASE &amp; DONATE"
   transform="rotate(-174.1324,436.71687,-10.199162)"
   inkscape:transform-center-x="17.432892"
   inkscape:transform-center-y="-19.090671"
   style="font-style:normal;font-weight:normal;font-size:40px;line-height:1.25;font-family:sans-serif;letter-spacing:0px;word-spacing:0px;fill:#000000;fill-opacity:1;stroke:none"
   id="text2083">
  <path
     d="m 548.34317,-176.53872 q -0.0492,0.94403 0.28081,1.36801 0.32956,0.43179 1.13315,0.47363 0.7958,0.0414 1.16062,-0.3542 0.3644,-0.38783 0.41356,-1.33186 l 0.0658,-1.26391 -2.98814,-0.15558 z m -2.00951,-1.37197 -4.40809,-0.22951 0.15639,-3.00374 11.64828,0.60647 -0.23885,4.58754 q -0.11983,2.30157 -0.94787,3.33022 -0.82845,1.03645 -2.49807,0.94952 -1.15468,-0.0601 -1.86662,-0.66045 -0.71234,-0.59252 -1.00493,-1.73428 -0.17253,0.60904 -0.69704,1.06676 -0.51711,0.46593 -1.54956,0.91286 l -3.39292,1.45837 0.16655,-3.1988 2.96845,-1.26924 q 0.89616,-0.38361 1.23919,-0.81167 0.34263,-0.42025 0.38081,-1.15363 z"
     style="font-weight:bold;font-size:16px;fill:#ffffff"
     id="path2090"
     inkscape:connector-curvature="0" />
  <path
     d="m 552.79476,-167.10014 -1.22213,8.02466 -2.24752,-0.34229 0.76927,-5.05113 -2.14712,-0.327 -0.7234,4.74991 -2.24752,-0.34229 0.7234,-4.74992 -2.64141,-0.40228 -0.79516,5.22105 -2.24752,-0.34229 1.24801,-8.19458 z"
     style="font-weight:bold;font-size:16px;fill:#ffffff"
     id="path2092"
     inkscape:connector-curvature="0" />
  <path
     d="m 550.79335,-155.27302 -0.72014,2.92033 -9.1175,-2.24833 -1.26445,5.12764 -2.20732,-0.54431 1.9846,-8.04798 z"
     style="font-weight:bold;font-size:16px;fill:#ffffff"
     id="path2094"
     inkscape:connector-curvature="0" />
  <path
     d="m 547.94162,-144.39537 -2.64807,7.6731 -2.14906,-0.74166 1.66683,-4.82985 -2.05305,-0.70853 -1.56743,4.54183 -2.14906,-0.74166 1.56743,-4.54183 -2.5257,-0.87164 -1.7229,4.99231 -2.14906,-0.74166 2.70414,-7.83557 z"
     style="font-weight:bold;font-size:16px;fill:#ffffff"
     id="path2096"
     inkscape:connector-curvature="0" />
  <path
     d="m 532.21013,-130.57603 1.96724,-4.27193 -1.61972,-1.56299 1.26465,-2.74624 8.78754,8.80311 -1.49994,3.25716 -12.40178,-0.95468 1.26466,-2.74624 z m 3.61918,-2.68549 -1.33655,2.90235 4.8818,0.49347 z"
     style="font-weight:bold;font-size:16px;fill:#ffffff"
     id="path2098"
     inkscape:connector-curvature="0" />
  <path
     d="m 533.52343,-113.99688 -2.12727,-1.25277 q 0.85788,-0.60998 1.51021,-1.2866 0.65234,-0.67663 1.06464,-1.37675 0.54709,-0.929 0.55293,-1.52395 0.006,-0.59495 -0.53271,-0.91211 -0.40391,-0.23787 -0.80723,-0.0765 -0.40055,0.1721 -1.02596,0.86459 l -0.87232,0.9732 q -1.32374,1.47802 -2.42666,1.78049 -1.10292,0.30248 -2.36851,-0.44284 -1.66278,-0.97922 -1.89457,-2.4485 -0.22901,-1.45859 0.96429,-3.48489 0.56295,-0.95593 1.31163,-1.81155 0.74867,-0.85562 1.67238,-1.60816 l 2.18786,1.28844 q -1.07854,0.66136 -1.86835,1.40209 -0.78705,0.75143 -1.27864,1.58618 -0.49952,0.84822 -0.4824,1.46576 0.0171,0.61754 0.54221,0.92677 0.47123,0.27751 0.90941,0.11849 0.43421,-0.15228 1.17533,-0.94888 l 0.81285,-0.87223 q 1.21117,-1.31765 2.33032,-1.6015 1.11519,-0.27711 2.31346,0.42856 1.50121,0.88407 1.73816,2.3292 0.23695,1.44512 -0.83345,3.26273 -0.48763,0.82802 -1.13092,1.62784 -0.63655,0.80379 -1.43669,1.59284 z"
     style="font-weight:bold;font-size:16px;fill:#ffffff"
     id="path2100"
     inkscape:connector-curvature="0" />
  <path
     d="m 531.37918,-110.03373 -4.7535,6.57973 -1.84283,-1.33134 2.9921,-4.14163 -1.76051,-1.27187 -2.81367,3.89465 -1.84284,-1.33135 2.81367,-3.89464 -2.1658,-1.56468 -3.09275,4.28095 -1.84283,-1.33135 4.85415,-6.71906 z"
     style="font-weight:bold;font-size:16px;fill:#ffffff"
     id="path2102"
     inkscape:connector-curvature="0" />
  <path
     d="m 514.05197,-94.975627 -4.74778,-0.16775 q 0.10231,0.678271 0.44153,1.303888 0.33377,0.631209 0.92164,1.259273 l -1.69665,1.739179 q -0.93596,-1.076781 -1.42454,-2.164624 -0.49405,-1.08225 -0.55232,-2.219616 l -3.39915,-0.118146 2.31312,-2.371099 1.14419,0.04661 q 0.18137,-0.969066 0.62407,-1.803249 0.4427,-0.834179 1.15192,-1.561169 1.43479,-1.47076 3.09576,-1.62943 1.6611,-0.14763 2.8858,1.04712 0.81646,0.7965 1.05545,1.804565 0.23913,1.019109 -0.0519,2.503329 0.52552,0.05427 0.93102,0.231563 0.4055,0.177297 0.72984,0.493715 0.91154,0.889243 0.76673,2.134092 -0.14481,1.244848 -1.29592,2.424806 -0.49645,0.508891 -1.11497,0.975096 -0.61838,0.477253 -1.36429,0.917411 l -1.55464,-1.516624 q 0.78124,-0.263805 1.36812,-0.608075 0.58689,-0.34427 1.02332,-0.791647 0.42008,-0.430601 0.4869,-0.834731 0.067,-0.393082 -0.23503,-0.687678 -0.19013,-0.185486 -0.56712,-0.291314 -0.37686,-0.09478 -0.93511,-0.115495 z m -0.30122,-2.46581 q 0.0918,-0.619902 -0.0637,-1.131774 -0.14991,-0.506416 -0.54696,-0.893755 -0.64311,-0.627384 -1.55979,-0.593934 -0.91669,0.0334 -1.56589,0.698916 -0.36552,0.374678 -0.57009,0.808136 -0.19898,0.438914 -0.24247,0.942199 z"
     style="font-weight:bold;font-size:16px;fill:#ffffff"
     id="path2104"
     inkscape:connector-curvature="0" />
  <path
     d="m 500.94967,-80.991359 -4.26943,-5.694416 -0.8626,0.64674 q -1.47517,1.10602 -1.70194,2.418484 -0.23302,1.317151 0.81208,2.711065 1.04041,1.387662 2.35913,1.531618 1.31873,0.143956 2.80015,-0.966751 z m 3.77031,0.01465 -2.5378,1.902729 q -2.12525,1.593418 -3.39251,2.065095 -1.26883,0.482615 -2.5563,0.315226 -1.12967,-0.139238 -2.06707,-0.725322 -0.93741,-0.586084 -1.72006,-1.629956 -0.79203,-1.056374 -1.09655,-2.126734 -0.29983,-1.064109 -0.11684,-2.187518 0.20645,-1.287468 1.02693,-2.38109 0.82517,-1.087371 2.92542,-2.662043 l 2.53779,-1.902729 z"
     style="font-weight:bold;font-size:16px;fill:#ffffff"
     id="path2106"
     inkscape:connector-curvature="0" />
  <path
     d="m 487.37617,-71.402815 q 1.18198,-0.702535 1.31449,-1.962779 0.13251,-1.260244 -0.80952,-2.845167 -0.93805,-1.578208 -2.10839,-2.064066 -1.17035,-0.485859 -2.35233,0.216676 -1.18869,0.706527 -1.3212,1.966771 -0.13252,1.260244 0.80553,2.838451 0.94203,1.584924 2.11238,2.070782 1.17035,0.485859 2.35904,-0.220668 z m 1.11368,1.873702 q -2.41768,1.437004 -4.60998,0.867856 -2.19231,-0.569148 -3.64129,-3.006976 -1.44498,-2.431111 -0.89725,-4.628864 0.54773,-2.197752 2.96541,-3.634756 2.41097,-1.433012 4.60999,-0.867855 2.1923,0.569148 3.63729,3.000259 1.44898,2.437828 0.90124,4.63558 -0.55445,2.201744 -2.96541,3.634756 z"
     style="font-weight:bold;font-size:16px;fill:#ffffff"
     id="path2108"
     inkscape:connector-curvature="0" />
  <path
     d="m 480.08489,-65.046448 -3.05457,1.398214 -7.18699,-5.508488 3.3297,7.274139 -2.59283,1.186856 -4.85473,-10.605751 3.05457,-1.398214 7.18698,5.508487 -3.3297,-7.274139 2.59284,-1.186856 z"
     style="font-weight:bold;font-size:16px;fill:#ffffff"
     id="path2110"
     inkscape:connector-curvature="0" />
  <path
     d="m 456.95355,-65.938551 4.44933,-1.524083 0.0135,-2.250841 2.86029,-0.979767 -0.30735,12.434669 -3.39243,1.16205 -7.86701,-9.63461 2.86029,-0.979767 z m 4.44108,0.766244 -3.02289,1.035466 3.01158,3.873738 z"
     style="font-weight:bold;font-size:16px;fill:#ffffff"
     id="path2112"
     inkscape:connector-curvature="0" />
  <path
     d="m 456.55781,-55.750883 -10.43288,2.591809 -0.54813,-2.206373 3.75311,-0.932373 -2.26406,-9.113608 2.91908,-0.725179 2.26407,9.113608 3.76069,-0.934256 z"
     style="font-weight:bold;font-size:16px;fill:#ffffff"
     id="path2114"
     inkscape:connector-curvature="0" />
  <path
     d="m 443.65425,-52.698766 -8.01257,1.298986 -0.36382,-2.244138 5.04353,-0.817649 -0.34756,-2.143884 -4.74277,0.768889 -0.36382,-2.244138 4.74277,-0.768889 -0.42758,-2.637441 -5.21318,0.845153 -0.36382,-2.244138 8.18224,-1.32649 z"
     style="font-weight:bold;font-size:16px;fill:#ffffff"
     id="path2116"
     inkscape:connector-curvature="0" />
</g>
</g>
  </g>
  <style
     id="style1689"
     type="text/css">
	.st0{fill:#353535;}
	.st1{fill:#19838E;}
	.st2{fill:#3737AA;}
	.st3{fill:#8B9B29;}
	.st4{fill:none;}
	.st5{fill:#3FA9F5;}
	.st6{fill:#F15A24;}
	.st7{fill:#9263AB;}
	.st8{fill:#AA2E2E;}
	.st9{fill:#FFFFFF;}
</style>
</svg>
