<?xml version="1.0" encoding="UTF-8" standalone="no"?> <!-- Created with Inkscape (http://www.inkscape.org/) --> <svg xmlns:dc="http://purl.org/dc/elements/1.1/" xmlns:cc="http://creativecommons.org/ns#" xmlns:rdf="http://www.w3.org/1999/02/22-rdf-syntax-ns#" xmlns:svg="http://www.w3.org/2000/svg" xmlns="http://www.w3.org/2000/svg" xmlns:xlink="http://www.w3.org/1999/xlink" xmlns:sodipodi="http://sodipodi.sourceforge.net/DTD/sodipodi-0.dtd" xmlns:inkscape="http://www.inkscape.org/namespaces/inkscape" width="300" height="500" viewBox="0 0 299.99999 500" id="svg2" inkscape:version="0.91 r13725" sodipodi:docname="Battery.svg"><defs id="defs4"><linearGradient inkscape:collect="always" id="linearGradient4216"><stop style="stop-color:#ffffff;stop-opacity:1;" offset="0" id="stop4218"></stop><stop style="stop-color:#ffffff;stop-opacity:0;" offset="1" id="stop4220"></stop></linearGradient><linearGradient inkscape:collect="always" xlink:href="#linearGradient4216" id="linearGradient4222" x1="237.85715" y1="373.43362" x2="270.71429" y2="427.36221" gradientUnits="userSpaceOnUse"></linearGradient><filter inkscape:collect="always" style="color-interpolation-filters:sRGB" id="filter4258" x="-0.048015438" width="1.096031" y="-0.028794445" height="1.0575889"><feGaussianBlur inkscape:collect="always" stdDeviation="0.65403848" id="feGaussianBlur4260"></feGaussianBlur></filter></defs><metadata id="metadata7"></metadata><g inkscape:label="Layer 1" inkscape:groupmode="layer" id="layer1" transform="translate(299.20496,-101.98882)"><rect style="opacity:1;fill:#ffffff;fill-opacity:1;fill-rule:nonzero;stroke:none;stroke-width:1;stroke-linecap:round;stroke-linejoin:round;stroke-miterlimit:4;stroke-dasharray:none;stroke-opacity:1" id="rect4149" width="300" height="500" x="-299.20496" y="101.98882" ry="2.4823155"></rect><g id="g4282" transform="matrix(7.8858379,0,0,7.8858379,-2157.9813,-2802.119)"><path style="opacity:1;fill:#000000;fill-opacity:1;fill-rule:nonzero;stroke:none;stroke-width:1.13627064;stroke-linecap:round;stroke-linejoin:round;stroke-miterlimit:4;stroke-dasharray:none;stroke-opacity:1" d="m 247.9899,372.71431 c -0.0499,0 -0.0898,0.04 -0.0898,0.0899 l 0,4.05273 -8.46289,0 c -0.58204,0 -1.05078,0.46874 -1.05078,1.05078 l 0,48.26953 c 0,0.58204 0.46874,1.05078 1.05078,1.05078 l 30.5918,0 c 0.58204,0 1.04883,-0.46874 1.04883,-1.05078 l 0,-48.26953 c 0,-0.58204 -0.4668,-1.05078 -1.04883,-1.05078 l -8.46484,0 0,-4.05273 c 0,-0.0499 -0.0399,-0.0899 -0.0898,-0.0899 l -13.48437,0 z" id="path4224" inkscape:connector-curvature="0"></path><path inkscape:connector-curvature="0" id="path4214" d="m 247.9899,372.71431 c -0.0499,0 -0.0898,0.04 -0.0898,0.0899 l 0,4.05273 -8.46289,0 c -0.58204,0 -1.05078,0.46874 -1.05078,1.05078 l 0,48.26953 c 0,0.58204 0.46874,1.05078 1.05078,1.05078 l 30.5918,0 c 0.58204,0 1.04883,-0.46874 1.04883,-1.05078 l 0,-48.26953 c 0,-0.58204 -0.4668,-1.05078 -1.04883,-1.05078 l -8.46484,0 0,-4.05273 c 0,-0.0499 -0.0399,-0.0899 -0.0898,-0.0899 l -13.48437,0 z" style="opacity:0.23000004;fill:url(#linearGradient4222);fill-opacity:1;fill-rule:nonzero;stroke:none;stroke-width:1.13627064;stroke-linecap:round;stroke-linejoin:round;stroke-miterlimit:4;stroke-dasharray:none;stroke-opacity:1"></path><path style="opacity:1;fill:#006600;fill-opacity:1;fill-rule:nonzero;stroke:none;stroke-width:1.13627064;stroke-linecap:round;stroke-linejoin:round;stroke-miterlimit:4;stroke-dasharray:none;stroke-opacity:1;filter:url(#filter4258)" d="m 247.9899,372.71431 c -0.0499,0 -0.0898,0.04 -0.0898,0.0899 l 0,4.05273 -8.46289,0 c -0.58204,0 -1.05078,0.46874 -1.05078,1.05078 l 0,48.26953 c 0,0.58204 0.46874,1.05078 1.05078,1.05078 l 30.5918,0 c 0.58204,0 1.04883,-0.46874 1.04883,-1.05078 l 0,-48.26953 c 0,-0.58204 -0.4668,-1.05078 -1.04883,-1.05078 l -8.46484,0 0,-4.05273 c 0,-0.0499 -0.0399,-0.0899 -0.0898,-0.0899 l -13.48437,0 z" id="path4186" inkscape:connector-curvature="0"></path><rect ry="0.64540154" y="380.23993" x="241.20218" height="4.8266854" width="27.059917" id="rect4262" style="opacity:1;fill:#ffffff;fill-opacity:1;fill-rule:nonzero;stroke:none;stroke-width:1;stroke-linecap:round;stroke-linejoin:round;stroke-miterlimit:4;stroke-dasharray:none;stroke-opacity:1"></rect><rect style="opacity:1;fill:#ffffff;fill-opacity:1;fill-rule:nonzero;stroke:none;stroke-width:1;stroke-linecap:round;stroke-linejoin:round;stroke-miterlimit:4;stroke-dasharray:none;stroke-opacity:1" id="rect4272" width="27.059917" height="4.8266854" x="241.20218" y="387.71503" ry="0.64540154"></rect><rect ry="0.64540154" y="395.19012" x="241.20218" height="4.8266854" width="27.059917" id="rect4274" style="opacity:1;fill:#ffffff;fill-opacity:1;fill-rule:nonzero;stroke:none;stroke-width:1;stroke-linecap:round;stroke-linejoin:round;stroke-miterlimit:4;stroke-dasharray:none;stroke-opacity:1"></rect><rect style="opacity:1;fill:#ffffff;fill-opacity:1;fill-rule:nonzero;stroke:none;stroke-width:1;stroke-linecap:round;stroke-linejoin:round;stroke-miterlimit:4;stroke-dasharray:none;stroke-opacity:1" id="rect4276" width="27.059917" height="4.8266854" x="241.20218" y="402.66522" ry="0.64540154"></rect><rect ry="0.64540154" y="410.14032" x="241.20218" height="4.8266854" width="27.059917" id="rect4278" style="opacity:1;fill:#ffffff;fill-opacity:1;fill-rule:nonzero;stroke:none;stroke-width:1;stroke-linecap:round;stroke-linejoin:round;stroke-miterlimit:4;stroke-dasharray:none;stroke-opacity:1"></rect><rect style="opacity:1;fill:#ffffff;fill-opacity:1;fill-rule:nonzero;stroke:none;stroke-width:1;stroke-linecap:round;stroke-linejoin:round;stroke-miterlimit:4;stroke-dasharray:none;stroke-opacity:1" id="rect4280" width="27.059917" height="4.8266854" x="241.20218" y="417.61542" ry="0.64540154"></rect></g></g></svg> 