<?xml version="1.0" encoding="UTF-8" standalone="no"?> <!-- Created with Inkscape (http://www.inkscape.org/) --> <svg xmlns:dc="http://purl.org/dc/elements/1.1/" xmlns:cc="http://creativecommons.org/ns#" xmlns:rdf="http://www.w3.org/1999/02/22-rdf-syntax-ns#" xmlns:svg="http://www.w3.org/2000/svg" xmlns="http://www.w3.org/2000/svg" xmlns:sodipodi="http://sodipodi.sourceforge.net/DTD/sodipodi-0.dtd" xmlns:inkscape="http://www.inkscape.org/namespaces/inkscape" width="64.433197mm" height="83.347809mm" viewBox="0 0 228.3066 295.32688" id="svg5538" inkscape:version="0.91 r13725" sodipodi:docname="microscope_05.svg"><defs id="defs5540"></defs><metadata id="metadata5543"></metadata><g inkscape:label="Layer 1" inkscape:groupmode="layer" id="layer1" transform="translate(-202.98955,-218.98448)"><path inkscape:connector-curvature="0" id="path5929" d="m 270.5163,496.34865 c -0.60058,-0.60058 -0.31587,-10.96977 0.35173,-12.81023 0.81262,-2.24028 3.32013,-4.87722 5.50649,-5.79073 1.41838,-0.59263 11.7894,-0.71965 57.97794,-0.71006 53.42378,0.0111 56.35857,0.0607 58.39962,0.98784 2.42467,1.10138 4.84091,3.69955 5.41374,5.82139 0.21104,0.78174 0.39044,3.93391 0.39866,7.00481 l 0.0149,5.58347 -63.85324,0.13508 c -35.11928,0.0743 -64.01372,-0.0254 -64.20988,-0.22157 z m 52.642,-22.86777 c -0.19498,-0.19497 -0.35451,-5.37661 -0.35451,-11.51474 l 0,-11.16023 -2.16348,-1.85187 c -1.18992,-1.01851 -2.89953,-3.15604 -3.79913,-4.75006 -0.89961,-1.59401 -1.9002,-2.97073 -2.22353,-3.05936 -17.36454,-4.76002 -27.76849,-10.61639 -39.15773,-22.04186 -6.22442,-6.24422 -9.88916,-11.00364 -14.05345,-18.25126 l -1.45128,-2.52586 11.64317,0 11.64316,0 3.03279,3.68652 c 6.70179,8.1464 17.61572,15.23763 28.76544,18.6901 l 3.13702,0.97136 2.44645,-2.17674 c 7.37,-6.5575 17.92573,-6.9576 25.82474,-0.97886 l 3.28212,2.48422 2.88844,-0.9804 c 21.89924,-7.43314 38.19803,-27.9321 40.93625,-51.48545 2.33647,-20.09758 -6.58797,-41.46615 -22.65888,-54.25416 -3.31337,-2.63654 -3.40388,-2.67119 -4.9242,-1.885 -0.85183,0.4405 -2.95665,1.02312 -4.67736,1.29472 -6.4036,1.01072 -12.8597,-1.03071 -17.48924,-5.53011 -1.33681,-1.29923 -2.50413,-2.36224 -2.59404,-2.36224 -0.0899,0 -9.07907,10.03676 -19.97591,22.3039 l -19.81244,22.30389 -11.67839,-10.41393 -11.67839,-10.41394 1.82009,-1.91947 c 1.00105,-1.05572 17.20202,-19.26812 36.00216,-40.47201 18.80014,-21.20388 34.60327,-39.00008 35.11805,-39.5471 0.90576,-0.96247 1.30748,-0.66367 12.44047,9.25325 6.32747,5.63631 11.43678,10.44087 11.35404,10.67679 -0.0828,0.23593 -1.67643,2.13109 -3.54152,4.21147 l -3.39107,3.7825 1.79579,1.53586 c 0.98769,0.84473 1.96209,1.54559 2.16534,1.55748 0.20326,0.0119 1.34771,1.38758 2.54322,3.05709 2.37713,3.31963 3.6739,7.02365 3.81405,10.89418 0.0838,2.31562 0.26649,2.62328 2.51653,4.23915 7.21142,5.17884 14.125,12.4644 19.59534,20.64959 14.53331,21.74603 17.3813,50.92148 7.34498,75.24387 -8.9699,21.738 -27.77728,39.21344 -49.82978,46.30084 -4.57883,1.47158 -4.61359,1.49623 -5.84935,4.14767 -0.68372,1.46701 -2.37977,3.80605 -3.76899,5.19786 l -2.52585,2.53058 0,11.45813 0,11.45814 -11.07831,0 c -6.09307,0 -11.23784,-0.15952 -11.43281,-0.35451 z m 16.93152,-26.42024 c 2.75083,-1.28099 5.40078,-3.87119 7.02456,-6.86617 0.66596,-1.22833 0.93522,-2.93892 0.94052,-5.97511 0.007,-3.67648 -0.18835,-4.58711 -1.43458,-6.707 -3.0423,-5.17507 -7.59385,-7.67004 -13.29119,-7.28566 -1.84063,0.12418 -4.21993,0.64718 -5.28734,1.1622 -2.5735,1.24174 -5.50066,4.2283 -6.82449,6.96297 -1.48833,3.07446 -1.47263,8.69294 0.033,11.80309 1.32541,2.73793 5.57158,6.69569 8.02639,7.48123 3.22197,1.03103 7.8976,0.78216 10.81317,-0.57555 z m -9.04377,-4.31016 c -5.5472,-2.02397 -7.69037,-8.70385 -4.37225,-13.62759 3.75923,-5.57833 12.68508,-5.09707 15.50039,0.83576 3.58096,7.54629 -3.42682,15.60176 -11.12814,12.79183 z m 34.87228,-135.16394 c 4.92262,-2.67923 7.90339,-7.76737 7.92263,-13.52384 0.0224,-6.69748 -3.09202,-11.82919 -8.91419,-14.68824 -4.06161,-1.99451 -9.72178,-2.08726 -13.5334,-0.22177 -3.21257,1.5723 -6.33766,4.69739 -7.90996,7.90996 -1.68171,3.43611 -1.73852,9.4244 -0.12288,12.95269 4.01822,8.77516 14.11766,12.16489 22.5578,7.5712 z m -11.47489,-5.73118 c -7.86124,-3.50893 -6.62183,-14.92271 1.83001,-16.8526 3.94186,-0.90008 8.89788,1.89452 10.16414,5.73135 2.44121,7.39694 -4.96109,14.26051 -11.99415,11.12125 z m -132.67383,92.74797 c -0.58494,-0.58494 -1.06352,-1.42246 -1.06352,-1.86116 0,-0.4387 0.47858,-1.27622 1.06352,-1.86115 1.04831,-1.04832 1.77253,-1.06352 50.66465,-1.06352 44.03226,0 49.73382,0.0929 50.78297,0.82779 1.46705,1.02756 1.51296,2.5634 0.11832,3.95804 -1.04836,1.04835 -1.77253,1.06351 -50.78297,1.06351 -49.01044,0 -49.73462,-0.0151 -50.78297,-1.06351 z M 365.88962,254.77626 c -4.23342,-3.77198 -7.76235,-7.05568 -7.84205,-7.29708 -0.0797,-0.24141 0.51672,-2.76526 1.32539,-5.60855 l 1.47032,-5.16961 11.42345,10.13848 c 6.28289,5.57616 11.49451,10.20694 11.58137,10.29062 0.12355,0.11903 -7.06775,3.30003 -9.72959,4.30378 -0.29246,0.11028 -3.99547,-2.88565 -8.22889,-6.65764 z" style="fill:#ec672a;fill-opacity:1"></path></g></svg> 