<?xml version="1.0" encoding="UTF-8"?> <svg xmlns="http://www.w3.org/2000/svg" xmlns:xlink="http://www.w3.org/1999/xlink" id="Layer_1" x="0px" y="0px" viewBox="0 0 1978.63 1642.306" xml:space="preserve"> <g> <g id="XMLID_12_"> <path id="XMLID_2_" fill="#24316A" stroke="#FFFFFF" stroke-width="9.2593" stroke-miterlimit="10" d="M450.728,265.647h-230.89 c-12.5,0-22.634-10.133-22.634-22.634V110.221c0-12.5,10.133-22.634,22.634-22.634h230.89c12.5,0,22.634,10.133,22.634,22.634 v132.793C473.362,255.514,463.229,265.647,450.728,265.647z"></path> <path id="XMLID_8_" fill="#24316A" stroke="#FFFFFF" stroke-width="9.2593" stroke-miterlimit="10" d="M197.204,243.013 c0-1.783-0.011-131.355,0.019-133.169h-65.456c-17.253,0-33.19,10.238-41.784,26.841L68.99,177.242H46.697 c-10.671,0-19.322,9.601-19.322,21.445v45.515c0,11.844,8.651,21.445,19.322,21.445H193.39c4.691,0,8.966-1.886,12.309-4.975 C200.525,256.524,197.204,250.161,197.204,243.013z"></path> <circle id="XMLID_3_" fill="#24316A" stroke="#FFFFFF" stroke-width="9.2593" stroke-miterlimit="10" cx="130.432" cy="265.029" r="36.478"></circle> <circle id="XMLID_5_" fill="#24316A" stroke="#FFFFFF" stroke-width="9.2593" stroke-miterlimit="10" cx="335.695" cy="265.029" r="36.478"></circle> <circle id="XMLID_6_" fill="#24316A" stroke="#FFFFFF" stroke-width="9.2593" stroke-miterlimit="10" cx="418.543" cy="265.029" r="36.478"></circle> <path id="XMLID_4_" fill="#FFFFFF" d="M160.885,178.863h-51.756c-6.006,0-10.102-6.08-7.845-11.646l10.901-26.89 c1.295-3.195,4.398-5.285,7.845-5.285h40.855c4.675,0,8.465,3.79,8.465,8.465v26.89 C169.35,175.073,165.56,178.863,160.885,178.863z"></path> </g> <defs> <filter id="Adobe_OpacityMaskFilter" x="22.745" y="299.692" width="455.247" height="223.179"> <feColorMatrix type="matrix" values="1 0 0 0 0 0 1 0 0 0 0 0 1 0 0 0 0 0 1 0"></feColorMatrix> </filter> </defs> <mask maskUnits="userSpaceOnUse" x="22.745" y="299.692" width="455.247" height="223.179" id="XMLID_41_"> <g id="XMLID_522_" filter="url(#Adobe_OpacityMaskFilter)"> <linearGradient id="XMLID_50_" gradientUnits="userSpaceOnUse" x1="1327.2487" y1="1310.957" x2="1327.2487" y2="329.4773" gradientTransform="matrix(-1 0 0 -1 1600.7494 1359.7284)"> <stop offset="0" style="stop-color:#FFFFFF;stop-opacity:0.3"></stop> <stop offset="0.1427" style="stop-color:#FFFFFF;stop-opacity:0.2572"></stop> <stop offset="1" style="stop-color:#FFFFFF;stop-opacity:0"></stop> </linearGradient> <polygon id="XMLID_523_" fill="url(#XMLID_50_)" stroke="#231F20" stroke-width="3.0864" stroke-miterlimit="10" points=" -43.613,44.885 590.614,44.885 590.614,524.879 -43.613,524.879 "></polygon> </g> </mask> <g id="XMLID_34_" mask="url(#XMLID_41_)"> <path id="XMLID_40_" fill="#24316A" stroke="#FFFFFF" stroke-width="9.2593" stroke-miterlimit="10" d="M450.728,340.181h-230.89 c-12.5,0-22.634,10.133-22.634,22.634v132.793c0,12.5,10.133,22.634,22.634,22.634h230.89c12.5,0,22.634-10.133,22.634-22.634 V362.815C473.362,350.315,463.229,340.181,450.728,340.181z"></path> <path id="XMLID_39_" fill="#24316A" stroke="#FFFFFF" stroke-width="9.2593" stroke-miterlimit="10" d="M197.204,362.815 c0,1.783-0.011,131.355,0.019,133.169h-65.456c-17.253,0-33.19-10.238-41.784-26.841L68.99,428.586H46.697 c-10.671,0-19.322-9.601-19.322-21.445v-45.515c0-11.844,8.651-21.445,19.322-21.445H193.39c4.691,0,8.966,1.886,12.309,4.975 C200.525,349.305,197.204,355.668,197.204,362.815z"></path> <circle id="XMLID_38_" fill="#24316A" stroke="#FFFFFF" stroke-width="9.2593" stroke-miterlimit="10" cx="130.432" cy="340.8" r="36.478"></circle> <circle id="XMLID_37_" fill="#24316A" stroke="#FFFFFF" stroke-width="9.2593" stroke-miterlimit="10" cx="335.695" cy="340.8" r="36.478"></circle> <circle id="XMLID_36_" fill="#24316A" stroke="#FFFFFF" stroke-width="9.2593" stroke-miterlimit="10" cx="418.543" cy="340.8" r="36.478"></circle> <path id="XMLID_35_" fill="#FFFFFF" d="M160.885,426.966h-51.756c-6.006,0-10.102,6.08-7.845,11.646l10.901,26.89 c1.295,3.195,4.398,5.285,7.845,5.285h40.855c4.675,0,8.465-3.79,8.465-8.465v-26.89 C169.35,430.756,165.56,426.966,160.885,426.966z"></path> </g> </g> <g id="XMLID_137_"> <g id="XMLID_7_"> <path id="XMLID_10_" fill="#24316A" stroke="#FFFFFF" stroke-width="9.2593" stroke-miterlimit="10" d="M825.291,35.633 c-8.305,10.026-11.74,23.877-10.751,36.756l15.477,201.525c1.568,20.414,12.404,31.981,11.273,30.532 c4.332,5.549,11.357,5.549,15.689,0c6.78-8.683,10.44-19.689,11.273-30.532l15.477-201.525 C886.855,31.681,848.719,7.348,825.291,35.633z"></path> <path id="XMLID_11_" fill="#24316A" d="M818.268,123.877c-0.456-5.262-5.692-8.07-9.562-5.128l-117.184,89.093 c-4.743,3.607-1.689,12.033,3.857,10.641l122.772-35.071c2.959-0.845,4.928-4.022,4.629-7.469L818.268,123.877z"></path> <path id="XMLID_9_" fill="#24316A" d="M880,123.877c0.456-5.262,5.692-8.07,9.562-5.128l117.184,89.093 c4.743,3.607,1.689,12.033-3.857,10.641l-122.772-35.071c-2.959-0.845-4.928-4.022-4.629-7.469L880,123.877z"></path> <path id="XMLID_13_" fill="#24316A" d="M836.403,271.05l-29.189,18.175c-4.183,4.356-1.146,12.557,4.364,11.782l34.341-4.83 L836.403,271.05z"></path> <path id="XMLID_15_" fill="#24316A" d="M861.865,271.05l29.189,18.175c4.183,4.356,1.146,12.557-4.364,11.782l-34.341-4.83 L861.865,271.05z"></path> </g> <defs> <filter id="Adobe_OpacityMaskFilter_1_" x="689.179" y="292.592" width="319.911" height="294.462"> <feColorMatrix type="matrix" values="1 0 0 0 0 0 1 0 0 0 0 0 1 0 0 0 0 0 1 0"></feColorMatrix> </filter> </defs> <mask maskUnits="userSpaceOnUse" x="689.179" y="292.592" width="319.911" height="294.462" id="XMLID_71_"> <g id="XMLID_461_" filter="url(#Adobe_OpacityMaskFilter_1_)"> <linearGradient id="XMLID_73_" gradientUnits="userSpaceOnUse" x1="845.2759" y1="-62.8263" x2="845.2759" y2="511.2557"> <stop offset="0" style="stop-color:#FFFFFF"></stop> <stop offset="0.0146" style="stop-color:#FFFFFF;stop-opacity:0.9854"></stop> <stop offset="1" style="stop-color:#FFFFFF;stop-opacity:0"></stop> </linearGradient> <rect id="XMLID_462_" x="621.511" y="307.544" fill="url(#XMLID_73_)" width="447.531" height="348.765"></rect> </g> </mask> <g id="XMLID_48_" mask="url(#XMLID_71_)"> <path id="XMLID_49_" fill="#24316A" stroke="#FFFFFF" stroke-width="9.2593" stroke-miterlimit="10" d="M825.291,570.196 c-8.305-10.026-11.74-23.877-10.751-36.756l15.477-201.525c1.568-20.414,12.404-31.981,11.273-30.532 c4.332-5.549,11.357-5.549,15.689,0c6.78,8.683,10.44,19.689,11.273,30.532l15.477,201.525 C886.855,574.148,848.719,598.48,825.291,570.196z"></path> <path id="XMLID_67_" fill="#24316A" d="M818.268,481.951c-0.456,5.262-5.692,8.07-9.562,5.128l-117.184-89.093 c-4.743-3.607-1.689-12.033,3.857-10.641l122.772,35.071c2.959,0.845,4.928,4.022,4.629,7.469L818.268,481.951z"></path> <path id="XMLID_68_" fill="#24316A" d="M880,481.951c0.456,5.262,5.692,8.07,9.562,5.128l117.184-89.093 c4.743-3.607,1.689-12.033-3.857-10.641l-122.772,35.071c-2.959,0.845-4.928,4.022-4.629,7.469L880,481.951z"></path> <path id="XMLID_69_" fill="#24316A" d="M836.403,334.779l-29.189-18.175c-4.183-4.356-1.146-12.557,4.364-11.782l34.341,4.83 L836.403,334.779z"></path> <path id="XMLID_70_" fill="#24316A" d="M861.865,334.779l29.189-18.175c4.183-4.356,1.146-12.557-4.364-11.782l-34.341,4.83 L861.865,334.779z"></path> </g> </g> <g id="XMLID_138_"> <g id="XMLID_16_"> <g id="XMLID_17_"> <path id="XMLID_64_" fill="#24316A" d="M1472.461,302.914c-32.902,0-59.67-26.768-59.67-59.671 c0-32.902,26.768-59.67,59.67-59.67c32.902,0,59.67,26.768,59.67,59.67C1532.131,276.146,1505.363,302.914,1472.461,302.914z M1472.461,189.746c-29.499,0-53.497,23.998-53.497,53.497s23.998,53.498,53.497,53.498s53.497-24,53.497-53.498 S1501.96,189.746,1472.461,189.746z"></path> </g> <g id="XMLID_18_"> <path id="XMLID_61_" fill="#24316A" d="M1284.576,302.914c-32.902,0-59.67-26.768-59.67-59.671 c0-32.902,26.768-59.67,59.67-59.67c32.902,0,59.67,26.768,59.67,59.67C1344.245,276.146,1317.477,302.914,1284.576,302.914z M1284.576,189.746c-29.499,0-53.497,23.998-53.497,53.497s23.998,53.498,53.497,53.498s53.497-24,53.497-53.498 S1314.074,189.746,1284.576,189.746z"></path> </g> <g id="XMLID_19_"> <path id="XMLID_58_" fill="#24316A" d="M1350.111,235.304l-33.435-81.276c-1.67-4.057,1.321-8.521,5.709-8.521h128.086 c5.726,0,8.344,7.142,4.021,10.857l-94.651,81.276C1356.656,240.374,1351.711,239.195,1350.111,235.304z M1331.598,157.853 l26.681,64.855l75.527-64.855H1331.598z"></path> </g> <g id="XMLID_20_"> <path id="XMLID_55_" fill="#24316A" d="M1278.876,240.874l36.781-88.477c2.114-5.079,9.318-5.048,11.408,0.018l32.407,78.704 c1.534,3.724-0.861,7.901-4.847,8.464l-69.188,9.773C1280.722,250.026,1277.041,245.292,1278.876,240.874z M1321.329,170.913 l-26.898,64.705l50.597-7.148L1321.329,170.913z"></path> </g> <g id="XMLID_21_"> <path id="XMLID_54_" fill="#24316A" d="M1316.766,154.237l-7.846-17.233c-1.414-3.103-0.042-6.764,3.059-8.176 c3.111-1.412,6.764-0.044,8.177,3.061l7.846,17.233c1.414,3.103,0.042,6.764-3.059,8.176 C1321.814,158.715,1318.169,157.324,1316.766,154.237z"></path> </g> <g id="XMLID_22_"> <path id="XMLID_30_" fill="#24316A" d="M1314.497,119.789l25.706,5.036c5.802,1.137,5.849,6.399,0.071,7.586 c-16.93,3.478-40.367,7.665-46.364,5.596c-8.621-2.974-1.385-11.915,10.996-17.362 C1307.699,119.416,1311.26,119.155,1314.497,119.789z"></path> </g> <g id="XMLID_51_"> <path id="XMLID_52_" fill="#24316A" d="M1469.507,241.43l-20.876-99.062c-1,0.039-4.277,0.132-8.174,0.304 c-3.412,0.166-6.29-2.487-6.441-5.893c-0.151-3.406,2.487-6.289,5.893-6.441c2.233-0.099,4.268-0.172,6.137-0.235l-2.773-13.158 c-0.951-4.528,3.234-8.454,7.692-7.222l27.778,7.716c4.346,1.209,5.965,6.521,3.047,9.951 c-8.108,9.517-12.801,12.766-20.737,14.058l20.535,97.435c0.702,3.337-1.432,6.61-4.768,7.314 C1473.495,246.899,1470.211,244.775,1469.507,241.43z M1457.448,124.338l1.064,5.046c2.963-0.437,4.973-1.219,7.014-2.802 L1457.448,124.338z"></path> </g> </g> <defs> <filter id="Adobe_OpacityMaskFilter_2_" x="1224.906" y="302.914" width="307.225" height="193.42"> <feColorMatrix type="matrix" values="1 0 0 0 0 0 1 0 0 0 0 0 1 0 0 0 0 0 1 0"></feColorMatrix> </filter> </defs> <mask maskUnits="userSpaceOnUse" x="1224.906" y="302.914" width="307.225" height="193.42" id="XMLID_126_"> <g id="XMLID_406_" filter="url(#Adobe_OpacityMaskFilter_2_)"> <linearGradient id="XMLID_127_" gradientUnits="userSpaceOnUse" x1="1374.8533" y1="-122.2398" x2="1374.8533" y2="470.3524"> <stop offset="0" style="stop-color:#FFFFFF"></stop> <stop offset="1" style="stop-color:#FFFFFF;stop-opacity:0"></stop> </linearGradient> <rect id="XMLID_407_" x="1078.557" y="289.025" fill="url(#XMLID_127_)" width="592.592" height="375"></rect> </g> </mask> <g id="XMLID_75_" mask="url(#XMLID_126_)"> <g id="XMLID_90_"> <path id="XMLID_91_" fill="#24316A" d="M1532.131,362.585c0,32.902-26.768,59.67-59.67,59.67c-32.902,0-59.67-26.768-59.67-59.67 c0-32.903,26.768-59.671,59.67-59.671C1505.363,302.914,1532.131,329.682,1532.131,362.585z M1525.958,362.585 c0-29.499-23.998-53.498-53.497-53.498s-53.497,24-53.497,53.498s23.998,53.497,53.497,53.497S1525.958,392.084,1525.958,362.585 z"></path> </g> <g id="XMLID_86_"> <path id="XMLID_87_" fill="#24316A" d="M1344.245,362.585c0,32.902-26.768,59.67-59.67,59.67c-32.902,0-59.67-26.768-59.67-59.67 c0-32.903,26.768-59.671,59.67-59.671C1317.477,302.914,1344.245,329.682,1344.245,362.585z M1338.072,362.585 c0-29.499-23.998-53.498-53.497-53.498s-53.497,24-53.497,53.498s23.998,53.497,53.497,53.497S1338.072,392.084,1338.072,362.585 z"></path> </g> <g id="XMLID_82_"> <path id="XMLID_83_" fill="#24316A" d="M1454.491,449.465c4.326,3.717,1.702,10.857-4.021,10.857h-128.086 c-4.387,0-7.379-4.464-5.709-8.521l33.435-81.276c0.943-2.293,3.184-3.825,5.709-3.825 C1359.09,366.7,1352.442,361.836,1454.491,449.465z M1433.806,447.976l-75.527-64.855l-26.681,64.855H1433.806z"></path> </g> <g id="XMLID_78_"> <path id="XMLID_79_" fill="#24316A" d="M1354.626,366.246c3.988,0.563,6.38,4.742,4.847,8.464l-32.407,78.704 c-2.092,5.071-9.297,5.091-11.408,0.018l-36.781-88.477c-1.686-4.06,1.297-8.542,5.7-8.542 C1285.254,356.413,1280.557,355.784,1354.626,366.246z M1345.029,377.359l-50.597-7.148l26.898,64.705L1345.029,377.359z"></path> </g> <g id="XMLID_76_"> <path id="XMLID_77_" fill="#24316A" d="M1316.766,451.591l-7.846,17.233c-1.414,3.103-0.042,6.764,3.059,8.176 c3.111,1.412,6.764,0.044,8.177-3.061l7.846-17.233c1.414-3.103,0.042-6.764-3.059-8.176 C1321.814,447.113,1318.169,448.504,1316.766,451.591z"></path> </g> <g id="XMLID_94_"> <path id="XMLID_95_" fill="#24316A" d="M1314.497,486.04l25.706-5.036c5.802-1.137,5.849-6.4,0.071-7.586 c-16.93-3.478-40.367-7.665-46.364-5.596c-8.621,2.974-1.385,11.915,10.996,17.362 C1307.699,486.413,1311.26,486.674,1314.497,486.04z"></path> </g> <g id="XMLID_119_"> <path id="XMLID_121_" fill="#24316A" d="M1481.588,366.945l-20.535,97.435c7.936,1.292,12.629,4.541,20.737,14.058 c2.923,3.436,1.292,8.744-3.047,9.951l-27.778,7.716c-4.46,1.233-8.643-2.695-7.692-7.222l2.773-13.158 c-1.869-0.063-3.903-0.136-6.137-0.235c-3.406-0.152-6.043-3.035-5.893-6.441c0.151-3.406,3.029-6.058,6.441-5.893 c3.897,0.173,7.174,0.265,8.174,0.304l20.876-99.062c0.612-2.907,3.177-4.901,6.034-4.901 C1479.471,359.498,1482.394,363.114,1481.588,366.945z M1465.526,479.247c-2.041-1.582-4.051-2.365-7.014-2.802l-1.064,5.046 L1465.526,479.247z"></path> </g> </g> </g> <g id="XMLID_194_"> <g id="XMLID_14_"> <g id="XMLID_25_"> <path id="XMLID_24_" fill="#24316A" d="M1858.915,722.641l-15.268-20.194c-8.597-11.37-22.027-18.053-36.281-18.053h-101.532 c-12.063,0-23.633,4.792-32.163,13.322l-18.493,18.493c-4.372,4.372-10.095,7.133-16.238,7.835l-153.158,17.494l-8.851-26.198 c-1.934-5.725-7.613-9.313-13.613-8.601l-7.691,0.912c-7.891,0.936-13.023,8.769-10.732,16.377l6.846,22.729 c1.755,5.827,0.636,12.142-3.016,17.011l-2.078,2.771c-3.896,5.195-2.474,12.617,3.067,16.003l8.977,5.486 c6.093,3.724,14.048,1.855,17.845-4.193c9.393-14.96,8.004-12.661,9.191-14.896l152.969,12.935 c5.649,0.478,10.814,3.131,14.785,7.176c20.068,20.441,66.201,34.745,119.931,34.745c72.161,0,130.658-25.794,130.658-57.613 C1904.071,748.789,1886.56,733.205,1858.915,722.641z"></path> </g> <g id="XMLID_23_"> <g id="XMLID_26_"> <path id="XMLID_27_" fill="#24316A" d="M1765.745,666.924h-12.956c-3.434,0-6.218-2.784-6.218-6.218 c0-3.434,2.784-6.218,6.218-6.218h12.956c3.434,0,6.218,2.784,6.218,6.218C1771.964,664.139,1769.179,666.924,1765.745,666.924z "></path> </g> </g> <g id="XMLID_28_"> <path id="XMLID_29_" fill="#24316A" d="M1569.49,669.103c1.081,0.349,2.241,0.518,3.43,0.471l157.061-6.232 c1.148-0.046,2.055-0.989,2.055-2.138v-3.003c0-1.149-0.907-2.092-2.055-2.138l-157.061-6.232 C1561.413,649.377,1558.66,665.602,1569.49,669.103z"></path> </g> <g id="XMLID_32_"> <path id="XMLID_231_" fill="#24316A" d="M1949.045,669.103c-1.081,0.349-2.241,0.518-3.43,0.471l-157.061-6.232 c-1.148-0.046-2.055-0.989-2.055-2.138v-3.003c0-1.149,0.907-2.092,2.055-2.138l157.061-6.232 C1957.122,649.377,1959.875,665.602,1949.045,669.103z"></path> </g> <g id="XMLID_33_"> <path id="XMLID_98_" fill="#24316A" d="M1712.97,848.49c-3.409,0-6.173-2.764-6.173-6.173v-15.432 c0-3.409,2.764-6.173,6.173-6.173c3.409,0,6.173,2.764,6.173,6.173v15.432C1719.143,845.726,1716.379,848.49,1712.97,848.49z"></path> </g> <g id="XMLID_42_"> <path id="XMLID_97_" fill="#24316A" d="M1802.476,851.576c-3.409,0-6.173-2.764-6.173-6.173v-15.432 c0-3.409,2.764-6.173,6.173-6.173c3.409,0,6.173,2.764,6.173,6.173v15.432C1808.649,848.813,1805.885,851.576,1802.476,851.576z"></path> </g> <g id="XMLID_43_"> <path id="XMLID_96_" fill="#24316A" d="M1876.387,853.12h-221.028c-3.409,0-6.173-2.764-6.173-6.173s2.764-6.173,6.173-6.173 h221.028c3.409,0,6.173,2.764,6.173,6.173S1879.796,853.12,1876.387,853.12z"></path> </g> <g id="XMLID_44_"> <path id="XMLID_45_" fill="#FFFFFF" d="M1717.121,692.625c-3.168,0-6.144,1.622-8.005,4.363l-11.107,16.359 c-3.134,4.616-0.126,11.171,5.125,11.171h64.004c3.216,0,5.464-3.183,4.388-6.214l-8.018-22.581 c-0.659-1.857-2.417-3.098-4.388-3.098H1717.121z"></path> </g> <g id="XMLID_46_"> <path id="XMLID_47_" fill="#FFFFFF" d="M1836.2,715.24l-7.086-12.36c-3.653-6.371-10.141-10.255-17.131-10.255h-30.129 c-3.894,0-6.615,3.854-5.312,7.523l7.322,20.619c0.798,2.248,2.926,3.751,5.312,3.751h42.164 C1835.795,724.518,1838.529,719.3,1836.2,715.24z"></path> </g> </g> <defs> <filter id="Adobe_OpacityMaskFilter_3_" x="1444.346" y="854.147" width="511.519" height="203.296"> <feColorMatrix type="matrix" values="1 0 0 0 0 0 1 0 0 0 0 0 1 0 0 0 0 0 1 0"></feColorMatrix> </filter> </defs> <mask maskUnits="userSpaceOnUse" x="1444.346" y="854.147" width="511.519" height="203.296" id="XMLID_136_"> <g id="XMLID_478_" filter="url(#Adobe_OpacityMaskFilter_3_)"> <linearGradient id="XMLID_139_" gradientUnits="userSpaceOnUse" x1="1735.0901" y1="279.8171" x2="1735.0901" y2="1162.2767"> <stop offset="0" style="stop-color:#FFFFFF"></stop> <stop offset="0.1139" style="stop-color:#FFFFFF;stop-opacity:0.8861"></stop> <stop offset="1" style="stop-color:#FFFFFF;stop-opacity:0"></stop> </linearGradient> <rect id="XMLID_479_" x="1438.794" y="840.773" fill="url(#XMLID_139_)" width="592.592" height="375"></rect> </g> </mask> <g id="XMLID_99_" mask="url(#XMLID_136_)"> <g id="XMLID_117_"> <path id="XMLID_118_" fill="#24316A" d="M1858.915,984.626l-15.268,20.194c-8.597,11.37-22.027,18.053-36.281,18.053h-101.532 c-12.063,0-23.633-4.792-32.163-13.322l-18.493-18.493c-4.372-4.372-10.095-7.133-16.238-7.835l-153.158-17.494l-8.851,26.198 c-1.934,5.725-7.613,9.313-13.613,8.601l-7.691-0.912c-7.891-0.936-13.023-8.769-10.732-16.377l6.846-22.729 c1.755-5.827,0.636-12.142-3.016-17.011l-2.078-2.771c-3.896-5.195-2.474-12.617,3.067-16.003l8.977-5.486 c6.093-3.724,14.048-1.855,17.845,4.193c9.393,14.96,8.004,12.661,9.191,14.896l152.969-12.935 c5.649-0.478,10.814-3.131,14.785-7.176c20.068-20.441,66.201-34.746,119.931-34.746c72.161,0,130.658,25.794,130.658,57.613 C1904.071,958.479,1886.56,974.062,1858.915,984.626z"></path> </g> <g id="XMLID_114_"> <g id="XMLID_115_"> <path id="XMLID_116_" fill="#24316A" d="M1765.745,1040.344h-12.956c-3.434,0-6.218,2.784-6.218,6.218s2.784,6.218,6.218,6.218 h12.956c3.434,0,6.218-2.784,6.218-6.218S1769.179,1040.344,1765.745,1040.344z"></path> </g> </g> <g id="XMLID_112_"> <path id="XMLID_113_" fill="#24316A" d="M1569.49,1038.164c1.081-0.349,2.241-0.518,3.43-0.471l157.061,6.232 c1.148,0.046,2.055,0.989,2.055,2.138v3.003c0,1.149-0.907,2.092-2.055,2.138l-157.061,6.231 C1561.413,1057.891,1558.66,1041.665,1569.49,1038.164z"></path> </g> <g id="XMLID_110_"> <path id="XMLID_111_" fill="#24316A" d="M1949.045,1038.164c-1.081-0.349-2.241-0.518-3.43-0.471l-157.061,6.232 c-1.148,0.046-2.055,0.989-2.055,2.138v3.003c0,1.149,0.907,2.092,2.055,2.138l157.061,6.231 C1957.122,1057.891,1959.875,1041.665,1949.045,1038.164z"></path> </g> <g id="XMLID_108_"> <path id="XMLID_109_" fill="#24316A" d="M1712.97,858.777c-3.409,0-6.173,2.764-6.173,6.173v15.432 c0,3.409,2.764,6.173,6.173,6.173c3.409,0,6.173-2.764,6.173-6.173V864.95C1719.143,861.541,1716.379,858.777,1712.97,858.777z"></path> </g> <g id="XMLID_106_"> <path id="XMLID_107_" fill="#24316A" d="M1802.476,855.691c-3.409,0-6.173,2.764-6.173,6.173v15.432 c0,3.409,2.764,6.173,6.173,6.173c3.409,0,6.173-2.764,6.173-6.173v-15.432C1808.649,858.455,1805.885,855.691,1802.476,855.691z "></path> </g> <g id="XMLID_104_"> <path id="XMLID_105_" fill="#24316A" d="M1876.387,854.147h-221.028c-3.409,0-6.173,2.764-6.173,6.173s2.764,6.173,6.173,6.173 h221.028c3.409,0,6.173-2.764,6.173-6.173S1879.796,854.147,1876.387,854.147z"></path> </g> <g id="XMLID_102_"> <path id="XMLID_103_" fill="#FFFFFF" d="M1717.121,1014.642c-3.168,0-6.144-1.622-8.005-4.363l-11.107-16.359 c-3.134-4.616-0.126-11.171,5.125-11.171h64.004c3.216,0,5.464,3.183,4.388,6.214l-8.018,22.581 c-0.659,1.857-2.417,3.098-4.388,3.098H1717.121z"></path> </g> <g id="XMLID_100_"> <path id="XMLID_101_" fill="#FFFFFF" d="M1836.2,992.027l-7.086,12.36c-3.653,6.371-10.141,10.255-17.131,10.255h-30.129 c-3.894,0-6.615-3.854-5.312-7.523l7.322-20.619c0.798-2.248,2.926-3.751,5.312-3.751h42.164 C1835.795,982.749,1838.529,987.967,1836.2,992.027z"></path> </g> </g> </g> <g id="XMLID_128_"> <g id="XMLID_135_"> <path id="XMLID_140_" fill="#24316A" d="M471.047,838.716H65.183c-20.881,0-37.809-16.927-37.809-37.809 c0-65.961,53.454-119.599,119.599-119.599h324.074c20.881,0,37.809,16.927,37.809,37.809v81.79 C508.856,821.788,491.928,838.716,471.047,838.716z"></path> <path id="XMLID_141_" fill="#FFFFFF" d="M57.488,738.15h92.315c5.398,0,9.774-4.376,9.774-9.774v-29.064 c0-5.398-4.376-9.774-9.774-9.774h-36.491c-1.139,0-34.727,11.366-57.543,45.451C54.869,736.334,55.87,738.15,57.488,738.15z"></path> <path id="XMLID_142_" fill="#FFFFFF" d="M262.2,737.379h-87.449c-4.688,0-8.488-3.8-8.488-8.488v-28.292 c0-4.688,3.8-8.488,8.488-8.488H262.2c4.688,0,8.488,3.8,8.488,8.488v28.292C270.687,733.578,266.887,737.379,262.2,737.379z"></path> <path id="XMLID_143_" fill="#FFFFFF" d="M370.739,737.379H283.29c-4.688,0-8.488-3.8-8.488-8.488v-28.292 c0-4.688,3.8-8.488,8.488-8.488h87.449c4.688,0,8.488,3.8,8.488,8.488v28.292C379.226,733.578,375.426,737.379,370.739,737.379z"></path> <path id="XMLID_144_" fill="#FFFFFF" d="M479.278,737.379h-87.449c-4.688,0-8.488-3.8-8.488-8.488v-28.292 c0-4.688,3.8-8.488,8.488-8.488h87.449c4.688,0,8.488,3.8,8.488,8.488v28.292C487.765,733.578,483.965,737.379,479.278,737.379z"></path> <path id="XMLID_145_" fill="#24316A" d="M514.257,852.605H34.319c-4.084,0-4.078-6.173,0-6.173h479.938 c1.705,0,3.086,1.382,3.086,3.086C517.344,851.222,515.963,852.605,514.257,852.605z"></path> </g> <defs> <filter id="Adobe_OpacityMaskFilter_4_" x="27.375" y="854.662" width="489.969" height="171.296"> <feColorMatrix type="matrix" values="1 0 0 0 0 0 1 0 0 0 0 0 1 0 0 0 0 0 1 0"></feColorMatrix> </filter> </defs> <mask maskUnits="userSpaceOnUse" x="27.375" y="854.662" width="489.969" height="171.296" id="XMLID_155_"> <g id="XMLID_374_" filter="url(#Adobe_OpacityMaskFilter_4_)"> <linearGradient id="XMLID_156_" gradientUnits="userSpaceOnUse" x1="322.1277" y1="589.3162" x2="322.1277" y2="1050.2212"> <stop offset="0" style="stop-color:#FFFFFF;stop-opacity:0.5"></stop> <stop offset="1" style="stop-color:#FFFFFF;stop-opacity:0"></stop> </linearGradient> <rect id="XMLID_375_" x="-18.921" y="847.975" fill="url(#XMLID_156_)" width="682.098" height="291.666"></rect> </g> </mask> <g id="XMLID_146_" mask="url(#XMLID_155_)"> <path id="XMLID_152_" fill="#24316A" d="M471.047,868.551H65.183c-20.881,0-37.809,16.927-37.809,37.809 c0,65.961,53.454,119.599,119.599,119.599h324.074c20.881,0,37.809-16.928,37.809-37.809v-81.79 C508.856,885.479,491.928,868.551,471.047,868.551z"></path> <path id="XMLID_151_" fill="#FFFFFF" d="M57.488,969.117h92.315c5.398,0,9.774,4.376,9.774,9.774v29.064 c0,5.398-4.376,9.774-9.774,9.774h-36.491c-1.139,0-34.727-11.366-57.543-45.451C54.869,970.933,55.87,969.117,57.488,969.117z"></path> <path id="XMLID_150_" fill="#FFFFFF" d="M262.2,969.889h-87.449c-4.688,0-8.488,3.8-8.488,8.488v28.292 c0,4.688,3.8,8.488,8.488,8.488H262.2c4.688,0,8.488-3.8,8.488-8.488v-28.292C270.687,973.689,266.887,969.889,262.2,969.889z"></path> <path id="XMLID_149_" fill="#FFFFFF" d="M370.739,969.889H283.29c-4.688,0-8.488,3.8-8.488,8.488v28.292 c0,4.688,3.8,8.488,8.488,8.488h87.449c4.688,0,8.488-3.8,8.488-8.488v-28.292C379.226,973.689,375.426,969.889,370.739,969.889z"></path> <path id="XMLID_148_" fill="#FFFFFF" d="M479.278,969.889h-87.449c-4.688,0-8.488,3.8-8.488,8.488v28.292 c0,4.688,3.8,8.488,8.488,8.488h87.449c4.688,0,8.488-3.8,8.488-8.488v-28.292C487.765,973.689,483.965,969.889,479.278,969.889z"></path> <path id="XMLID_147_" fill="#24316A" d="M514.257,854.662H34.319c-4.084,0-4.078,6.173,0,6.173h479.938 c1.705,0,3.086-1.382,3.086-3.086C517.344,856.045,515.963,854.662,514.257,854.662z"></path> </g> </g> <g id="XMLID_269_"> <g id="XMLID_203_"> <path id="XMLID_195_" fill="#24316A" stroke="#FFFFFF" stroke-width="9.2593" stroke-miterlimit="10" d="M1196.123,818.756 H765.567c-17.898,0-32.407-14.509-32.407-32.407v-74.074c0-51.137,41.455-92.593,92.593-92.593h370.37 c17.898,0,32.407,14.509,32.407,32.407v134.259C1228.53,804.246,1214.021,818.756,1196.123,818.756z"></path> <circle id="XMLID_196_" fill="#24316A" stroke="#FFFFFF" stroke-width="9.2593" stroke-miterlimit="10" cx="848.149" cy="808.346" r="35"></circle> <circle id="XMLID_198_" fill="#24316A" stroke="#FFFFFF" stroke-width="9.2593" stroke-miterlimit="10" cx="1133.974" cy="808.346" r="35"></circle> <path id="XMLID_197_" fill="#FFFFFF" d="M863.561,699.929h-81.79c-8.523,0-15.432-6.909-15.432-15.432v-8.873 c0-18.963,15.373-34.336,34.336-34.336h62.886c8.523,0,15.432,6.909,15.432,15.432v27.778 C878.993,693.019,872.084,699.929,863.561,699.929z"></path> <path id="XMLID_200_" fill="#FFFFFF" d="M978.53,699.929h-74.846c-8.097,0-14.661-6.564-14.661-14.66v-29.321 c0-8.097,6.564-14.66,14.661-14.66h74.846c8.097,0,14.661,6.564,14.661,14.66v29.321 C993.191,693.365,986.627,699.929,978.53,699.929z"></path> <path id="XMLID_201_" fill="#FFFFFF" d="M1089.641,699.929h-74.846c-8.097,0-14.661-6.564-14.661-14.66v-29.321 c0-8.097,6.564-14.66,14.661-14.66h74.846c8.097,0,14.661,6.564,14.661,14.66v29.321 C1104.302,693.365,1097.738,699.929,1089.641,699.929z"></path> <path id="XMLID_202_" fill="#FFFFFF" d="M1203.839,699.929h-74.846c-8.097,0-14.66-6.564-14.66-14.66v-29.321 c0-8.097,6.564-14.66,14.66-14.66h74.846c8.097,0,14.661,6.564,14.661,14.66v29.321 C1218.499,693.365,1211.936,699.929,1203.839,699.929z"></path> </g> <defs> <filter id="Adobe_OpacityMaskFilter_5_" x="728.53" y="859.292" width="504.629" height="232.923"> <feColorMatrix type="matrix" values="1 0 0 0 0 0 1 0 0 0 0 0 1 0 0 0 0 0 1 0"></feColorMatrix> </filter> </defs> <mask maskUnits="userSpaceOnUse" x="728.53" y="859.292" width="504.629" height="232.923" id="XMLID_166_"> <g id="XMLID_353_" filter="url(#Adobe_OpacityMaskFilter_5_)"> <linearGradient id="XMLID_167_" gradientUnits="userSpaceOnUse" x1="1019.1681" y1="437.9282" x2="1019.1681" y2="1068.726"> <stop offset="0" style="stop-color:#FFFFFF;stop-opacity:0.3"></stop> <stop offset="0.4247" style="stop-color:#FFFFFF;stop-opacity:0.1726"></stop> <stop offset="1" style="stop-color:#FFFFFF;stop-opacity:0"></stop> </linearGradient> <rect id="XMLID_354_" x="672.46" y="855.793" fill="url(#XMLID_167_)" width="693.415" height="399.177"></rect> </g> </mask> <g id="XMLID_205_" mask="url(#XMLID_166_)"> <path id="XMLID_212_" fill="#24316A" stroke="#FFFFFF" stroke-width="9.2593" stroke-miterlimit="10" d="M1196.123,888.511 H765.567c-17.898,0-32.407,14.509-32.407,32.407v74.074c0,51.137,41.455,92.592,92.593,92.592h370.37 c17.898,0,32.407-14.509,32.407-32.407V920.919C1228.53,903.021,1214.021,888.511,1196.123,888.511z"></path> <circle id="XMLID_211_" fill="#24316A" stroke="#FFFFFF" stroke-width="9.2593" stroke-miterlimit="10" cx="848.149" cy="898.921" r="35"></circle> <circle id="XMLID_210_" fill="#24316A" stroke="#FFFFFF" stroke-width="9.2593" stroke-miterlimit="10" cx="1133.974" cy="898.921" r="35"></circle> <path id="XMLID_209_" fill="#FFFFFF" d="M863.561,1007.339h-81.79c-8.523,0-15.432,6.909-15.432,15.432v8.873 c0,18.964,15.373,34.336,34.336,34.336h62.886c8.523,0,15.432-6.909,15.432-15.432v-27.778 C878.993,1014.248,872.084,1007.339,863.561,1007.339z"></path> <path id="XMLID_208_" fill="#FFFFFF" d="M978.53,1007.339h-74.846c-8.097,0-14.661,6.564-14.661,14.661v29.321 c0,8.097,6.564,14.661,14.661,14.661h74.846c8.097,0,14.661-6.564,14.661-14.661v-29.321 C993.191,1013.902,986.627,1007.339,978.53,1007.339z"></path> <path id="XMLID_207_" fill="#FFFFFF" d="M1089.641,1007.339h-74.846c-8.097,0-14.661,6.564-14.661,14.661v29.321 c0,8.097,6.564,14.661,14.661,14.661h74.846c8.097,0,14.661-6.564,14.661-14.661v-29.321 C1104.302,1013.902,1097.738,1007.339,1089.641,1007.339z"></path> <path id="XMLID_206_" fill="#FFFFFF" d="M1203.839,1007.339h-74.846c-8.097,0-14.66,6.564-14.66,14.661v29.321 c0,8.097,6.564,14.661,14.66,14.661h74.846c8.097,0,14.661-6.564,14.661-14.661v-29.321 C1218.499,1013.902,1211.936,1007.339,1203.839,1007.339z"></path> </g> </g> <g id="XMLID_1_"> <g id="XMLID_124_"> <path id="XMLID_125_" fill="#24316A" stroke="#FFFFFF" stroke-width="9.2593" stroke-miterlimit="10" d="M1332.487,1304.584 l395.469,40.266c5.382,0.548,7.614,7.178,3.659,10.869c-62.553,58.383-58.346,55.35-61.786,55.35 c-279.916,0-263.581,1.12-266.383-2.321l-76.48-93.923C1323.424,1310.476,1326.907,1304.016,1332.487,1304.584z"></path> <path id="XMLID_129_" fill="#24316A" stroke="#FFFFFF" stroke-width="9.2593" stroke-miterlimit="10" d="M1644.14,1336.316 c7.214-28.665,7.343-27.736,6.205-28.023l-157.917-39.745c-6.016-1.514-12.121,2.135-13.635,8.152l-10.498,41.712 L1644.14,1336.316z"></path> <path id="XMLID_130_" fill="#24316A" d="M1627.483,1302.601c9.569,2.468,19.212-3.74,20.925-13.473 c0.151-0.855,0.549-2.038-0.284-2.253l-128.96-33.264c-4.913-1.267-9.72,2.388-10.737,8.164l-1.703,9.677L1627.483,1302.601z"></path> </g> <defs> <filter id="Adobe_OpacityMaskFilter_6_" x="1320.905" y="1408.323" width="417.348" height="162.513"> <feColorMatrix type="matrix" values="1 0 0 0 0 0 1 0 0 0 0 0 1 0 0 0 0 0 1 0"></feColorMatrix> </filter> </defs> <mask maskUnits="userSpaceOnUse" x="1320.905" y="1408.323" width="417.348" height="162.513" id="XMLID_204_"> <g id="XMLID_393_" filter="url(#Adobe_OpacityMaskFilter_6_)"> <linearGradient id="XMLID_214_" gradientUnits="userSpaceOnUse" x1="1621.899" y1="1164.6707" x2="1621.899" y2="1501.8307"> <stop offset="0" style="stop-color:#FFFFFF;stop-opacity:0.4"></stop> <stop offset="1" style="stop-color:#FFFFFF;stop-opacity:0"></stop> </linearGradient> <rect id="XMLID_394_" x="1272.105" y="1412.098" fill="url(#XMLID_214_)" width="699.588" height="310.699"></rect> </g> </mask> <g id="XMLID_131_" mask="url(#XMLID_204_)"> <path id="XMLID_134_" fill="#24316A" stroke="#FFFFFF" stroke-width="9.2593" stroke-miterlimit="10" d="M1332.487,1519.613 l395.469-40.266c5.382-0.548,7.614-7.178,3.659-10.869c-62.553-58.383-58.346-55.351-61.786-55.351 c-279.916,0-263.581-1.12-266.383,2.321l-76.48,93.923C1323.424,1513.72,1326.907,1520.181,1332.487,1519.613z"></path> <path id="XMLID_133_" fill="#24316A" stroke="#FFFFFF" stroke-width="9.2593" stroke-miterlimit="10" d="M1644.14,1487.881 c7.214,28.665,7.343,27.736,6.205,28.023l-157.917,39.745c-6.016,1.514-12.121-2.135-13.635-8.152l-10.498-41.712 L1644.14,1487.881z"></path> <path id="XMLID_132_" fill="#24316A" d="M1627.483,1521.596c9.569-2.468,19.212,3.74,20.925,13.473 c0.151,0.855,0.549,2.037-0.284,2.253l-128.96,33.265c-4.913,1.267-9.72-2.388-10.737-8.164l-1.703-9.677L1627.483,1521.596z"></path> </g> </g> <g> <g id="XMLID_153_"> <path id="XMLID_199_" fill="#24316A" d="M50.733,1383.068h419.283c10.684,0,19.814-7.406,22.36-17.782 c0.198-0.808,0.371-1.347,0.502-1.498l14.012-16.139c8.333-9.598,4.009-23.953-8.48-28.151 c-3.473-1.167-204.032-68.588-198.046-66.576c-23.664-7.955-49.736-7.045-72.689,2.537c-71.509,29.852-66.76,28.079-69.751,28.61 l-45.327,8.051c-37.615,6.681-70.878,31.033-85.081,67.56c-0.135,0.347-0.169,0.973-0.124,1.803 C28.052,1373.687,38.511,1383.068,50.733,1383.068z"></path> <circle id="XMLID_154_" fill="#24316A" stroke="#FFFFFF" stroke-width="3.0864" stroke-miterlimit="10" cx="134.939" cy="1371.865" r="37.147"></circle> <circle id="XMLID_157_" fill="#24316A" stroke="#FFFFFF" stroke-width="3.0864" stroke-miterlimit="10" cx="432.704" cy="1371.865" r="37.147"></circle> <path id="XMLID_160_" fill="#FFFFFF" d="M290.535,1256.408c-18.651-6.132-39.201-5.431-57.292,1.956 c-59.979,24.49-50.932,21.353-60.313,22.982v2.663h183.616c3.266,0,4-4.583,0.897-5.603L290.535,1256.408z"></path> </g> <defs> <filter id="Adobe_OpacityMaskFilter_7_" x="27.375" y="1413.642" width="483.806" height="163.005"> <feColorMatrix type="matrix" values="1 0 0 0 0 0 1 0 0 0 0 0 1 0 0 0 0 0 1 0"></feColorMatrix> </filter> </defs> <mask maskUnits="userSpaceOnUse" x="27.375" y="1413.642" width="483.806" height="163.005" id="XMLID_226_"> <g id="XMLID_338_" filter="url(#Adobe_OpacityMaskFilter_7_)"> <linearGradient id="XMLID_267_" gradientUnits="userSpaceOnUse" x1="311.8012" y1="1079.6844" x2="311.8012" y2="1560.9116"> <stop offset="0" style="stop-color:#FFFFFF;stop-opacity:0.3"></stop> <stop offset="1" style="stop-color:#FFFFFF;stop-opacity:0"></stop> </linearGradient> <rect id="XMLID_339_" x="23.736" y="1410.029" fill="url(#XMLID_267_)" width="576.131" height="304.527"></rect> </g> </mask> <g id="XMLID_161_" mask="url(#XMLID_226_)"> <path id="XMLID_165_" fill="#24316A" d="M50.733,1441.129h419.283c10.684,0,19.814,7.406,22.36,17.782 c0.198,0.808,0.371,1.347,0.502,1.498l14.012,16.139c8.333,9.598,4.009,23.953-8.48,28.151 c-3.473,1.167-204.032,68.588-198.046,66.576c-23.664,7.955-49.736,7.045-72.689-2.537c-71.509-29.852-66.76-28.079-69.751-28.61 l-45.327-8.051c-37.615-6.681-70.878-31.033-85.081-67.56c-0.135-0.347-0.169-0.973-0.124-1.803 C28.052,1450.51,38.511,1441.129,50.733,1441.129z"></path> <circle id="XMLID_164_" fill="#24316A" stroke="#FFFFFF" stroke-width="3.0864" stroke-miterlimit="10" cx="134.939" cy="1452.332" r="37.147"></circle> <circle id="XMLID_163_" fill="#24316A" stroke="#FFFFFF" stroke-width="3.0864" stroke-miterlimit="10" cx="432.704" cy="1452.332" r="37.147"></circle> <path id="XMLID_162_" fill="#FFFFFF" d="M290.535,1567.789c-18.651,6.132-39.201,5.431-57.292-1.956 c-59.979-24.49-50.932-21.353-60.313-22.982v-2.663h183.616c3.266,0,4,4.583,0.897,5.603L290.535,1567.789z"></path> </g> </g> <g id="XMLID_225_"> <g id="XMLID_224_"> <g id="XMLID_174_"> <circle id="XMLID_218_" fill="#24316A" cx="1030.338" cy="1360.698" r="49.23"></circle> <path id="XMLID_219_" fill="#FFFFFF" d="M1030.336,1412.098c-28.341,0-51.401-23.06-51.401-51.401 c0-28.341,23.06-51.401,51.401-51.401c28.345,0,51.405,23.06,51.405,51.401 C1081.741,1389.039,1058.682,1412.098,1030.336,1412.098z M1030.336,1313.641c-25.948,0-47.057,21.108-47.057,47.057 c0,25.948,21.108,47.057,47.057,47.057s47.061-21.108,47.061-47.057C1077.397,1334.749,1056.285,1313.641,1030.336,1313.641z"></path> </g> <g id="XMLID_176_"> <path id="XMLID_213_" fill="#24316A" d="M843.149,1355.952c12.563-39.238-18.334-78.537-59.138-76.028 c-27.331,1.68-49.042,21.932-53.769,47.706C767.409,1295.733,825.296,1309.96,843.149,1355.952z"></path> <path id="XMLID_215_" fill="#FFFFFF" d="M843.348,1362.458c-3.088-7.95-8.153-23.242-25.062-35.96 c-25.753-19.369-62.188-18.198-86.631,2.783l-4.658,3.996l1.107-6.036c8.559-46.654,64.627-65.327,99.59-34.416 c18.138,16.036,24.838,40.906,17.524,63.787L843.348,1362.458z M820.899,1323.029L820.899,1323.029 c9.222,6.936,16.65,15.958,21.736,26.343c3.904-18.86-2.102-39.399-17.817-53.288c-30.674-27.123-79.33-13.324-91.017,25.995 C759.45,1303.703,795.115,1303.638,820.899,1323.029z"></path> </g> <g id="XMLID_177_"> <path id="XMLID_190_" fill="#24316A" d="M1076.428,1252.815c2.684-1.065,3.661-4.344,2.044-6.737l-9.557-14.148 c-1.851-2.74,5.012-1.962-110.69-0.982c-15.083,0.128-29.022,6.585-38.37,16.462c-2.412,2.548-1.089,6.735,2.378,7.278 C963.504,1261.151,1037.829,1268.13,1076.428,1252.815z"></path> <path id="XMLID_191_" fill="#FFFFFF" d="M921.897,1256.836c-5.222-0.82-7.215-7.115-3.618-10.919 c9.708-10.266,24.283-17.01,39.93-17.142l107.094-0.908c2.286-0.013,4.191,1.048,5.413,2.846 c10.056,14.892,11.639,15.92,10.414,19.895c-1.035,3.379-3.288,4.601-13.668,7.39l0,0 C1026.657,1268.987,963.82,1263.394,921.897,1256.836z M958.243,1233.119c-14.544,0.122-28.003,6.452-36.808,15.785 c-1.234,1.304-0.574,3.376,1.133,3.64c28.226,4.416,98.742,13.375,143.766,1.264l0,0c3.534-0.954,6.66-1.964,9.294-3.012 c1.4-0.553,1.884-2.257,1.043-3.5l-9.553-14.147C1066.173,1231.751,1072.66,1232.149,958.243,1233.119z"></path> </g> <g id="XMLID_175_"> <path id="XMLID_186_" fill="#24316A" d="M1093.318,1268.05l-11.864-17.559c-35.405,19.354-126.089,10.025-166.537,2.994 c-7.532,10.783-10.778,24.21-8.578,37.558l2.89,17.529H842.76c-18.199-12.611-31.074-32.454-34.516-55.468l-5.619-37.57 c-0.418-2.793-4.345-3.053-5.127-0.339l-17.358,60.259c-2.574,8.937,2.495,18.287,11.389,21.006 c24.748,7.566,43.649,28.385,48.314,54.477l2.263,12.658c10.782,0,238.714,0,249.814,0 C1112.542,1334.839,1112.726,1296.774,1093.318,1268.05z"></path> <path id="XMLID_187_" fill="#FFFFFF" d="M1093.033,1365.767H840.285l-2.583-14.448c-4.484-25.1-22.419-45.326-46.811-52.779 c-9.965-3.05-15.725-13.672-12.841-23.688l17.358-60.258c1.439-4.96,8.597-4.476,9.362,0.615l5.621,37.572 c3.228,21.558,15.259,41.063,33.05,53.619h63.232c-2.891-17.512-7.752-33.865,7.254-55.291 c41.738,7.281,131.281,16.755,168.218-3.474l12.972,19.199C1114.091,1294.916,1115.788,1333.94,1093.033,1365.767z M843.925,1361.423h246.869c19.153-27.497,19.488-64.385,0.725-92.154l-10.787-15.967 c-37.316,18.071-121.381,9.946-164.807,2.562c-6.804,10.334-9.447,22.648-7.445,34.827l3.309,20.052h-69.709 c-20.283-13.983-32.647-35.012-35.981-57.318l-5.621-37.572c-0.017-0.11-0.055-0.365-0.424-0.386 c-0.416-0.085-0.441,0.225-0.471,0.331l-17.358,60.258c-2.231,7.746,2.223,15.971,9.939,18.326 c25.953,7.937,45.042,29.461,49.814,56.173L843.925,1361.423z"></path> </g> <g id="XMLID_183_"> <path id="XMLID_223_" fill="#24316A" d="M794.672,1214.609l-8.936-4.821c-2.535-1.368-5.692-0.123-6.61,2.608l-6.286,18.682 c-0.909,2.702,0.807,5.578,3.616,6.061l10.799,1.858c1.836,0.316,3.615-0.8,4.13-2.589l5.062-17.573 C796.924,1217.184,796.185,1215.425,794.672,1214.609z"></path> </g> <g id="XMLID_171_"> <circle id="XMLID_178_" fill="#24316A" cx="779.843" cy="1360.698" r="49.23"></circle> <path id="XMLID_182_" fill="#FFFFFF" d="M779.845,1412.098c-28.345,0-51.405-23.06-51.405-51.401 c0-28.341,23.06-51.401,51.405-51.401c28.341,0,51.401,23.06,51.401,51.401C831.245,1389.039,808.186,1412.098,779.845,1412.098z M779.845,1313.641c-25.948,0-47.061,21.108-47.061,47.057c0,25.948,21.113,47.057,47.061,47.057 c25.948,0,47.057-21.108,47.057-47.057C826.901,1334.749,805.793,1313.641,779.845,1313.641z"></path> </g> <g id="XMLID_173_"> <ellipse id="XMLID_158_" transform="matrix(0.3035 -0.9528 0.9528 0.3035 -623.9694 1586.2943)" fill="#24316A" cx="773.011" cy="1219.93" rx="17.739" ry="5.068"></ellipse> <path id="XMLID_169_" fill="#FFFFFF" d="M766.97,1238.905c-9.233-2.951,2.933-40.896,12.081-37.949 C788.227,1203.889,776.206,1241.884,766.97,1238.905z M777.681,1205.266c-5.04,3.186-11.597,23.839-9.341,29.329 c1.349-0.853,4.704-5.222,7.428-13.782l0,0C778.496,1212.244,778.288,1206.742,777.681,1205.266z"></path> </g> <g id="XMLID_179_"> <path id="XMLID_222_" fill="none" stroke="#24316A" stroke-width="3.0864" stroke-miterlimit="10" d="M846.72,1253.188"></path> </g> <g id="XMLID_180_"> <path id="XMLID_168_" fill="#24316A" d="M825.103,1222.272c-12.413-6.318-13.207-7.38-15.466-5.748l-6.164,4.484 c-2.333,1.688-4.871-1.833-2.554-3.512l6.164-4.484c2.384-1.735,5.502-1.994,8.14-0.641l11.848,6.032 c1.069,0.543,1.497,1.849,0.95,2.918C827.476,1222.4,826.159,1222.814,825.103,1222.272z"></path> </g> <g id="XMLID_181_"> <path id="XMLID_159_" fill="#24316A" d="M834.63,1230.23l-21.359-11.403c-2.117-1.128-2.919-3.758-1.786-5.875 c1.128-2.121,3.771-2.914,5.875-1.786l21.359,11.403c2.117,1.128,2.919,3.758,1.786,5.875 C839.373,1230.574,836.729,1231.355,834.63,1230.23z"></path> </g> </g> <defs> <filter id="Adobe_OpacityMaskFilter_8_" x="726.998" y="1412.098" width="382.722" height="211.306"> <feColorMatrix type="matrix" values="1 0 0 0 0 0 1 0 0 0 0 0 1 0 0 0 0 0 1 0"></feColorMatrix> </filter> </defs> <mask maskUnits="userSpaceOnUse" x="726.998" y="1412.098" width="382.722" height="211.306" id="XMLID_268_"> <g id="XMLID_74_" filter="url(#Adobe_OpacityMaskFilter_8_)"> <linearGradient id="XMLID_270_" gradientUnits="userSpaceOnUse" x1="942.8816" y1="976.053" x2="942.8816" y2="1623.1084"> <stop offset="0" style="stop-color:#FFFFFF"></stop> <stop offset="0.0801" style="stop-color:#FFFFFF;stop-opacity:0.9199"></stop> <stop offset="1" style="stop-color:#FFFFFF;stop-opacity:0"></stop> </linearGradient> <rect id="XMLID_120_" x="630.125" y="1413.406" fill="url(#XMLID_270_)" width="625.514" height="409.465"></rect> </g> </mask> <g id="XMLID_227_" mask="url(#XMLID_268_)"> <g id="XMLID_262_"> <circle id="XMLID_266_" fill="#24316A" cx="1030.338" cy="1463.499" r="49.23"></circle> <path id="XMLID_263_" fill="#FFFFFF" d="M1081.741,1463.499c0,28.341-23.06,51.401-51.405,51.401 c-28.341,0-51.401-23.06-51.401-51.401s23.06-51.401,51.401-51.401C1058.682,1412.098,1081.741,1435.158,1081.741,1463.499z M1077.397,1463.499c0-25.948-21.113-47.057-47.061-47.057s-47.057,21.108-47.057,47.057s21.108,47.057,47.057,47.057 S1077.397,1489.448,1077.397,1463.499z"></path> </g> <g id="XMLID_257_"> <path id="XMLID_261_" fill="#24316A" d="M843.149,1468.245c12.563,39.238-18.334,78.537-59.138,76.028 c-27.331-1.68-49.042-21.932-53.769-47.706C767.409,1528.464,825.296,1514.237,843.149,1468.245z"></path> <path id="XMLID_258_" fill="#FFFFFF" d="M848.023,1489.728c-2.052,33.362-30.672,58.733-64.144,56.712 c-27.811-1.709-50.743-22.058-55.774-49.483l-1.107-6.036l4.658,3.996c35.271,30.276,91.882,17.828,109.47-27.454l2.223-5.722 C845.594,1468.757,848.795,1477.179,848.023,1489.728z M733.802,1502.118c11.686,39.317,60.351,53.111,91.017,25.995 c15.713-13.887,21.721-34.426,17.817-53.288c-5.086,10.384-12.514,19.407-21.736,26.343l0,0 C795.078,1520.586,759.413,1520.467,733.802,1502.118z"></path> </g> <g id="XMLID_252_"> <path id="XMLID_256_" fill="#24316A" d="M1076.428,1571.382c2.684,1.065,3.661,4.344,2.044,6.737l-9.557,14.148 c-1.851,2.74,5.012,1.962-110.69,0.982c-15.083-0.128-29.022-6.585-38.37-16.462c-2.412-2.548-1.089-6.735,2.378-7.278 C963.504,1563.045,1037.829,1556.066,1076.428,1571.382z"></path> <path id="XMLID_253_" fill="#FFFFFF" d="M1067.463,1566.198L1067.463,1566.198c10.247,2.753,12.625,3.987,13.668,7.39 c1.226,3.981-0.365,5.012-10.414,19.895c-1.222,1.799-3.126,2.859-5.413,2.846l-107.094-0.908 c-15.643-0.132-30.219-6.873-39.93-17.142c-3.595-3.802-1.606-10.099,3.618-10.919 C963.847,1560.799,1026.668,1555.213,1067.463,1566.198z M1076.672,1576.901c0.836-1.236,0.363-2.944-1.043-3.5 c-2.634-1.048-5.761-2.057-9.294-3.012l0,0c-45.025-12.111-115.54-3.152-143.766,1.264c-1.708,0.264-2.365,2.337-1.133,3.64 c8.8,9.327,22.252,15.662,36.808,15.785c0.028,0,107.088,0.908,107.115,0.908 C1066.895,1591.986,1066.354,1592.181,1076.672,1576.901z"></path> </g> <g id="XMLID_247_"> <path id="XMLID_251_" fill="#24316A" d="M1093.318,1556.147l-11.864,17.559c-35.405-19.354-126.089-10.026-166.537-2.994 c-7.532-10.783-10.778-24.21-8.578-37.558l2.89-17.529H842.76c-18.199,12.611-31.074,32.454-34.516,55.468l-5.619,37.57 c-0.418,2.793-4.345,3.053-5.127,0.339l-17.358-60.259c-2.574-8.937,2.495-18.287,11.389-21.006 c24.748-7.566,43.649-28.385,48.314-54.477l2.263-12.658c10.782,0,238.714,0,249.814,0 C1112.542,1489.358,1112.726,1527.423,1093.318,1556.147z"></path> <path id="XMLID_248_" fill="#FFFFFF" d="M1095.116,1557.362l-12.972,19.199c-36.934-20.228-126.471-10.757-168.218-3.474 c-15.048-21.486-10.118-37.944-7.254-55.291h-63.232c-17.791,12.556-29.821,32.061-33.05,53.619l-5.621,37.572 c-0.764,5.086-7.922,5.579-9.362,0.615l-17.358-60.258c-2.885-10.016,2.876-20.637,12.841-23.688 c24.392-7.453,42.327-27.679,46.811-52.779l2.583-14.448h252.748C1115.675,1490.099,1114.192,1529.132,1095.116,1557.362z M841.978,1473.642c-4.772,26.712-23.861,48.236-49.814,56.173c-7.716,2.354-12.17,10.58-9.939,18.326l17.358,60.258 c0.03,0.106,0.055,0.416,0.471,0.331c0.369-0.021,0.407-0.276,0.424-0.386l5.621-37.572 c3.328-22.268,15.665-43.313,35.981-57.318h69.709c-3.372,20.433-8.257,36.057,4.136,54.879 c43.168-7.34,127.447-15.53,164.807,2.562l10.787-15.967c18.762-27.768,18.427-64.657-0.725-92.154H843.925L841.978,1473.642z"></path> </g> <g id="XMLID_245_"> <path id="XMLID_246_" fill="#24316A" d="M794.672,1609.588l-8.936,4.821c-2.535,1.368-5.692,0.123-6.61-2.608l-6.286-18.682 c-0.909-2.702,0.807-5.578,3.616-6.061l10.799-1.858c1.836-0.316,3.615,0.8,4.13,2.589l5.062,17.573 C796.924,1607.013,796.185,1608.772,794.672,1609.588z"></path> </g> <g id="XMLID_240_"> <circle id="XMLID_244_" fill="#24316A" cx="779.843" cy="1463.499" r="49.23"></circle> <path id="XMLID_241_" fill="#FFFFFF" d="M831.245,1463.499c0,28.341-23.06,51.401-51.401,51.401 c-28.345,0-51.405-23.06-51.405-51.401s23.06-51.401,51.405-51.401C808.186,1412.098,831.245,1435.158,831.245,1463.499z M826.901,1463.499c0-25.948-21.108-47.057-47.057-47.057c-25.948,0-47.061,21.108-47.061,47.057s21.113,47.057,47.061,47.057 C805.793,1510.556,826.901,1489.448,826.901,1463.499z"></path> </g> <g id="XMLID_235_"> <ellipse id="XMLID_239_" transform="matrix(0.9528 -0.3035 0.3035 0.9528 -450.374 310.2239)" fill="#24316A" cx="773.011" cy="1604.266" rx="5.068" ry="17.739"></ellipse> <path id="XMLID_236_" fill="#FFFFFF" d="M779.051,1623.241c-9.538,3.072-22.258-38.136-10.906-38.136 C776.845,1585.105,788.03,1620.371,779.051,1623.241z M775.768,1603.384L775.768,1603.384c-2.723-8.56-6.079-12.93-7.428-13.782 c-2.257,5.492,4.303,26.145,9.341,29.329C778.288,1617.455,778.496,1611.953,775.768,1603.384z"></path> </g> <g id="XMLID_233_"> <path id="XMLID_234_" fill="none" stroke="#24316A" stroke-width="3.0864" stroke-miterlimit="10" d="M846.72,1571.009"></path> </g> <g id="XMLID_230_"> <path id="XMLID_232_" fill="#24316A" d="M825.103,1601.925c-12.413,6.318-13.207,7.38-15.466,5.748l-6.164-4.484 c-2.333-1.688-4.871,1.833-2.554,3.512l6.164,4.484c2.384,1.735,5.502,1.994,8.14,0.641l11.848-6.032 c1.069-0.543,1.497-1.85,0.95-2.919C827.476,1601.797,826.159,1601.383,825.103,1601.925z"></path> </g> <g id="XMLID_228_"> <path id="XMLID_229_" fill="#24316A" d="M834.63,1593.967l-21.359,11.403c-2.117,1.128-2.919,3.758-1.786,5.875 c1.128,2.121,3.771,2.914,5.875,1.786l21.359-11.402c2.117-1.128,2.919-3.758,1.786-5.875 C839.373,1593.622,836.729,1592.842,834.63,1593.967z"></path> </g> </g> </g> </svg> 