<?xml version="1.0" encoding="UTF-8" standalone="no"?>
<!-- Created with Inkscape (http://www.inkscape.org/) -->

<svg
   xmlns:dc="http://purl.org/dc/elements/1.1/"
   xmlns:cc="http://creativecommons.org/ns#"
   xmlns:rdf="http://www.w3.org/1999/02/22-rdf-syntax-ns#"
   xmlns:svg="http://www.w3.org/2000/svg"
   xmlns="http://www.w3.org/2000/svg"
   xmlns:sodipodi="http://sodipodi.sourceforge.net/DTD/sodipodi-0.dtd"
   xmlns:inkscape="http://www.inkscape.org/namespaces/inkscape"
   width="442.13831mm"
   height="173.0334mm"
   viewBox="0 0 442.13831 173.0334"
   version="1.1"
   id="svg8"
   inkscape:version="0.92.5 (2060ec1f9f, 2020-04-08)">
  <defs
     id="defs2" />
  <sodipodi:namedview
     id="base"
     pagecolor="#ffffff"
     bordercolor="#666666"
     borderopacity="1.0"
     inkscape:pageopacity="0.0"
     inkscape:pageshadow="2"
     inkscape:zoom="0.35"
     inkscape:cx="481.85244"
     inkscape:cy="310.86658"
     inkscape:document-units="mm"
     inkscape:current-layer="layer1"
     showgrid="false"
     fit-margin-top="0"
     fit-margin-left="0"
     fit-margin-right="0"
     fit-margin-bottom="0"
     inkscape:window-width="1920"
     inkscape:window-height="1136"
     inkscape:window-x="0"
     inkscape:window-y="27"
     inkscape:window-maximized="1" />
  <metadata
     id="metadata5">
    <rdf:RDF>
      <cc:Work
         rdf:about="">
        <dc:format>image/svg+xml</dc:format>
        <dc:type
           rdf:resource="http://purl.org/dc/dcmitype/StillImage" />
        <dc:title></dc:title>
      </cc:Work>
    </rdf:RDF>
  </metadata>
  <g
     inkscape:label="Layer 1"
     inkscape:groupmode="layer"
     id="layer1"
     transform="translate(158.86215,-58.050044)">
    <path
       style="fill:#000000;stroke-width:0.35277778"
       d="m -71.932827,229.70889 c 1.446975,-2.11723 2.600706,-4.53062 4.283019,-8.95929 1.521103,-4.00428 4.894657,-15.11338 4.652535,-15.32078 -0.06862,-0.0588 -2.420761,-1.41586 -5.226995,-3.01575 -9.984539,-5.69237 -23.681003,-14.45969 -33.424982,-21.39586 l -3.60223,-2.56421 -1.61343,3.40597 c -2.7202,5.7424 -5.78559,9.9805 -10.91148,15.08582 -2.53677,2.52658 -6.12043,5.6627 -7.96369,6.96915 -4.56338,3.23437 -12.53451,7.17916 -18.52084,9.16568 -4.27419,1.41836 -12.72999,3.43665 -14.39811,3.43665 -0.41494,0 -0.21653,-0.55076 0.80286,-2.22872 6.80891,-11.20769 11.61331,-25.76739 13.64113,-41.33934 0.75229,-5.77689 0.8604,-20.80807 0.19031,-26.45833 -1.93403,-16.30797 -6.93268,-31.74048 -13.91623,-42.96411 -0.57805,-0.92901 -0.96157,-1.77854 -0.85226,-1.88784 0.27467,-0.27468 4.68317,0.47334 8.73905,1.48281 19.50518,4.85464 34.90465,16.43057 42.79373,32.16844 0.89968,1.79476 1.72465,3.2632 1.83327,3.2632 0.10863,0 2.4486,-1.63856 5.19993,-3.64125 6.309573,-4.59271 15.615985,-10.9027 21.663058,-14.68811 l 4.666178,-2.92099 -1.1384,-1.586 c -2.118197,-2.95105 -6.244717,-7.98519 -9.078471,-11.07526 -1.550808,-1.69108 -2.819651,-3.16618 -2.819651,-3.27799 0,-0.11181 12.932456,-9.902917 28.738792,-21.758017 l 28.738795,-21.554719 2.923011,0.58477 c 9.137209,1.82796 21.206895,7.467419 32.027185,14.964439 3.16574,2.19344 11.577092,8.85957 15.265912,12.09849 l 1.68396,1.47858 4.66604,0.28442 c 39.49509,2.40748 73.035521,15.472517 100.643081,39.203607 4.38725,3.77122 13.99785,13.24599 13.84081,13.6452 -0.0572,0.14536 -5.54857,6.0319 -12.20308,13.0812 l -12.09912,12.8169 9.36961,9.37443 9.36961,9.37444 -2.56216,2.15023 c -20.8066,17.46152 -64.496011,36.27941 -97.287901,41.9038 -8.7083,1.49363 -11.87185,1.76892 -20.10343,1.74942 -6.330012,-0.015 -8.973442,-0.17635 -13.052782,-0.79674 -6.51655,-0.99102 -12.825089,-2.42317 -19.814672,-4.49826 l -5.527174,-1.64094 -5.05616,1.45336 c -10.910672,3.1362 -23.392229,4.89031 -39.564603,5.56026 l -5.933444,0.2458 z M 84.515479,157.98424 c 10.24865,-3.19993 17.164311,-14.33213 15.18547,-24.44417 -1.48331,-7.57985 -7.78073,-14.60057 -15.13444,-16.87273 -2.93315,-0.90629 -3.57055,-0.85572 -1.10936,0.088 2.75703,1.05717 5.96983,4.32948 7.02608,7.15622 1.72443,4.61491 0.77394,9.82238 -2.43335,13.33167 -4.15567,4.54696 -10.006,5.61148 -15.56242,2.83172 -9.20826,-4.60671 -9.26276,-17.91238 -0.0936,-22.85481 2.82258,-1.52146 0.11678,-0.77477 -3.38865,0.93512 -4.17814,2.03802 -7.83336,5.69625 -9.8329,9.84098 -1.74689,3.62101 -2.23037,5.64162 -2.23037,9.3214 0,3.71916 0.48665,5.72907 2.26353,9.34861 2.82932,5.76336 8.7373,10.39513 15.07947,11.82207 2.915,0.65585 7.19017,0.4452 10.23055,-0.5041 z m -9.26776,-41.87 c -0.11723,-0.11722 -0.4215,-0.12975 -0.67616,-0.0278 -0.28142,0.11261 -0.19783,0.1962 0.21313,0.21313 0.37189,0.0153 0.58025,-0.0681 0.46303,-0.18529 z"
       id="path935"
       inkscape:connector-curvature="0"
       sodipodi:nodetypes="csccscsccsssssscsssscccssscsssccscsccccsscccsscccsscccscccscsccccccc" />
    <path
       style="fill:#000000;stroke-width:0.10070178"
       d="m 169.40718,181.62088 c 0.41304,-0.60437 0.74238,-1.29328 1.2226,-2.55746 0.43421,-1.14304 1.3972,-4.31418 1.32809,-4.37338 -0.0196,-0.0168 -0.69102,-0.40416 -1.49207,-0.86086 -2.85012,-1.62491 -6.75983,-4.12757 -9.54129,-6.10753 l -1.02827,-0.73196 -0.46056,0.97225 c -0.77649,1.63919 -1.65152,2.84897 -3.11472,4.3063 -0.72413,0.72122 -1.7471,1.61644 -2.27327,1.98937 -1.30263,0.92327 -3.57802,2.04932 -5.28684,2.61638 -1.22009,0.40488 -3.63383,0.98101 -4.11,0.98101 -0.11844,0 -0.0618,-0.15722 0.22918,-0.6362 1.94363,-3.19928 3.31507,-7.3554 3.89391,-11.80047 0.21475,-1.64904 0.24561,-5.93975 0.0543,-7.55264 -0.55208,-4.65517 -1.97896,-9.06044 -3.97244,-12.26427 -0.16501,-0.26519 -0.27449,-0.50769 -0.24328,-0.53889 0.0784,-0.0784 1.33683,0.13512 2.49459,0.42328 5.56783,1.38577 9.96367,4.69016 12.21563,9.1826 0.25682,0.51232 0.49231,0.93149 0.52332,0.93149 0.031,0 0.69896,-0.46773 1.48434,-1.03941 1.80109,-1.311 4.45764,-3.11221 6.1838,-4.19277 l 1.33198,-0.83381 -0.32496,-0.45273 c -0.60465,-0.84239 -1.78258,-2.2794 -2.59148,-3.16148 -0.44269,-0.48272 -0.80488,-0.90379 -0.80488,-0.93571 0,-0.0319 3.69162,-2.82683 8.2036,-6.21091 l 8.20359,-6.15288 0.83439,0.16693 c 2.60825,0.52179 6.05359,2.1316 9.14228,4.27165 0.90368,0.62613 3.30473,2.529 4.35772,3.45356 l 0.48069,0.42207 1.33194,0.0812 c 11.27402,0.68722 20.84827,4.41669 28.72895,11.19082 1.25237,1.07651 3.99575,3.78112 3.95092,3.89508 -0.0163,0.0415 -1.58386,1.72182 -3.48341,3.73407 l -3.45375,3.65864 2.67459,2.67597 2.6746,2.67597 -0.73138,0.61379 c -5.93933,4.98445 -18.41064,10.35609 -27.77121,11.9616 -2.48582,0.42636 -3.38887,0.50494 -5.7386,0.49938 -1.80693,-0.004 -2.56151,-0.0503 -3.72597,-0.22744 -1.86017,-0.28289 -3.66097,-0.6917 -5.65617,-1.28404 l -1.57776,-0.46841 -1.4433,0.41486 c -3.11449,0.89524 -6.6774,1.39596 -11.29387,1.5872 l -1.69372,0.0702 z m 44.65877,-20.47408 c 2.92552,-0.91343 4.89962,-4.09116 4.33476,-6.97768 -0.42342,-2.1637 -2.22104,-4.16779 -4.32019,-4.81639 -0.83728,-0.2587 -1.01923,-0.24426 -0.31667,0.0251 0.787,0.30178 1.70411,1.23587 2.00562,2.04277 0.49225,1.31735 0.22093,2.80384 -0.69461,3.80558 -1.18625,1.29795 -2.85625,1.60182 -4.44235,0.80833 -2.62854,-1.31501 -2.64409,-5.11316 -0.0267,-6.524 0.80571,-0.4343 0.0333,-0.22116 -0.96731,0.26694 -1.19266,0.58176 -2.23606,1.62601 -2.80683,2.80914 -0.49866,1.03363 -0.63667,1.61042 -0.63667,2.66083 0,1.06165 0.13891,1.63539 0.64613,2.6686 0.80764,1.64517 2.4941,2.96733 4.30449,3.37465 0.8321,0.18722 2.05247,0.12709 2.92035,-0.14389 z m -2.64552,-11.95195 c -0.0335,-0.0335 -0.12032,-0.037 -0.19301,-0.008 -0.0803,0.0321 -0.0565,0.056 0.0608,0.0608 0.10616,0.004 0.16563,-0.0194 0.13217,-0.0529 z"
       id="path935-3"
       inkscape:connector-curvature="0"
       sodipodi:nodetypes="csccscsccsssssscsssscccssscsssccscsccccsscccsscccsscccscccscsccccccc" />
    <path
       style="fill:#000000;stroke-width:0.05010906"
       d="m 252.94639,172.12192 c 0.20553,-0.30074 0.3694,-0.64354 0.60836,-1.27259 0.21606,-0.56878 0.69525,-2.14673 0.66086,-2.17619 -0.01,-0.008 -0.34385,-0.20111 -0.74246,-0.42836 -1.41821,-0.80855 -3.36368,-2.05388 -4.74773,-3.0391 l -0.51166,-0.36422 -0.22918,0.48379 c -0.38638,0.81565 -0.82179,1.41764 -1.54988,2.14281 -0.36033,0.35888 -0.86935,0.80433 -1.13117,0.9899 -0.64819,0.45942 -1.78042,1.01974 -2.63073,1.30191 -0.60711,0.20147 -1.80819,0.48815 -2.04513,0.48815 -0.0589,0 -0.0307,-0.0782 0.11404,-0.31657 0.96715,-1.59196 1.64957,-3.66004 1.93761,-5.8719 0.10685,-0.82056 0.12221,-2.95561 0.027,-3.75818 -0.27471,-2.31641 -0.98473,-4.50847 -1.97668,-6.10269 -0.0821,-0.13195 -0.13658,-0.25262 -0.12106,-0.26815 0.039,-0.039 0.66521,0.0672 1.24131,0.21062 2.77054,0.68956 4.95791,2.33383 6.07848,4.56926 0.12779,0.25492 0.24497,0.4635 0.2604,0.4635 0.0154,0 0.3478,-0.23274 0.73861,-0.5172 0.89622,-0.65236 2.21811,-1.54864 3.07705,-2.08632 l 0.66279,-0.4149 -0.1617,-0.22528 c -0.30087,-0.41917 -0.88701,-1.13423 -1.28952,-1.57315 -0.22028,-0.2402 -0.40051,-0.44973 -0.40051,-0.46561 0,-0.0159 1.83695,-1.40662 4.0821,-3.09054 l 4.0821,-3.06166 0.41519,0.0831 c 1.29786,0.25964 3.01226,1.06068 4.54919,2.12557 0.44966,0.31156 1.64442,1.25843 2.16839,1.71849 l 0.23919,0.21002 0.66277,0.0404 c 5.60994,0.34196 10.37407,2.19773 14.29549,5.56853 0.62317,0.53567 1.98827,1.88148 1.96597,1.93819 -0.008,0.0206 -0.78813,0.85678 -1.73334,1.85807 l -1.71858,1.82053 1.33087,1.33156 1.33087,1.33156 -0.36393,0.30542 c -2.9554,2.48026 -9.1611,5.15318 -13.81891,5.95207 -1.23694,0.21216 -1.6863,0.25126 -2.85552,0.24849 -0.89912,-0.002 -1.2746,-0.025 -1.85404,-0.11317 -0.92562,-0.14076 -1.82169,-0.34419 -2.8145,-0.63894 l -0.78509,-0.23308 -0.71818,0.20644 c -1.54977,0.44547 -3.32267,0.69463 -5.61982,0.78979 l -0.84279,0.0349 z m 22.22214,-10.18788 c 1.45573,-0.45452 2.43804,-2.03575 2.15696,-3.47208 -0.21069,-1.07665 -1.10518,-2.07389 -2.14971,-2.39663 -0.41663,-0.12873 -0.50717,-0.12155 -0.15758,0.0125 0.39161,0.15016 0.84796,0.61497 0.99799,1.01648 0.24495,0.65551 0.10994,1.39519 -0.34563,1.89365 -0.59028,0.64586 -1.42127,0.79706 -2.21051,0.40222 -1.30795,-0.65434 -1.3157,-2.5443 -0.0133,-3.24633 0.40093,-0.21611 0.0166,-0.11005 -0.48132,0.13283 -0.59347,0.28948 -1.11267,0.8091 -1.39668,1.39782 -0.24813,0.51434 -0.31681,0.80135 -0.31681,1.32403 0,0.52827 0.0691,0.81377 0.32152,1.32789 0.40188,0.81864 1.24106,1.47654 2.14191,1.67922 0.41405,0.0932 1.0213,0.0632 1.45316,-0.0716 z m -1.31641,-5.94727 c -0.0166,-0.0166 -0.0599,-0.0184 -0.096,-0.004 -0.04,0.016 -0.0281,0.0279 0.0303,0.0303 0.0528,0.002 0.0824,-0.01 0.0658,-0.0263 z"
       id="path935-6"
       inkscape:connector-curvature="0"
       sodipodi:nodetypes="csccscsccsssssscsssscccssscsssccscsccccsscccsscccsscccscccscsccccccc" />
  </g>
</svg>
