<?xml version="1.0" encoding="UTF-8" standalone="no"?>
<svg
   xmlns:dc="http://purl.org/dc/elements/1.1/"
   xmlns:cc="http://creativecommons.org/ns#"
   xmlns:rdf="http://www.w3.org/1999/02/22-rdf-syntax-ns#"
   xmlns:svg="http://www.w3.org/2000/svg"
   xmlns="http://www.w3.org/2000/svg"
   xmlns:sodipodi="http://sodipodi.sourceforge.net/DTD/sodipodi-0.dtd"
   xmlns:inkscape="http://www.inkscape.org/namespaces/inkscape"
   id="b783d195-b08f-4839-b9b5-a9b86d08906a"
   data-name="Layer 1"
   width="574.99478"
   height="764"
   viewBox="0 0 574.99478 764"
   version="1.1"
   sodipodi:docname="undraw_terms_lso0.svg"
   inkscape:version="0.92.4 5da689c313, 2019-01-14">
  <metadata
     id="metadata59">
    <rdf:RDF>
      <cc:Work
         rdf:about="">
        <dc:format>image/svg+xml</dc:format>
        <dc:type
           rdf:resource="http://purl.org/dc/dcmitype/StillImage" />
      </cc:Work>
    </rdf:RDF>
  </metadata>
  <defs
     id="defs57" />
  <sodipodi:namedview
     pagecolor="#ffffff"
     bordercolor="#666666"
     borderopacity="1"
     objecttolerance="10"
     gridtolerance="10"
     guidetolerance="10"
     inkscape:pageopacity="0"
     inkscape:pageshadow="2"
     inkscape:window-width="1920"
     inkscape:window-height="1128"
     id="namedview55"
     showgrid="false"
     inkscape:zoom="0.87370262"
     inkscape:cx="334.90557"
     inkscape:cy="346.50148"
     inkscape:window-x="0"
     inkscape:window-y="44"
     inkscape:window-maximized="1"
     inkscape:current-layer="b783d195-b08f-4839-b9b5-a9b86d08906a" />
  <title
     id="title2">terms</title>
  <path
     d="M869.443,802.83547H313.68507V92.17481s590.04937-54.39333,555.75792,0S869.443,802.83547,869.443,802.83547Z"
     transform="translate(-312.50261 -68)"
     fill="#f2f2f2"
     id="path4" />
  <polygon
     points="558.123 736.018 0 736.018 0 22.992 332.43 22.992 332.43 25.357 2.365 25.357 2.365 733.653 555.758 733.653 555.758 170.13 558.123 170.13 558.123 736.018"
     fill="#3f3d56"
     id="polygon6" />
  <path
     d="M719.65,276.153c-15.43323.00116-32.03622-3.17209-47.12764-12.7034-43.77829-27.65163-85.79617-.29619-86.21477-.01616l-.13568.07794c-.38915.19054-26.33984,12.63931-56.89856,12.64162-15.43323.00116-32.03622-3.17209-47.12764-12.7034-43.77829-27.65163-85.79559-.29619-86.21477-.01616l-1.31179-1.9677c.433-.28811,43.72864-28.47381,88.78985-.01616,43.20727,27.29135,99.48746,1.00578,101.66186-.03291,2.06411-1.32854,44.541-27.86354,88.71479.03291,43.86894,27.70648,101.14915.22,101.72248-.06178l1.04043,2.12358C776.15943,263.70191,750.20874,276.15068,719.65,276.153Z"
     transform="translate(-312.50261 -68)"
     fill="#3f3d56"
     id="path8" />
  <path
     d="M719.65,332.91125c-15.43323.00115-32.03622-3.1721-47.12764-12.7034-43.77829-27.65106-85.79617-.29619-86.21477-.01617l-.13568.07795c-.38915.19053-26.33984,12.63931-56.89856,12.64162-15.43323.00115-32.03622-3.1721-47.12764-12.7034-43.77829-27.65106-85.79559-.29619-86.21477-.01617l-1.31179-1.96769c.433-.28811,43.72864-28.47382,88.78985-.01617,43.20727,27.29078,99.48746,1.00637,101.66186-.03291,2.06411-1.32911,44.541-27.86411,88.71479.03291,43.86894,27.70764,101.14915.21941,101.72248-.06178l1.04043,2.12359C776.15943,320.46016,750.20874,332.90894,719.65,332.91125Z"
     transform="translate(-312.50261 -68)"
     fill="#3f3d56"
     id="path10" />
  <path
     d="M719.65,389.66951c-15.43323.00115-32.03622-3.1721-47.12764-12.70341-43.77829-27.65221-85.79617-.29677-86.21477-.01616l-.13568.07794c-.38915.19054-26.33984,12.63932-56.89856,12.64163-15.43323.00115-32.03622-3.1721-47.12764-12.70341-43.77829-27.65221-85.79559-.29677-86.21477-.01616l-1.31179-1.9677c.433-.28811,43.72864-28.47439,88.78985-.01616,43.20727,27.29135,99.48746,1.00636,101.66186-.03291,2.06411-1.32854,44.541-27.86469,88.71479.03291,43.86894,27.70648,101.14915.22,101.72248-.06178l1.04043,2.12358C776.15943,377.21842,750.20874,389.6672,719.65,389.66951Z"
     transform="translate(-312.50261 -68)"
     fill="#3f3d56"
     id="path12" />
  <path
     d="M540.41844,446.52014c-.47634,0-.95382-.01386-1.43536-.04388-7.73855-.48037-14.60411-4.87651-20.40384-13.06888-5.74777-8.11789-11.85813-12.19127-18.29817-12.11217-10.74552.13569-18.80625,11.96841-18.88651,12.08792l-.10912.13857c-.51675.56641-12.82176,13.8749-27.43974,12.95456-7.73855-.48037-14.60412-4.87651-20.40385-13.06888-5.74776-8.11789-11.91066-12.19127-18.29816-12.11217-10.74552.13569-18.80625,11.96841-18.88651,12.08792l-1.96423-1.31757c.35566-.53,8.84654-12.984,20.82072-13.13527,7.25125-.1253,14.03367,4.32049,20.25777,13.111,5.36381,7.57458,11.62544,11.637,18.61052,12.07349,13.02789.8037,24.61407-11.18722,25.5038-12.13065.82276-1.19863,9.15717-12.90721,20.76529-13.05386.07275-.00116.14665-.00116.21882-.00116,7.13751,0,13.87721,4.40941,20.039,13.11218,5.36381,7.57458,11.62544,11.637,18.61053,12.07349,13.50191.85451,25.43855-12.0579,25.55749-12.18838l1.746,1.59528C565.92282,434.06963,554.388,446.519,540.41844,446.52014Z"
     transform="translate(-312.50261 -68)"
     fill="#3f3d56"
     id="path14" />
  <polygon
     points="334.637 603.582 223.486 603.582 223.486 527.904 308.623 527.904 308.623 530.269 225.851 530.269 225.851 601.217 332.272 601.217 332.272 565.743 334.637 565.743 334.637 603.582"
     fill="#3f3d56"
     id="polygon16" />
  <path
     d="M382.268,172.58234a14.18957,14.18957,0,1,1,14.18956-14.18956A14.20583,14.20583,0,0,1,382.268,172.58234Zm0-26.0142a11.82464,11.82464,0,1,0,11.82463,11.82464A11.83781,11.83781,0,0,0,382.268,146.56814Z"
     transform="translate(-312.50261 -68)"
     fill="#02a697"
     id="path18" />
  <polygon
     points="308.091 577.802 279.96 538.955 287.623 533.408 309.155 563.144 391.554 478.489 398.332 485.087 308.091 577.802"
     fill="#02a697"
     id="polygon20" />
  <path
     d="M382.01343,763.063c6.70634,24.79066,29.67707,40.14415,29.67707,40.14415s12.09761-24.84013,5.39127-49.6308-29.67708-40.14415-29.67708-40.14415S375.30709,738.27234,382.01343,763.063Z"
     transform="translate(-312.50261 -68)"
     fill="#3f3d56"
     id="path50" />
  <path
     d="M391.86793,757.73523c18.40229,17.91389,20.65,45.45171,20.65,45.45171s-27.58831-1.50633-45.99061-19.42023-20.65-45.45171-20.65-45.45171S373.46563,739.82133,391.86793,757.73523Z"
     transform="translate(-312.50261 -68)"
     fill="#02a697"
     id="path52" />
</svg>
