<?xml version="1.0" encoding="UTF-8" standalone="no"?>
<svg
   xmlns:dc="http://purl.org/dc/elements/1.1/"
   xmlns:cc="http://creativecommons.org/ns#"
   xmlns:rdf="http://www.w3.org/1999/02/22-rdf-syntax-ns#"
   xmlns:svg="http://www.w3.org/2000/svg"
   xmlns="http://www.w3.org/2000/svg"
   xmlns:sodipodi="http://sodipodi.sourceforge.net/DTD/sodipodi-0.dtd"
   xmlns:inkscape="http://www.inkscape.org/namespaces/inkscape"
   width="28.173014mm"
   height="27.237543mm"
   viewBox="0 0 28.173014 27.237543"
   version="1.1"
   id="svg2176"
   inkscape:version="1.0.2 (1.0.2+r75+1)"
   sodipodi:docname="c3.svg">
  <defs
     id="defs2170" />
  <sodipodi:namedview
     id="base"
     pagecolor="#ffffff"
     bordercolor="#666666"
     borderopacity="1.0"
     inkscape:pageopacity="0.0"
     inkscape:pageshadow="2"
     inkscape:zoom="4"
     inkscape:cx="-35.450562"
     inkscape:cy="51.540879"
     inkscape:document-units="mm"
     inkscape:current-layer="layer1"
     inkscape:document-rotation="0"
     showgrid="false"
     fit-margin-top="0.4"
     fit-margin-left="0.4"
     fit-margin-right="0.4"
     fit-margin-bottom="0.4"
     inkscape:window-width="1920"
     inkscape:window-height="1136"
     inkscape:window-x="1920"
     inkscape:window-y="27"
     inkscape:window-maximized="1" />
  <metadata
     id="metadata2173">
    <rdf:RDF>
      <cc:Work
         rdf:about="">
        <dc:format>image/svg+xml</dc:format>
        <dc:type
           rdf:resource="http://purl.org/dc/dcmitype/StillImage" />
        <dc:title></dc:title>
      </cc:Work>
    </rdf:RDF>
  </metadata>
  <g
     inkscape:label="Layer 1"
     inkscape:groupmode="layer"
     id="layer1"
     transform="translate(-99.306346,-59.708605)">
    <g
       aria-label="3"
       id="text915"
       style="font-style:normal;font-variant:normal;font-weight:bold;font-stretch:normal;font-size:66.6667px;line-height:1.25;font-family:'Open Sans';-inkscape-font-specification:'Open Sans, Bold';font-variant-ligatures:normal;font-variant-caps:normal;font-variant-numeric:normal;font-variant-east-asian:normal;letter-spacing:0px;word-spacing:0px;fill:#55b6ad;fill-opacity:1;stroke:none;stroke-width:1.36426"
       transform="matrix(0.26458333,0,0,0.26458333,-299.74385,20.410715)">
      <path
         d="m 1611.7904,186.86522 c 0,1.64931 -0.2713,3.13585 -0.8138,4.45964 -0.5209,1.30209 -1.2479,2.45226 -2.181,3.45053 -0.9115,0.97656 -1.9965,1.80121 -3.2552,2.47395 -1.237,0.65105 -2.5825,1.15018 -4.0365,1.4974 v 0.19531 c 3.8411,0.47743 6.7491,1.64931 8.724,3.51563 1.9748,1.84462 2.9622,4.34028 2.9622,7.48698 0,2.08334 -0.3798,4.01477 -1.1393,5.79428 -0.7379,1.75781 -1.888,3.28776 -3.4505,4.58984 -1.5408,1.30209 -3.4939,2.32205 -5.8594,3.0599 -2.3437,0.71615 -5.1107,1.07422 -8.3008,1.07422 -2.5607,0 -4.9696,-0.21701 -7.2266,-0.65104 -2.2569,-0.41233 -4.7773,-1.40176 -6.7304,-2.26981 l 3.5078,-6.84478 c 0,0 2.1701,0.727 3.2552,1.00912 1.0851,0.26041 2.1484,0.45572 3.1901,0.58593 1.0634,0.13021 2.0617,0.19532 2.9948,0.19532 1.8663,0 3.418,-0.17361 4.6549,-0.52084 1.237,-0.34722 2.2244,-0.8355 2.9623,-1.46484 0.7379,-0.62934 1.2587,-1.37804 1.5625,-2.2461 0.3255,-0.88975 0.4883,-1.85546 0.4883,-2.89713 0,-0.97657 -0.2062,-1.85547 -0.6185,-2.63672 -0.3907,-0.80295 -1.0417,-1.4757 -1.9531,-2.01823 -0.8898,-0.56424 -2.0617,-0.99827 -3.5157,-1.30209 -1.454,-0.30382 -3.2444,-0.45573 -5.3711,-0.45573 h -3.3854 v -7.0638 h 3.3203 c 1.9965,0 3.6567,-0.17361 4.9805,-0.52084 1.3238,-0.36892 2.3763,-0.8572 3.1576,-1.46484 0.8029,-0.62934 1.3672,-1.35634 1.6927,-2.18099 0.3255,-0.82465 0.4882,-1.70356 0.4882,-2.63672 0,-1.69271 -0.5317,-3.0165 -1.595,-3.97136 -1.0417,-0.95486 -2.7018,-1.43229 -4.9805,-1.43229 -1.0417,0 -2.0182,0.10851 -2.9297,0.32552 -0.8897,0.19531 -1.7252,0.45573 -2.5065,0.78125 -0.7595,0.30382 -1.4648,0.65104 -2.1159,1.04167 -0.6293,0.36892 -1.2044,0.73784 -1.7252,1.10677 l -5.0782,-6.70573 c 0.9115,-0.67275 1.8989,-1.29124 2.9623,-1.85547 1.0851,-0.56424 2.2569,-1.05252 3.5156,-1.46485 1.2587,-0.43403 2.615,-0.7704 4.069,-1.00911 1.454,-0.23872 3.0057,-0.35808 4.655,-0.35808 2.3437,0 4.4705,0.26042 6.3802,0.78125 1.9314,0.49913 3.5807,1.23698 4.9479,2.21355 1.3672,0.95486 2.4197,2.13759 3.1576,3.54818 0.7595,1.38889 1.1393,2.98394 1.1393,4.78515 z"
         style="font-style:normal;font-variant:normal;font-weight:bold;font-stretch:normal;font-size:66.6667px;font-family:'Open Sans';-inkscape-font-specification:'Open Sans, Bold';font-variant-ligatures:normal;font-variant-caps:normal;font-variant-numeric:normal;font-variant-east-asian:normal;fill:#55b6ad;fill-opacity:1;stroke-width:1.36426"
         id="path921"
         sodipodi:nodetypes="sccccccscccscccccssscsccssccsccsscscccccccsscccs" />
    </g>
    <path
       style="fill:none;stroke:#2f2c27;stroke-width:5.29167;stroke-linecap:butt;stroke-opacity:1"
       id="path917"
       sodipodi:type="arc"
       sodipodi:cx="112.9243"
       sodipodi:cy="73.327377"
       sodipodi:rx="10.583333"
       sodipodi:ry="10.583333"
       sodipodi:start="0.9424778"
       sodipodi:end="5.3407075"
       sodipodi:arc-type="arc"
       sodipodi:open="true"
       inkscape:export-xdpi="96"
       inkscape:export-ydpi="96"
       d="m 119.14503,81.889474 a 10.583333,10.583333 0 0 1 -14.08568,-1.480465 10.583333,10.583333 0 0 1 0,-14.163264 10.583333,10.583333 0 0 1 14.08568,-1.480464" />
  </g>
</svg>
