<?xml version="1.0" encoding="UTF-8" standalone="no"?>
<svg
   xmlns:dc="http://purl.org/dc/elements/1.1/"
   xmlns:cc="http://creativecommons.org/ns#"
   xmlns:rdf="http://www.w3.org/1999/02/22-rdf-syntax-ns#"
   xmlns:svg="http://www.w3.org/2000/svg"
   xmlns="http://www.w3.org/2000/svg"
   xmlns:sodipodi="http://sodipodi.sourceforge.net/DTD/sodipodi-0.dtd"
   xmlns:inkscape="http://www.inkscape.org/namespaces/inkscape"
   width="1500"
   height="500"
   viewBox="0 0 396.87499 132.29166"
   version="1.1"
   id="svg902"
   inkscape:version="1.0.1 (3bc2e813f5, 2020-09-07)"
   sodipodi:docname="logo_text_only.svg"
   inkscape:export-filename="/home/tjark/dev/protontypes/logos/logo_text_only.png"
   inkscape:export-xdpi="105.85969"
   inkscape:export-ydpi="105.85969">
  <defs
     id="defs896" />
  <sodipodi:namedview
     id="base"
     pagecolor="#ffffff"
     bordercolor="#666666"
     borderopacity="1.0"
     inkscape:pageopacity="0.0"
     inkscape:pageshadow="2"
     inkscape:zoom="0.35355339"
     inkscape:cx="923.53644"
     inkscape:cy="508.74796"
     inkscape:document-units="mm"
     inkscape:current-layer="layer1"
     inkscape:document-rotation="0"
     showgrid="false"
     fit-margin-top="20"
     fit-margin-left="5"
     fit-margin-right="5"
     fit-margin-bottom="20"
     inkscape:window-width="1514"
     inkscape:window-height="1016"
     inkscape:window-x="50"
     inkscape:window-y="27"
     inkscape:window-maximized="0"
     units="px"
     showguides="true"
     inkscape:guide-bbox="true"
     inkscape:snap-bbox="true"
     inkscape:snap-bbox-edge-midpoints="false"
     inkscape:snap-bbox-midpoints="true">
    <sodipodi:guide
       position="198.43749,229.57776"
       orientation="-1,0"
       id="guide1566"
       inkscape:label=""
       inkscape:locked="false"
       inkscape:color="rgb(0,0,255)" />
    <sodipodi:guide
       position="198.43749,66.145831"
       orientation="0,1"
       id="guide1570"
       inkscape:label=""
       inkscape:locked="false"
       inkscape:color="rgb(0,0,255)" />
  </sodipodi:namedview>
  <metadata
     id="metadata899">
    <rdf:RDF>
      <cc:Work
         rdf:about="">
        <dc:format>image/svg+xml</dc:format>
        <dc:type
           rdf:resource="http://purl.org/dc/dcmitype/StillImage" />
        <dc:title></dc:title>
      </cc:Work>
    </rdf:RDF>
  </metadata>
  <g
     inkscape:label="Layer 1"
     inkscape:groupmode="layer"
     id="layer1"
     transform="translate(0.4539431,-44.321288)">
    <rect
       style="fill:#ffffff;fill-opacity:1;stroke:none;stroke-width:5.03563"
       id="rect1568"
       width="396.875"
       height="132.29167"
       x="-0.45394561"
       y="44.321285" />
    <g
       id="g1588"
       transform="translate(2.8957659,0.38905667)">
      <path
         d="m 49.600773,108.96052 c 0,9.27305 -6.644355,16.83581 -14.994311,16.83581 -4.474866,0 -7.965728,-1.84148 -10.196134,-5.19649 v 15.19582 H 15.132597 V 92.846307 h 9.277731 v 4.535787 c 2.23509,-3.354978 5.721268,-5.196463 10.196134,-5.196463 8.349956,0 14.994311,7.497136 14.994311,16.774889 z m -9.076245,0 a 8.0594434,8.0594434 0 0 0 -16.1142,0 c 0,4.53577 3.551778,7.96572 8.087558,7.96572 a 7.9188716,7.9188716 0 0 0 8.026642,-7.96572 z"
         id="path12"
         style="stroke-width:0.468573" />
      <path
         d="m 75.512815,92.579221 v 8.434309 a 14.788142,14.788142 0 0 0 -3.359657,-0.46857 c -4.470178,0 -8.087559,2.6943 -8.087559,8.68266 v 15.93144 H 54.787867 V 92.846307 h 9.277732 v 3.682983 a 9.722875,9.722875 0 0 1 8.354645,-4.343659 17.412146,17.412146 0 0 1 3.092571,0.39359 z"
         id="path14"
         style="stroke-width:0.468573" />
      <path
         d="m 207.2566,106.85663 v 18.27432 h -9.27305 v -17.09352 c 0,-4.21716 -2.56775,-6.97234 -6.38193,-6.97234 -3.81418,0 -6.37729,2.76458 -6.37729,6.97234 v 17.1029 h -9.27305 V 92.846307 h 9.27305 v 4.217154 c 2.03828,-3.092572 5.06059,-4.868458 8.74826,-4.868458 8.28904,-0.0093 13.28401,5.515109 13.28401,14.661627 z"
         id="path16"
         style="stroke-width:0.468573" />
      <path
         d="m 225.34349,101.66018 v 10.19142 c 0,3.48618 2.34287,4.99967 5.59006,4.99967 a 9.3714461,9.3714461 0 0 0 2.37099,-0.2624 v 8.55146 a 20.359465,20.359465 0 0 1 -4.47487,0.5248 c -7.62834,0 -12.75921,-4.99968 -12.75921,-13.68232 v -10.30859 h -5.98836 v -8.827913 h 6.00241 v -8.48583 h 9.27304 v 8.48583 h 7.96572 v 8.813873 z"
         id="path18"
         style="stroke-width:0.468573" />
      <path
         d="m 270.00311,92.846307 -17.95567,43.014943 h -9.93374 l 5.98836,-13.35431 -12.43123,-29.660633 h 9.99465 l 7.16916,18.874103 7.16916,-18.874103 z"
         id="path20"
         style="stroke-width:0.468573" />
      <path
         d="m 308.28078,108.96052 c 0,9.27305 -6.63967,16.83581 -14.9943,16.83581 -4.47487,0 -7.96575,-1.84148 -10.19616,-5.19649 v 15.19582 h -9.27303 V 92.846307 h 9.27303 v 4.535787 c 2.2398,-3.354978 5.72129,-5.196463 10.19616,-5.196463 8.35463,0 14.9943,7.497136 14.9943,16.774889 z m -9.07621,0 a 8.0594434,8.0594434 0 0 0 -16.11425,0 c 0,4.53577 3.55179,7.96572 8.09227,7.96572 a 7.914186,7.914186 0 0 0 8.02198,-7.96572 z"
         id="path22"
         style="stroke-width:0.468573" />
      <path
         d="m 344.19686,111.19561 h -24.00963 c 0.65599,4.21715 3.87977,6.90675 8.21873,6.90675 3.62207,0 5.92276,-1.57908 6.44757,-3.81417 h 9.07622 c -1.04958,6.97235 -7.16915,11.50814 -15.26137,11.50814 a 16.760831,16.760831 0 0 1 -16.96702,-16.96701 c 0,-9.408933 7.36595,-16.643689 16.77022,-16.643689 8.74824,0 15.93145,6.841166 15.93145,15.720599 a 32.331487,32.331487 0 0 1 -0.20617,3.28938 z m -9.47455,-5.93214 c -0.26238,-3.27999 -3.22376,-5.59474 -6.64433,-5.59474 -3.54712,0 -6.31169,1.77589 -7.43158,5.59474 z"
         id="path24"
         style="stroke-width:0.468573" />
      <path
         d="m 347.54713,114.41939 h 8.43431 c 0.19679,2.23507 2.6943,3.87978 5.72126,3.87978 3.1582,0 4.8029,-1.1855 4.8029,-2.96139 0,-5.85246 -18.27435,-0.1968 -18.27435,-13.21841 0,-5.393285 4.7982,-9.933739 12.62335,-9.933739 7.02858,0 13.09192,3.748582 13.8838,10.589739 h -8.90286 c -0.2624,-1.8415 -2.371,-3.280013 -4.8685,-3.280013 -2.69896,0 -4.27335,1.054283 -4.27335,2.633373 0,5.59006 18.34929,-1.05428 18.34929,13.21842 0,5.92276 -5.52916,10.45854 -12.7639,10.45854 -8.34998,-0.009 -14.0572,-4.28275 -14.73195,-11.3863 z"
         id="path26"
         style="stroke-width:0.468573" />
      <path
         d="m 126.62937,101.59456 v 10.19145 c 0,3.48617 2.3663,4.99966 5.59006,4.99966 a 9.3714461,9.3714461 0 0 0 2.37098,-0.26239 v 8.55143 a 20.359465,20.359465 0 0 1 -4.47487,0.52483 c -7.62836,0 -12.75922,-4.9997 -12.75922,-13.68234 v -10.30858 h -5.98835 v -8.827912 h 5.98835 v -8.485829 h 9.27305 v 8.485829 h 7.96573 v 8.813852 z"
         id="path28"
         style="stroke-width:0.468573" />
      <path
         class="cls-3"
         d="M 92.756275,92.143468 Z"
         id="path30"
         style="fill:#fb7363;stroke-width:0.468573" />
      <path
         d="m 92.756275,116.85127 c -4.40925,0 -7.69395,-3.42057 -7.69395,-7.89075 v 0 h -9.080937 c 0,0 0,0 0,0 0,9.60104 7.239435,16.77021 16.774887,16.77021 v 0 -8.90288 z"
         id="path32"
         style="stroke-width:0.468573" />
      <path
         d="m 101.68727,94.598785 a 17.023231,17.023231 0 0 0 -8.902865,-2.478752 v 8.902867 c 4.329599,0 7.675195,3.35029 7.684565,7.94231 v 0 c 0,4.47017 -3.345596,7.88606 -7.684565,7.89074 v 8.9029 c 9.469835,0 16.760805,-7.17384 16.760805,-16.77022 -0.0187,-6.26481 -3.10662,-11.484697 -7.85794,-14.389845 z"
         id="path34"
         style="stroke-width:0.468573" />
      <path
         class="cls-1"
         d="m 92.756275,100.99948 v 0 -8.856012 h -0.0235 c -9.512038,0 -16.751473,7.206642 -16.751473,16.798292 h 9.076243 c 0.0136,-4.61543 3.29874,-7.94228 7.69865,-7.94228 z"
         id="path36"
         style="fill:#3b52ff;stroke-width:0.468573" />
      <path
         class="cls-2"
         d="m 153.70816,116.82316 c -4.40456,0 -7.69397,-3.42058 -7.69397,-7.89545 v 0 h -9.07624 v 0 c 0,9.60106 7.23476,16.77491 16.77021,16.77491 v 0 -8.90288 z"
         id="path38"
         style="fill:#00e6a7;stroke-width:0.468573" />
      <path
         d="m 162.66724,94.565979 a 16.981061,16.981061 0 0 0 -8.90285,-2.474073 v 8.902894 c 4.3296,0 7.67052,3.34559 7.67989,7.93761 0,0 0,0 0,0 0,4.47017 -3.35029,7.88607 -7.68457,7.89075 v 8.90289 c 9.46517,0 16.76083,-7.17387 16.76083,-16.77491 -0.0376,-6.26011 -3.12538,-11.480013 -7.8533,-14.385161 z"
         id="path40"
         style="stroke-width:0.468573" />
      <path
         d="m 153.70816,100.96667 v 0 -8.902864 h -0.0235 c -9.52137,0 -16.75145,7.225371 -16.7608,16.817044 h 9.07622 c 0.0282,-4.55452 3.30811,-7.91418 7.70802,-7.91418 z"
         id="path42"
         style="stroke-width:0.468573" />
    </g>
  </g>
</svg>
