<?xml version="1.0" encoding="UTF-8" standalone="no"?>
<!-- Created with Inkscape (http://www.inkscape.org/) -->

<svg
   xmlns:dc="http://purl.org/dc/elements/1.1/"
   xmlns:cc="http://creativecommons.org/ns#"
   xmlns:rdf="http://www.w3.org/1999/02/22-rdf-syntax-ns#"
   xmlns:svg="http://www.w3.org/2000/svg"
   xmlns="http://www.w3.org/2000/svg"
   xmlns:sodipodi="http://sodipodi.sourceforge.net/DTD/sodipodi-0.dtd"
   xmlns:inkscape="http://www.inkscape.org/namespaces/inkscape"
   width="155.18755mm"
   height="148.69992mm"
   viewBox="0 0 155.18754 148.69992"
   version="1.1"
   id="svg832"
   inkscape:version="0.92.5 (2060ec1f9f, 2020-04-08)"
   sodipodi:docname="opensustain_plain_bw.svg">
  <defs
     id="defs826" />
  <sodipodi:namedview
     id="base"
     pagecolor="#ffffff"
     bordercolor="#666666"
     borderopacity="1.0"
     inkscape:pageopacity="0.0"
     inkscape:pageshadow="2"
     inkscape:zoom="1.4"
     inkscape:cx="344.21832"
     inkscape:cy="248.55158"
     inkscape:document-units="mm"
     inkscape:current-layer="layer1-6"
     showgrid="false"
     fit-margin-top="0"
     fit-margin-left="0"
     fit-margin-right="0"
     fit-margin-bottom="0"
     inkscape:window-width="1920"
     inkscape:window-height="1136"
     inkscape:window-x="0"
     inkscape:window-y="27"
     inkscape:window-maximized="1" />
  <metadata
     id="metadata829">
    <rdf:RDF>
      <cc:Work
         rdf:about="">
        <dc:format>image/svg+xml</dc:format>
        <dc:type
           rdf:resource="http://purl.org/dc/dcmitype/StillImage" />
        <dc:title></dc:title>
      </cc:Work>
    </rdf:RDF>
  </metadata>
  <g
     inkscape:label="Layer 1"
     inkscape:groupmode="layer"
     id="layer1"
     transform="translate(-24.395861,0.84567958)">
    <g
       id="layer1-6"
       inkscape:label="Layer 1"
       transform="matrix(0.26458333,0,0,0.26458333,13.286222,-17.028726)">
      <path
         inkscape:export-ydpi="48.18"
         inkscape:export-xdpi="48.18"
         inkscape:export-filename="/home/rafael/workspace/logo-osi/3/png/logo396x412.png"
         id="path3773"
         d="m 335.257,351.29301 m 34.75308,89.54857 a 96.967335,95.917459 0 1 0 -69.50618,0 l -65.31719,168.3543 a 279.26591,276.24228 0 1 1 200.14057,0 z"
         inkscape:connector-curvature="0"
         style="text-anchor:middle;fill:#ffffff;fill-opacity:1;stroke:#000000;stroke-width:27.96850395;stroke-linejoin:round;stroke-miterlimit:4;stroke-dasharray:none;stroke-opacity:0.93577981" />
      <g
         id="g1817"
         transform="matrix(0.05170421,0,0,-0.05407872,3.4371445,700.19238)"
         style="fill:#000000;stroke:none">
        <path
           id="path1709"
           d="m 4486.2671,1690.4159 c -582.4787,215.0969 -1119.7577,527.4005 -1610.3839,936.7291 -162.4838,135.4859 -500.571,474.2007 -635.806,636.986 -668.1008,803.8157 -1056.6489,1734.0175 -1151.5151,2755.2173 -7.0646,72.7984 -13.1199,249.7389 -13.1199,395.3358 -1.0092,237.6058 1.0093,264.9052 17.1567,281.0827 9.0829,10.1109 17.1566,21.2328 17.1566,26.2882 0,4.0444 32.2949,35.3882 71.6544,68.7541 74.6819,63.6986 133.2164,138.5192 162.4837,209.2954 13.1198,30.3327 18.1659,83.9204 22.2028,217.3841 7.0645,213.3398 16.1474,293.2159 32.2949,271.983 24.2211,-30.3327 35.3225,-90.998 45.4146,-231.5394 9.083,-144.5857 5.0461,-207.2732 -12.1106,-218.3952 -5.046,-3.0332 -9.0829,-24.2661 -9.0829,-48.5323 0,-43.4768 -16.1474,-150.6522 -27.2488,-177.9516 -3.0276,-8.0887 -5.046,-53.5877 -4.0368,-101.109 2.0184,-61.6763 8.0737,-97.0644 22.2027,-124.3638 10.0921,-21.2329 19.1751,-48.5323 20.1843,-60.6654 0,-12.1331 6.0553,-38.4213 13.1198,-57.6321 12.1106,-32.3548 14.129,-33.3659 23.212,-15.1663 6.0553,11.122 14.129,43.4768 17.1567,70.7762 32.2949,254.7945 64.5897,430.7239 100.9215,538.9105 18.1659,52.5766 27.2489,68.754 45.4147,70.7762 13.1198,2.0221 29.2673,19.2106 43.3963,45.499 25.2304,50.5544 50.4608,151.6633 42.3871,172.8962 -4.0369,10.1109 10.0922,23.255 44.4054,40.4435 l 50.4609,25.2773 7.0645,-176.9406 c 5.0461,-125.375 4.0369,-194.1291 -5.0461,-234.5727 -10.0922,-51.5655 -9.0829,-68.754 15.1383,-168.8518 14.1289,-60.6653 37.3409,-173.9073 50.4607,-250.75 32.2949,-184.0182 57.5254,-286.1382 94.8663,-393.3136 40.3686,-114.253 98.9031,-234.5727 106.9768,-220.4175 3.0277,5.0555 4.0369,14.1553 1.0093,18.1997 -3.0277,5.0554 -8.0738,64.7097 -11.1014,134.4748 -6.0553,108.1866 -12.1106,142.5635 -47.4331,251.7611 -22.2028,69.7652 -51.4701,146.6079 -66.6083,171.8851 -25.2303,44.488 -25.2303,46.5102 -13.1197,128.4084 12.1105,83.9204 27.2487,134.4748 42.387,134.4748 4.0368,0 28.258,-31.3438 52.4792,-69.7652 33.3041,-50.5544 47.4331,-80.8871 49.4516,-113.2419 2.0184,-32.3548 8.0737,-45.499 20.1843,-47.5211 17.1567,-3.0333 25.2304,10.1108 112.023,199.1844 11.1013,25.2772 21.1935,59.6542 21.1935,75.8317 -1.0092,53.5877 -21.1935,194.1291 -31.2857,214.3509 -17.1567,32.3548 -27.2489,260.8609 -13.1198,289.1714 18.1659,34.377 62.5714,78.8649 78.7188,78.8649 23.212,0 12.1106,-133.4637 -12.1105,-160.7631 -16.1475,-18.1996 -17.1567,-25.2772 -8.0738,-46.5101 15.1382,-33.366 43.3963,-32.3549 70.6451,5.0554 18.1659,24.2662 22.2028,43.4768 22.2028,109.1976 v 79.8761 l 38.3501,25.2772 c 20.1843,14.1552 54.4977,36.3991 75.6913,49.5433 20.1843,13.1442 40.3685,32.3548 43.3962,41.4547 3.0276,10.1109 31.2857,33.3659 63.5806,52.5766 80.7373,49.5434 133.2164,110.2087 181.6589,209.2955 71.6542,149.6411 115.0506,355.9032 116.0598,552.0545 1.0092,96.0534 4.0368,124.3639 14.129,124.3639 31.2856,0 5.0461,35.3881 -33.3041,45.499 -54.4976,14.1552 -65.599,22.2439 -65.599,48.5323 0,25.2772 80.7372,118.2973 101.9308,118.2973 34.3132,-1.011 38.3501,-16.1773 9.0829,-34.3769 -56.5161,-32.355 -27.2488,-71.7874 31.2856,-42.4658 18.1659,9.0998 35.3226,16.1774 39.3595,16.1774 13.1198,0 18.1659,-83.9204 7.0645,-106.1643 -5.0461,-10.1109 -12.1106,-52.5766 -14.129,-93.0201 -4.0369,-64.7098 -3.0277,-74.8207 13.1198,-80.8872 11.1014,-3.0332 22.2027,-11.122 26.2396,-17.1885 5.0461,-7.0776 12.1106,-6.0665 20.1843,5.0554 22.2027,26.2884 91.8387,67.743 127.1612,74.8206 26.2396,5.0555 37.341,16.1774 58.5345,58.6432 29.2673,55.6099 64.5898,209.2954 64.5898,277.0383 0,25.2772 6.0553,48.5323 16.1475,58.6432 23.2119,22.244 80.7372,50.5544 141.2902,68.754 69.6359,21.2329 108.9953,42.4657 133.2164,72.7985 28.2581,35.3881 136.2442,256.8165 176.6128,362.9808 40.3686,104.1422 67.6175,131.4417 67.6175,67.743 0,-21.2329 -11.1014,-72.7984 -25.2305,-114.253 -23.2118,-68.7541 -32.2948,-119.3085 -20.1842,-119.3085 3.0277,0 27.2488,16.1774 55.5068,36.3991 48.4424,34.3771 50.4609,38.4214 50.4609,82.9094 0,26.2882 8.0737,61.6763 17.1566,77.8538 9.0829,17.1885 17.1566,55.6099 18.1659,85.9426 1.0092,30.3326 7.0645,86.9536 13.1198,126.3861 6.0553,38.4213 9.0829,71.7873 6.0553,74.8206 -2.0185,2.0221 -18.1659,-8.0887 -34.3134,-24.2662 -30.2764,-28.3104 -31.2856,-29.3215 -59.5437,-12.1331 -15.1382,9.0999 -31.2857,14.1553 -35.3226,10.1109 -3.0276,-3.0333 -6.0553,0 -6.0553,7.0776 0,29.3217 45.4148,82.9094 112.023,131.4417 38.3502,29.3215 87.8017,72.7983 108.9953,98.0756 34.3134,41.4546 47.4332,48.5322 102.94,59.6542 88.8111,19.2107 124.1336,17.1886 170.5575,-6.0665 76.7004,-39.4325 151.3823,-19.2108 228.0828,62.6875 22.2027,23.255 61.5621,60.6652 86.7925,80.8872 45.4147,37.41 47.4331,37.41 104.9585,30.333 31.2857,-4.045 59.5437,-11.122 61.5621,-17.189 1.0092,-5.055 -17.1567,-18.2 -41.3778,-28.31 -25.2304,-10.111 -58.5346,-30.3331 -74.682,-45.4994 -16.1475,-15.1664 -64.5898,-58.6432 -107.9861,-98.0756 -152.3915,-138.5193 -164.5021,-156.7188 -168.539,-263.8943 -3.0277,-65.7207 -2.0184,-69.7651 20.1843,-72.7983 15.1383,-2.0223 22.2028,-10.1109 22.2028,-26.2884 0,-34.377 26.2395,-53.5877 38.3501,-29.3216 16.1475,29.3216 85.7834,100.0978 113.0322,114.253 49.4516,25.2773 102.94,74.8207 150.3732,137.5082 37.3409,49.5434 50.4607,75.8316 55.5068,115.2641 4.0369,28.3105 12.1106,52.5766 19.1751,54.5988 7.0646,2.0222 39.3595,8.0887 72.6635,15.1663 33.3042,6.0666 117.0691,38.4214 186.705,70.7762 136.2441,64.71 170.5575,76.843 245.2394,87.965 47.4332,6.066 52.4793,12.133 48.4424,56.621 -2.0184,17.188 9.083,22.244 69.6359,33.366 49.4516,9.1 90.8294,26.288 90.8294,37.41 0,6.066 51.47,7.078 139.2718,3.033 115.0506,-6.067 146.3363,-5.055 174.5943,8.089 19.1751,8.089 54.4977,21.232 79.7281,29.322 42.387,12.133 45.4146,16.177 48.4423,51.565 2.0184,21.233 -1.0092,37.411 -7.0645,37.411 -7.0645,0 -11.1014,22.243 -11.1014,52.576 0,44.488 -6.0553,61.676 -36.3317,106.164 -30.2765,44.488 -42.3871,53.588 -66.6083,53.588 -16.1475,0 -41.3778,9.1 -55.5068,20.222 -33.3042,25.277 -77.7096,25.277 -152.3917,0 -53.4884,-19.211 -118.0782,-24.266 -234.138,-18.199 -19.1751,1.01 -86.7926,-13.145 -150.3731,-31.345 -114.0414,-33.366 -116.0599,-33.366 -265.4238,-26.288 -136.2441,7.078 -153.4008,10.111 -186.7049,32.355 -36.3318,25.278 -38.3503,25.278 -232.1197,21.233 -148.3546,-2.022 -194.7786,0 -194.7786,9.1 0,7.078 14.129,28.31 30.2765,46.509 31.2857,36.4 39.3593,74.821 18.1659,96.054 -30.2765,30.333 -186.705,-10.111 -202.8524,-53.588 -12.1106,-31.343 -7.0645,-65.72 12.1105,-84.931 18.1659,-18.199 18.1659,-20.222 3.0277,-34.377 -61.5621,-54.598 -213.9538,-95.042 -262.3961,-68.754 -14.129,7.078 -23.2119,8.089 -27.2488,1.011 -12.1106,-20.221 -35.3226,-10.111 -35.3226,15.167 0,49.543 -95.8755,60.664 -136.2441,15.166 -13.1198,-15.166 -31.2857,-20.222 -67.6175,-20.222 -27.2487,0 -58.5344,-5.056 -69.6358,-10.111 -16.1475,-9.1 -19.1752,-7.078 -19.1752,12.133 0,13.144 4.0369,38.422 10.0922,57.633 9.083,31.343 8.0738,33.365 -13.1198,26.288 -12.1106,-4.045 -47.4331,-10.111 -77.7096,-12.133 -47.4332,-4.045 -58.5346,-1.012 -74.6819,16.177 -11.1014,12.133 -24.2212,21.233 -30.2765,21.233 -7.0645,0 -34.3134,-21.233 -62.5715,-47.522 -54.4976,-52.576 -144.3178,-104.142 -180.6496,-104.142 -12.1106,0 -42.387,-7.077 -65.5989,-15.166 -23.212,-8.089 -45.4148,-15.167 -48.4424,-15.167 -11.1014,0 127.1612,103.132 258.3592,193.118 204.8708,139.531 397.631,251.762 647.9166,377.137 693.3312,344.781 1431.0679,535.877 2215.2286,572.276 241.2026,11.123 244.2302,11.123 489.4696,0 763.9764,-34.377 1438.1325,-197.162 2129.4454,-515.655 192.7602,-88.976 396.6218,-200.196 643.8797,-354.892 20.1842,-12.133 22.2026,-19.211 17.1565,-57.633 -10.0921,-70.776 21.1936,-99.086 141.2903,-132.452 22.2028,-6.066 65.599,-31.344 95.8755,-56.621 30.2765,-25.278 84.7741,-63.699 121.1059,-84.932 40.3687,-24.265 118.0782,-92.009 203.8614,-175.929 75.691,-75.832 156.429,-148.63 179.64,-163.796 49.452,-31.3442 80.738,-78.8653 80.738,-125.3755 0,-28.3104 11.101,-44.4878 73.673,-106.1643 40.368,-39.4324 84.774,-85.9425 97.893,-103.131 25.231,-30.3327 105.969,-82.9093 115.051,-73.8095 3.028,3.0333 6.055,21.2329 8.074,42.4657 1.009,20.2218 5.046,37.4104 8.074,37.4104 8.074,0 177.621,-210.3066 253.313,-313.4377 304.783,-414.5464 571.216,-937.2793 725.626,-1420.5799 166.52,-520.7108 242.212,-1056.5879 229.092,-1607.6313 -7.064,-254.7945 -14.129,-351.859 -48.442,-591.4871 -113.032,-799.7713 -442.037,-1586.3984 -945.636,-2259.7837 -330.013,-441.8459 -784.16,-873.5809 -1249.4088,-1188.0295 -375.5377,-254.7423 -770.5029,-457.7402 -1187.6504,-610.259 25.7853,-67.1247 0,0 25.7853,-67.1247 288.9519,106.2435 570.5851,236.3121 834.8792,386.1901 161.4745,92.0091 498.5526,316.4709 636.8152,424.6574 901.2295,704.7289 1527.9525,1625.831 1826.6805,2681.4078 173.585,615.7531 226.064,1319.471 144.318,1959.4903 -121.106,960.5344 -508.645,1837.1486 -1153.534,2616.6981 -128.171,155.7077 -479.377,505.5444 -641.861,641.0304 -896.1837,746.183 -1948.7957,1176.908 -3128.569,1280.039 -125.1427,11.121 -613.6031,21.233 -711.4971,14.155 -484.4236,-31.344 -752.8749,-70.776 -1140.4138,-166.83 C 4213.094,11245.667 3445.0809,10850.331 2795.1459,10295.243 2637.7082,10160.769 2318.796,9839.2423 2190.6256,9685.5567 1910.0637,9347.853 1699.1376,9025.3156 1513.4419,8648.1795 1289.396,8191.1672 1147.0965,7751.3436 1065.3501,7262.9876 986.63121,6795.8645 977.54827,6267.0651 1040.1196,5796.9087 1183.4283,4719.0879 1674.9164,3719.121 2451.0033,2926.4273 c 459.1932,-467.1231 927.4693,-805.8378 1508.7776,-1088.9428 163.6421,-79.3417 328.3357,-150.1747 494.4693,-212.5802"
           inkscape:connector-curvature="0"
           style="fill:#00001c;fill-opacity:1;stroke:#000000;stroke-width:195.55883789;stroke-miterlimit:4;stroke-dasharray:none;stroke-opacity:0"
           sodipodi:nodetypes="ccccccsccccccsccccccccccccccccccccccccscccccccscccscccccccscscccssccccccsccccscscscccccccscccccccccscccsccccccccccsccccsscscccccccscccccccscscsccccscscsccccccccccccsccccsccccccccccccccccccccccccc" />
        <path
           id="path1711"
           d="m 7950,10723 c -14,-2 -55,-13 -91,-24 -36,-10 -78,-19 -93,-19 -23,0 -28,-6 -43,-61 -9,-34 -24,-64 -34,-70 -18,-9 -103,-12 -203,-7 -45,3 -50,1 -66,-27 -25,-45 -118,-76 -247,-83 -132,-6 -322,28 -356,63 -29,30 -117,44 -237,38 -97,-6 -123,-14 -114,-38 7,-18 -18,-30 -100,-49 -37,-9 -87,-27 -110,-41 -24,-14 -57,-25 -74,-25 -70,0 -105,-35 -62,-62 34,-22 23,-78 -16,-78 -12,0 -35,-10 -50,-23 -23,-20 -25,-26 -15,-45 6,-12 25,-29 41,-37 35,-18 45,-49 36,-114 -6,-43 -3,-52 24,-86 16,-21 30,-41 30,-46 0,-15 39,-20 60,-7 19,12 24,10 46,-15 23,-27 33,-77 15,-77 -17,0 -124,-105 -153,-149 -40,-64 -38,-81 11,-81 98,0 221,61 356,176 133,113 166,133 210,128 30,-4 55,1 98,21 l 59,26 96,-17 c 249,-42 456,-157 653,-361 169,-175 311,-393 493,-753 97,-192 139,-280 231,-490 86,-195 190,-395 227,-437 9,-10 34,-54 57,-99 24,-44 86,-135 142,-202 54,-67 99,-126 99,-130 0,-15 60,-100 75,-106 20,-7 47,22 44,48 -1,11 2,37 8,57 12,39 5,95 -20,164 -17,48 -82,179 -106,215 -10,14 -28,43 -41,65 l -24,40 32,-23 c 18,-13 40,-35 50,-49 9,-14 41,-51 69,-83 29,-31 59,-75 67,-97 14,-41 95,-155 129,-183 28,-24 78,-201 71,-254 -5,-32 -1,-55 15,-91 11,-26 21,-62 21,-80 0,-18 10,-47 23,-66 19,-30 38,-39 142,-76 66,-22 129,-42 140,-42 11,-1 47,-15 80,-31 33,-17 76,-30 96,-30 20,0 42,-6 48,-14 6,-7 25,-16 42,-20 23,-4 38,-19 67,-66 81,-133 212,-332 239,-364 15,-18 36,-47 45,-65 13,-23 24,-31 48,-32 16,-1 35,-2 42,-3 7,-1 22,13 34,31 l 21,31 18,-148 18,-149 -23,-48 c -12,-26 -30,-57 -40,-68 -9,-11 -22,-42 -28,-70 -6,-27 -20,-77 -32,-110 -15,-41 -20,-74 -17,-103 3,-24 -1,-67 -8,-95 -9,-36 -13,-119 -11,-272 2,-219 2,-220 34,-317 21,-61 30,-106 26,-122 -7,-31 24,-104 64,-146 40,-41 66,-137 60,-220 -3,-48 -14,-80 -52,-152 -26,-50 -58,-120 -72,-156 -13,-36 -29,-71 -35,-78 -13,-16 -89,-233 -89,-255 0,-9 -34,-86 -76,-170 -56,-113 -87,-164 -119,-194 -35,-33 -44,-49 -50,-90 -9,-65 -35,-106 -89,-140 -42,-26 -82,-77 -119,-150 -8,-17 -50,-71 -92,-120 -131,-153 -205,-281 -205,-353 0,-18 14,-42 41,-70 39,-42 42,-43 60,-26 11,10 31,18 45,19 28,1 73,49 74,78 0,19 25,59 73,115 15,18 27,39 27,46 0,8 14,19 30,25 17,5 30,17 30,25 0,9 13,22 29,31 33,16 46,44 36,75 -5,15 6,32 49,73 31,29 68,77 82,106 27,53 73,105 133,149 17,13 31,30 31,38 0,7 26,27 58,43 79,40 167,141 174,202 5,39 23,56 69,63 56,9 149,101 149,147 0,35 17,70 80,164 26,39 67,106 90,150 40,73 136,210 230,325 23,28 84,150 162,325 122,273 125,283 136,382 7,56 21,126 31,155 58,157 77,288 44,306 -14,8 -15,15 -4,56 14,56 2,86 -34,86 -39,0 -55,11 -75,50 -11,21 -30,47 -43,57 -29,22 -40,93 -41,258 -2,139 -20,176 -116,238 -23,15 -47,47 -75,101 -28,55 -54,89 -87,116 -43,34 -52,38 -104,36 -67,-2 -74,7 -74,91 0,33 -5,64 -12,71 -17,17 -121,15 -170,-4 -68,-26 -91,-54 -96,-118 -3,-37 -11,-61 -23,-72 -11,-9 -19,-26 -19,-37 0,-17 -5,-19 -31,-13 -17,3 -42,6 -56,6 -19,0 -29,10 -47,53 -20,42 -25,76 -30,182 -10,222 -15,251 -49,285 -35,34 -53,37 -77,15 -19,-17 -86,-23 -99,-9 -5,5 -4,52 2,109 9,91 13,103 44,139 34,40 44,90 21,98 -21,8 -101,1 -132,-11 -16,-6 -46,-29 -67,-51 -43,-44 -106,-80 -142,-80 -13,0 -36,13 -53,31 l -29,30 -10,256 -10,256 49,42 c 52,46 43,44 246,61 l 75,6 44,-38 c 32,-28 55,-62 86,-129 44,-95 83,-138 119,-133 25,4 26,25 6,218 -6,69 -9,157 -5,195 3,39 8,104 10,145 2,41 8,88 14,103 17,43 13,88 -10,131 -15,29 -19,48 -14,74 10,56 49,132 99,200 38,49 53,62 75,62 30,0 123,43 141,65 22,26 2,81 -50,141 -66,76 -64,95 3,22 59,-63 80,-73 144,-63 73,11 76,65 8,138 -19,21 -35,43 -35,50 0,7 -25,39 -56,72 -64,70 -94,125 -164,302 -28,70 -69,166 -91,213 l -40,86 -82,23 c -45,12 -98,21 -117,19 l -35,-3 v -75 c 0,-102 -13,-102 -109,4 -99,109 -154,146 -216,146 -33,0 -52,-6 -63,-18 -24,-26 -21,-38 12,-61 27,-19 29,-27 33,-98 3,-43 8,-86 12,-95 7,-16 2,-18 -37,-18 -76,0 -106,10 -125,42 -19,34 -224,174 -262,179 -28,5 -48,55 -49,127 -1,37 2,42 22,42 12,0 31,7 41,15 25,19 50,19 66,0 14,-17 50,-20 50,-5 0,6 12,10 26,10 24,0 25,-2 19,-44 -8,-49 4,-65 29,-40 21,20 21,73 1,80 -12,5 -13,10 -4,20 18,22 64,17 105,-11 22,-15 51,-25 71,-25 37,0 75,-24 159,-101 66,-61 106,-82 126,-66 54,44 80,146 58,228 -17,64 -68,107 -180,153 -78,33 -105,50 -158,103 -102,101 -223,152 -575,243 -175,45 -191,51 -223,84 -39,40 -45,42 -77,22 -12,-7 -38,-14 -57,-14 -39,-1 -281,52 -311,68 -10,6 -58,18 -106,26 -49,9 -99,23 -113,32 -16,10 -49,16 -90,17 -36,0 -81,4 -100,7 -19,3 -46,4 -60,1 z"
           inkscape:connector-curvature="0"
           style="fill:#000000;fill-opacity:0.93119261;stroke:#000000;stroke-width:0;stroke-miterlimit:4;stroke-dasharray:none;stroke-opacity:0.97247709" />
        <path
           id="path1763"
           d="m 1516,6548 c -20,-47 -20,-95 -1,-142 16,-39 35,-48 35,-17 0,10 9,30 21,45 15,19 16,24 5,20 -13,-5 -16,2 -16,43 0,27 -6,58 -14,69 -14,18 -15,17 -30,-18 z"
           inkscape:connector-curvature="0"
           style="fill:#000830;fill-opacity:1" />
        <path
           id="path1807"
           d="m 3011,5136 c -9,-10 -8,-29 4,-77 14,-61 13,-66 -7,-108 -20,-40 -22,-42 -35,-26 -7,11 -13,23 -13,28 0,4 -14,7 -32,5 -28,-3 -35,-10 -59,-58 -18,-37 -34,-57 -50,-60 -23,-6 -24,-10 -24,-89 v -83 l -50,-45 c -27,-24 -74,-61 -104,-81 l -53,-36 5,-63 c 2,-35 9,-69 14,-76 6,-6 24,-57 42,-112 40,-121 107,-288 156,-384 20,-41 35,-85 35,-106 0,-71 81,-109 150,-70 14,8 42,14 62,15 26,0 47,8 70,28 45,39 164,102 191,102 12,0 27,-4 33,-8 19,-12 38,-56 36,-83 -2,-29 50,-113 85,-136 21,-14 24,-12 59,41 20,31 42,56 49,56 7,0 15,-18 19,-41 13,-79 57,-141 176,-241 65,-55 65,-55 150,-62 79,-6 85,-5 100,15 17,22 52,28 84,14 17,-7 18,-5 12,19 -5,20 0,35 19,60 39,51 51,128 36,223 -7,43 -12,115 -11,160 1,64 -3,89 -20,119 -11,21 -20,49 -20,62 0,27 -39,107 -86,174 -18,27 -36,58 -40,70 -12,40 -126,198 -154,215 -29,17 -120,189 -120,226 0,11 -7,33 -15,51 -20,43 -109,136 -129,136 -17,0 -29,36 -49,154 -22,133 -51,109 -68,-56 -6,-57 -9,-123 -8,-148 7,-141 -2,-147 -97,-65 -44,38 -83,75 -88,83 -4,8 -5,38 -1,68 10,82 0,109 -51,144 -25,16 -58,37 -74,45 -37,19 -114,20 -129,1 z"
           inkscape:connector-curvature="0"
           style="fill:#000000;fill-opacity:1;stroke:#000000;stroke-width:135.80474854;stroke-miterlimit:4;stroke-dasharray:none;stroke-opacity:1" />
        <path
           id="path1809"
           d="m 5675,4710 c 4,-6 11,-8 16,-5 14,9 11,15 -7,15 -8,0 -12,-5 -9,-10 z"
           inkscape:connector-curvature="0" />
      </g>
    </g>
  </g>
</svg>
