<?xml version="1.0" encoding="UTF-8" standalone="no"?>
<svg
   xmlns:dc="http://purl.org/dc/elements/1.1/"
   xmlns:cc="http://creativecommons.org/ns#"
   xmlns:rdf="http://www.w3.org/1999/02/22-rdf-syntax-ns#"
   xmlns:svg="http://www.w3.org/2000/svg"
   xmlns="http://www.w3.org/2000/svg"
   xmlns:sodipodi="http://sodipodi.sourceforge.net/DTD/sodipodi-0.dtd"
   xmlns:inkscape="http://www.inkscape.org/namespaces/inkscape"
   width="99.414383mm"
   height="99.414146mm"
   viewBox="0 0 99.414383 99.414147"
   version="1.1"
   id="svg209446"
   inkscape:version="1.0.1 (3bc2e813f5, 2020-09-07)"
   sodipodi:docname="simple_earth_color.svg">
  <defs
     id="defs209440" />
  <sodipodi:namedview
     id="base"
     pagecolor="#ffffff"
     bordercolor="#666666"
     borderopacity="1.0"
     inkscape:pageopacity="0.0"
     inkscape:pageshadow="2"
     inkscape:zoom="1.979899"
     inkscape:cx="215.72978"
     inkscape:cy="187.43899"
     inkscape:document-units="mm"
     inkscape:current-layer="layer1"
     inkscape:document-rotation="0"
     showgrid="false"
     inkscape:window-width="1920"
     inkscape:window-height="1043"
     inkscape:window-x="1920"
     inkscape:window-y="0"
     inkscape:window-maximized="1"
     fit-margin-top="1"
     fit-margin-left="1"
     fit-margin-right="1"
     fit-margin-bottom="1" />
  <metadata
     id="metadata209443">
    <rdf:RDF>
      <cc:Work
         rdf:about="">
        <dc:format>image/svg+xml</dc:format>
        <dc:type
           rdf:resource="http://purl.org/dc/dcmitype/StillImage" />
        <dc:title></dc:title>
      </cc:Work>
    </rdf:RDF>
  </metadata>
  <g
     inkscape:label="Ebene 1"
     inkscape:groupmode="layer"
     id="layer1"
     transform="translate(-59.873433,-75.375065)">
    <circle
       r="46.237629"
       cy="125.08214"
       cx="109.58051"
       id="path209412"
       style="fill:#0090ff;fill-opacity:1;stroke:#000000;stroke-width:4.93889;stroke-linecap:round;stroke-miterlimit:4;stroke-dasharray:none;stroke-opacity:1" />
    <path
       id="path209422"
       style="fill:#37f400;fill-opacity:1;stroke:#000000;stroke-width:18.6667;stroke-linecap:butt;stroke-linejoin:miter;stroke-miterlimit:4;stroke-dasharray:none;stroke-opacity:1"
       d="M 158.07812,7.4589844 C 72.27687,18.577447 5.9999962,91.926039 6,180.75586 c 0,10.40288 0.9094902,20.59485 2.6523438,30.49805 h 1.28125 62.6796872 L 97.433594,191.2168 V 122.28711 L 158.50586,61.216797 V 10.501953 Z m 110.81055,22.3593746 -0.47265,1.308594 -44.375,44.375 v 44.820317 l -40.89258,40.89453 v 31.78515 l 10.35742,10.35743 17.85742,-17.85743 h 100 l 36.07031,36.07032 2.78907,2.02343 c 3.45433,-13.7077 5.29101,-28.05966 5.29101,-42.83984 0,-64.37276 -34.80631,-120.615447 -86.625,-150.937501 z m -83.95508,188.541021 -18.57031,18.57031 v 40.71484 l 21.42774,21.42774 h 47.14257 v 42.85742 l 0.79883,4.75976 c 36.10662,-11.95608 66.99267,-35.3664 88.35547,-65.92773 l 0.13086,-0.97461 v -24.28516 l -37.14258,-37.14257 z m -169.285152,16.42773 -1.095704,0.125 c 11.658849,35.80532 34.565402,66.53222 64.548828,88.00977 L 102.43359,299.42969 37.791016,234.78711 Z"
       transform="matrix(0.26458333,0,0,0.26458333,61.755377,77.257009)" />
  </g>
</svg>
